G04*
G04 #@! TF.GenerationSoftware,Altium Limited,Altium Designer,18.1.9 (240)*
G04*
G04 Layer_Color=32768*
%FSLAX25Y25*%
%MOIN*%
G70*
G01*
G75*
%ADD18C,0.00394*%
%ADD102C,0.00591*%
%ADD103C,0.00100*%
%ADD104C,0.00197*%
%ADD105C,0.00300*%
D18*
X51433Y-138184D02*
X72693D01*
X51433D02*
Y-116924D01*
X72693D01*
Y-138184D02*
Y-116924D01*
X113000Y-227500D02*
Y-216500D01*
Y-227500D02*
X147000D01*
Y-216500D01*
X113000D02*
X147000D01*
X72031Y-161500D02*
X75968D01*
X74000Y-163468D02*
Y-159531D01*
X87583Y-177248D02*
Y-145752D01*
X60417Y-177248D02*
Y-145752D01*
X87583D01*
X60417Y-177248D02*
X87583D01*
X72551Y-193368D02*
X76488D01*
X74520Y-195336D02*
Y-191399D01*
X88102Y-209116D02*
Y-177620D01*
X60937Y-209116D02*
Y-177620D01*
X88102D01*
X60937Y-209116D02*
X88102D01*
X-38245Y-101800D02*
X-16246D01*
Y-71800D01*
X-38245D02*
X-16246D01*
X-38245Y-101800D02*
Y-71800D01*
D102*
X9737Y-91646D02*
X38021Y-63362D01*
Y-119931D02*
X66306Y-91646D01*
X38021Y-63362D02*
X66306Y-91646D01*
X9737D02*
X38021Y-119931D01*
X-11000Y-198864D02*
Y-136864D01*
Y-198864D02*
X41000D01*
Y-136864D01*
X-11000D02*
X41000D01*
D103*
X127059Y-173000D02*
G03*
X127059Y-173000I-500J0D01*
G01*
X116000Y-173000D02*
G03*
X116000Y-173000I-500J0D01*
G01*
X99329Y-84172D02*
G03*
X99329Y-84172I-500J0D01*
G01*
Y-78172D02*
G03*
X99329Y-78172I-500J0D01*
G01*
X122500Y-81500D02*
G03*
X122500Y-81500I-500J0D01*
G01*
X136500D02*
G03*
X136500Y-81500I-500J0D01*
G01*
X84500Y-111424D02*
G03*
X84500Y-111424I-500J0D01*
G01*
X70000Y-56000D02*
G03*
X70000Y-56000I-500J0D01*
G01*
X90100Y-123806D02*
G03*
X90100Y-123806I-500J0D01*
G01*
X145328Y-157305D02*
G03*
X145328Y-157305I-500J0D01*
G01*
X65807Y-114500D02*
G03*
X65807Y-114500I-500J0D01*
G01*
X49734Y-148500D02*
G03*
X49734Y-148500I-500J0D01*
G01*
X41500Y-120229D02*
G03*
X41500Y-120229I-500J0D01*
G01*
X-54925Y-121731D02*
G03*
X-54925Y-121731I-500J0D01*
G01*
X-10125Y-100300D02*
G03*
X-10125Y-100300I-500J0D01*
G01*
X5691Y-65309D02*
G03*
X5691Y-65309I-500J0D01*
G01*
X13690Y-57310D02*
G03*
X13690Y-57310I-500J0D01*
G01*
X28500Y-57200D02*
G03*
X28500Y-57200I-500J0D01*
G01*
X51691Y-68809D02*
G03*
X51691Y-68809I-500J0D01*
G01*
X22000Y-111941D02*
G03*
X22000Y-111941I-500J0D01*
G01*
X5500Y-77465D02*
G03*
X5500Y-77465I-500J0D01*
G01*
X49500Y-62353D02*
G03*
X49500Y-62353I-500J0D01*
G01*
X66309Y-103894D02*
G03*
X66309Y-103894I-500J0D01*
G01*
X26090Y-119309D02*
G03*
X26090Y-119309I-500J0D01*
G01*
X92059Y-105424D02*
G03*
X92059Y-105424I-500J0D01*
G01*
X126500Y-105000D02*
G03*
X126500Y-105000I-500J0D01*
G01*
X142000D02*
G03*
X142000Y-105000I-500J0D01*
G01*
X93500Y-59864D02*
G03*
X93500Y-59864I-500J0D01*
G01*
X117500Y-62423D02*
G03*
X117500Y-62423I-500J0D01*
G01*
X121000Y-72924D02*
G03*
X121000Y-72924I-500J0D01*
G01*
X123500Y-62424D02*
G03*
X123500Y-62424I-500J0D01*
G01*
X99387Y-154730D02*
G03*
X99387Y-154730I-500J0D01*
G01*
Y-148730D02*
G03*
X99387Y-148730I-500J0D01*
G01*
Y-136730D02*
G03*
X99387Y-136730I-500J0D01*
G01*
Y-142730D02*
G03*
X99387Y-142730I-500J0D01*
G01*
X99328Y-123805D02*
G03*
X99328Y-123805I-500J0D01*
G01*
X57063Y-141479D02*
G03*
X57063Y-141479I-500J0D01*
G01*
X48500Y-127366D02*
G03*
X48500Y-127366I-500J0D01*
G01*
X48499Y-138558D02*
G03*
X48499Y-138558I-500J0D01*
G01*
X76563Y-121920D02*
G03*
X76563Y-121920I-500J0D01*
G01*
X76563Y-132979D02*
G03*
X76563Y-132979I-500J0D01*
G01*
X68004Y-141479D02*
G03*
X68004Y-141479I-500J0D01*
G01*
X43618Y-157000D02*
G03*
X43618Y-157000I-500J0D01*
G01*
X101520Y-180000D02*
G03*
X101520Y-180000I-500J0D01*
G01*
X48527Y-161559D02*
G03*
X48527Y-161559I-500J0D01*
G01*
X44519Y-188714D02*
G03*
X44519Y-188714I-500J0D01*
G01*
X101020Y-201868D02*
G03*
X101020Y-201868I-500J0D01*
G01*
X49020Y-192943D02*
G03*
X49020Y-192943I-500J0D01*
G01*
X-45625Y-89922D02*
G03*
X-45625Y-89922I-500J0D01*
G01*
X-45566Y-95922D02*
G03*
X-45566Y-95922I-500J0D01*
G01*
X-45625Y-115540D02*
G03*
X-45625Y-115540I-500J0D01*
G01*
X-45626Y-109423D02*
G03*
X-45626Y-109423I-500J0D01*
G01*
X-45625Y-83922D02*
G03*
X-45625Y-83922I-500J0D01*
G01*
Y-77922D02*
G03*
X-45625Y-77922I-500J0D01*
G01*
Y-64422D02*
G03*
X-45625Y-64422I-500J0D01*
G01*
Y-58422D02*
G03*
X-45625Y-58422I-500J0D01*
G01*
X-12125Y-113241D02*
G03*
X-12125Y-113241I-500J0D01*
G01*
X-6125D02*
G03*
X-6125Y-113241I-500J0D01*
G01*
X-5625Y-61301D02*
G03*
X-5625Y-61301I-500J0D01*
G01*
X-11626Y-61300D02*
G03*
X-11626Y-61300I-500J0D01*
G01*
X-59850Y-80981D02*
G03*
X-59850Y-80981I-500J0D01*
G01*
X-60000Y-110436D02*
G03*
X-60000Y-110436I-500J0D01*
G01*
X-59500Y-147500D02*
G03*
X-59500Y-147500I-500J0D01*
G01*
X-59850Y-178500D02*
G03*
X-59850Y-178500I-500J0D01*
G01*
X-53500Y-127000D02*
G03*
X-53500Y-127000I-500J0D01*
G01*
X126559Y-173788D02*
Y-172213D01*
X125771Y-173000D02*
X127346D01*
X115500Y-173787D02*
Y-172213D01*
X114713Y-173000D02*
X116287D01*
X98829Y-84960D02*
Y-83385D01*
X98041Y-84172D02*
X99616D01*
X98829Y-78960D02*
Y-77385D01*
X98041Y-78172D02*
X99616D01*
X122000Y-82287D02*
Y-80713D01*
X121213Y-81500D02*
X122787D01*
X135213D02*
X136787D01*
X136000Y-82287D02*
Y-80713D01*
X83213Y-111424D02*
X84787D01*
X84000Y-112211D02*
Y-110636D01*
X68713Y-56000D02*
X70287D01*
X69500Y-56787D02*
Y-55213D01*
X89600Y-124593D02*
Y-123018D01*
X88812Y-123806D02*
X90387D01*
X144828Y-158093D02*
Y-156518D01*
X144041Y-157305D02*
X145616D01*
X64519Y-114500D02*
X66094D01*
X65307Y-115287D02*
Y-113713D01*
X48447Y-148500D02*
X50022D01*
X49234Y-149288D02*
Y-147713D01*
X41000Y-121016D02*
Y-119441D01*
X40213Y-120229D02*
X41788D01*
X-56212Y-121731D02*
X-54637D01*
X-55425Y-122519D02*
Y-120944D01*
X-11413Y-100300D02*
X-9838D01*
X-10626Y-101087D02*
Y-99513D01*
X4634Y-64752D02*
X5747Y-65866D01*
X4634D02*
X5747Y-64752D01*
X12634Y-57867D02*
X13747Y-56753D01*
X12634D02*
X13747Y-57867D01*
X27443Y-57757D02*
X28557Y-56643D01*
X27443D02*
X28557Y-57757D01*
X50634Y-69366D02*
X51748Y-68253D01*
X50634D02*
X51748Y-69366D01*
X20943Y-112498D02*
X22057Y-111384D01*
X20943D02*
X22057Y-112498D01*
X4443Y-78021D02*
X5557Y-76908D01*
X4443D02*
X5557Y-78021D01*
X48443Y-61796D02*
X49557Y-62910D01*
X48443D02*
X49557Y-61796D01*
X65252Y-104451D02*
X66366Y-103337D01*
X65252D02*
X66366Y-104451D01*
X25034Y-118752D02*
X26147Y-119866D01*
X25034D02*
X26147Y-118752D01*
X91559Y-106212D02*
Y-104637D01*
X90771Y-105424D02*
X92346D01*
X125213Y-105000D02*
X126787D01*
X126000Y-105787D02*
Y-104213D01*
X140713Y-105000D02*
X142287D01*
X141500Y-105787D02*
Y-104213D01*
X92213Y-59864D02*
X93787D01*
X93000Y-60652D02*
Y-59077D01*
X117000Y-63211D02*
Y-61636D01*
X116212Y-62423D02*
X117787D01*
X119713Y-72924D02*
X121287D01*
X120500Y-73711D02*
Y-72136D01*
X123000Y-63211D02*
Y-61637D01*
X122213Y-62424D02*
X123787D01*
X98100Y-154730D02*
X99674D01*
X98887Y-155518D02*
Y-153943D01*
X98100Y-148730D02*
X99674D01*
X98887Y-149518D02*
Y-147943D01*
X98100Y-136730D02*
X99674D01*
X98887Y-137518D02*
Y-135943D01*
X98100Y-142730D02*
X99674D01*
X98887Y-143518D02*
Y-141943D01*
X98828Y-124593D02*
Y-123018D01*
X98041Y-123805D02*
X99616D01*
X56563Y-142266D02*
Y-140692D01*
X55776Y-141479D02*
X57350D01*
X47213Y-127366D02*
X48787D01*
X48000Y-128153D02*
Y-126578D01*
X47212Y-138558D02*
X48787D01*
X47999Y-139346D02*
Y-137771D01*
X76063Y-122708D02*
Y-121133D01*
X75276Y-121920D02*
X76851D01*
X76063Y-133766D02*
Y-132192D01*
X75276Y-132979D02*
X76850D01*
X67504Y-142266D02*
Y-140691D01*
X66717Y-141479D02*
X68292D01*
X43118Y-157787D02*
Y-156213D01*
X42330Y-157000D02*
X43905D01*
X100232Y-180000D02*
X101807D01*
X101020Y-180787D02*
Y-179212D01*
X47240Y-161559D02*
X48815D01*
X48027Y-162346D02*
Y-160771D01*
X44019Y-189502D02*
Y-187927D01*
X43232Y-188714D02*
X44807D01*
X99732Y-201868D02*
X101307D01*
X100520Y-202655D02*
Y-201080D01*
X47732Y-192943D02*
X49307D01*
X48520Y-193730D02*
Y-192156D01*
X-46913Y-89922D02*
X-45338D01*
X-46126Y-90709D02*
Y-89135D01*
X-46854Y-95922D02*
X-45279D01*
X-46066Y-96709D02*
Y-95135D01*
X-46913Y-115540D02*
X-45338D01*
X-46126Y-116328D02*
Y-114753D01*
X-46913Y-109423D02*
X-45339D01*
X-46126Y-110210D02*
Y-108635D01*
X-46913Y-83922D02*
X-45338D01*
X-46126Y-84710D02*
Y-83135D01*
X-46913Y-77922D02*
X-45338D01*
X-46126Y-78710D02*
Y-77135D01*
X-46913Y-64422D02*
X-45338D01*
X-46126Y-65210D02*
Y-63635D01*
X-46913Y-58422D02*
X-45338D01*
X-46126Y-59210D02*
Y-57635D01*
X-13413Y-113241D02*
X-11838D01*
X-12625Y-114029D02*
Y-112454D01*
X-7413Y-113241D02*
X-5838D01*
X-6625Y-114029D02*
Y-112454D01*
X-6913Y-61301D02*
X-5338D01*
X-6125Y-62088D02*
Y-60513D01*
X-12913Y-61300D02*
X-11338D01*
X-12126Y-62087D02*
Y-60513D01*
X-60350Y-81768D02*
Y-80193D01*
X-61138Y-80981D02*
X-59563D01*
X-60500Y-111224D02*
Y-109649D01*
X-61287Y-110436D02*
X-59713D01*
X-60000Y-148287D02*
Y-146713D01*
X-60787Y-147500D02*
X-59213D01*
X-60350Y-179287D02*
Y-177713D01*
X-61138Y-178500D02*
X-59563D01*
X-54000Y-127787D02*
Y-126213D01*
X-54787Y-127000D02*
X-53213D01*
D104*
X129878Y-93000D02*
G03*
X129878Y-93000I-1378J0D01*
G01*
X98207Y-72069D02*
G03*
X98207Y-72069I-1378J0D01*
G01*
Y-90069D02*
G03*
X98207Y-90069I-1378J0D01*
G01*
X63441Y-127554D02*
G03*
X63441Y-127554I-1378J0D01*
G01*
X131378Y-207500D02*
G03*
X131378Y-207500I-1378J0D01*
G01*
X18378Y-67465D02*
G03*
X18378Y-67465I-1378J0D01*
G01*
X39399Y-91646D02*
G03*
X39399Y-91646I-1378J0D01*
G01*
X138878Y-68924D02*
G03*
X138878Y-68924I-1378J0D01*
G01*
Y-60924D02*
G03*
X138878Y-60924I-1378J0D01*
G01*
X98207Y-130204D02*
G03*
X98207Y-130204I-1378J0D01*
G01*
Y-161205D02*
G03*
X98207Y-161205I-1378J0D01*
G01*
X153375Y-136183D02*
G03*
X153375Y-136183I-1378J0D01*
G01*
X148766Y-163612D02*
G03*
X148766Y-163612I-1378J0D01*
G01*
X94398Y-176000D02*
G03*
X94398Y-176000I-1378J0D01*
G01*
X56878Y-165500D02*
G03*
X56878Y-165500I-1378J0D01*
G01*
X57398Y-196868D02*
G03*
X57398Y-196868I-1378J0D01*
G01*
X94398Y-197943D02*
G03*
X94398Y-197943I-1378J0D01*
G01*
X16378Y-167864D02*
G03*
X16378Y-167864I-1378J0D01*
G01*
X-26748Y-67300D02*
G03*
X-26748Y-67300I-1378J0D01*
G01*
X-25497Y-59300D02*
G03*
X-25497Y-59300I-1378J0D01*
G01*
X-26748Y-106422D02*
G03*
X-26748Y-106422I-1378J0D01*
G01*
X-26242Y-114300D02*
G03*
X-26242Y-114300I-1378J0D01*
G01*
X-9188Y-87300D02*
G03*
X-9188Y-87300I-1378J0D01*
G01*
X-25868Y-86800D02*
G03*
X-25868Y-86800I-1378J0D01*
G01*
X128500Y-94968D02*
Y-91031D01*
X126532Y-93000D02*
X130468D01*
X96829Y-74038D02*
Y-70101D01*
X94861Y-72069D02*
X98798D01*
X96829Y-92038D02*
Y-88101D01*
X94861Y-90069D02*
X98798D01*
X62063Y-129522D02*
Y-125585D01*
X60094Y-127554D02*
X64031D01*
X128032Y-207500D02*
X131969D01*
X130000Y-209468D02*
Y-205531D01*
X15608Y-66073D02*
X18392Y-68857D01*
X15608D02*
X18392Y-66073D01*
X36629Y-90254D02*
X39413Y-93038D01*
X36629D02*
X39413Y-90254D01*
X135531Y-68924D02*
X139469D01*
X137500Y-70892D02*
Y-66955D01*
X135531Y-60924D02*
X139469D01*
X137500Y-62892D02*
Y-58955D01*
X94860Y-130204D02*
X98797D01*
X96829Y-132173D02*
Y-128236D01*
X94860Y-161205D02*
X98797D01*
X96829Y-163173D02*
Y-159236D01*
X151998Y-138151D02*
Y-134214D01*
X150029Y-136183D02*
X153966D01*
X147388Y-165580D02*
Y-161644D01*
X145419Y-163612D02*
X149356D01*
X91051Y-176000D02*
X94988D01*
X93020Y-177969D02*
Y-174031D01*
X53531Y-165500D02*
X57468D01*
X55500Y-167468D02*
Y-163531D01*
X54051Y-196868D02*
X57988D01*
X56020Y-198836D02*
Y-194899D01*
X91051Y-197943D02*
X94988D01*
X93020Y-199912D02*
Y-195975D01*
X13032Y-167864D02*
X16969D01*
X15000Y-169832D02*
Y-165895D01*
X-30094Y-67300D02*
X-26157D01*
X-28126Y-69269D02*
Y-65332D01*
X-28844Y-59300D02*
X-24907D01*
X-26875Y-61269D02*
Y-57332D01*
X-30094Y-106422D02*
X-26157D01*
X-28126Y-108391D02*
Y-104454D01*
X-29588Y-114300D02*
X-25651D01*
X-27620Y-116269D02*
Y-112331D01*
X-12535Y-87300D02*
X-8598D01*
X-10566Y-89268D02*
Y-85331D01*
X-29214Y-86800D02*
X-25277D01*
X-27246Y-88769D02*
Y-84832D01*
D105*
X120000Y-183500D02*
X122000D01*
X121000Y-184500D02*
Y-182500D01*
M02*
