G04*
G04 #@! TF.GenerationSoftware,Altium Limited,Altium Designer,18.1.9 (240)*
G04*
G04 Layer_Color=8388736*
%FSLAX25Y25*%
%MOIN*%
G70*
G01*
G75*
%ADD51R,0.03800X0.03800*%
%ADD52R,0.08674X0.06706*%
%ADD53R,0.05800X0.04300*%
G04:AMPARAMS|DCode=54|XSize=58mil|YSize=43mil|CornerRadius=0mil|HoleSize=0mil|Usage=FLASHONLY|Rotation=180.000|XOffset=0mil|YOffset=0mil|HoleType=Round|Shape=Octagon|*
%AMOCTAGOND54*
4,1,8,-0.02900,0.01075,-0.02900,-0.01075,-0.01825,-0.02150,0.01825,-0.02150,0.02900,-0.01075,0.02900,0.01075,0.01825,0.02150,-0.01825,0.02150,-0.02900,0.01075,0.0*
%
%ADD54OCTAGOND54*%

%ADD55R,0.02769X0.02375*%
%ADD56R,0.04737X0.04737*%
%ADD57R,0.01784X0.03950*%
%ADD58O,0.03950X0.01784*%
%ADD59O,0.01784X0.03950*%
%ADD60R,0.02375X0.02769*%
%ADD61R,0.05800X0.07300*%
%ADD62P,0.05374X4X90.0*%
%ADD63P,0.05374X4X180.0*%
G04:AMPARAMS|DCode=64|XSize=102.49mil|YSize=94.61mil|CornerRadius=0mil|HoleSize=0mil|Usage=FLASHONLY|Rotation=315.000|XOffset=0mil|YOffset=0mil|HoleType=Round|Shape=Rectangle|*
%AMROTATEDRECTD64*
4,1,4,-0.06969,0.00278,-0.00278,0.06969,0.06969,-0.00278,0.00278,-0.06969,-0.06969,0.00278,0.0*
%
%ADD64ROTATEDRECTD64*%

G04:AMPARAMS|DCode=65|XSize=17.84mil|YSize=69.02mil|CornerRadius=0mil|HoleSize=0mil|Usage=FLASHONLY|Rotation=45.000|XOffset=0mil|YOffset=0mil|HoleType=Round|Shape=Round|*
%AMOVALD65*
21,1,0.05118,0.01784,0.00000,0.00000,135.0*
1,1,0.01784,0.01810,-0.01810*
1,1,0.01784,-0.01810,0.01810*
%
%ADD65OVALD65*%

G04:AMPARAMS|DCode=66|XSize=17.84mil|YSize=69.02mil|CornerRadius=0mil|HoleSize=0mil|Usage=FLASHONLY|Rotation=315.000|XOffset=0mil|YOffset=0mil|HoleType=Round|Shape=Round|*
%AMOVALD66*
21,1,0.05118,0.01784,0.00000,0.00000,45.0*
1,1,0.01784,-0.01810,-0.01810*
1,1,0.01784,0.01810,0.01810*
%
%ADD66OVALD66*%

%ADD67R,0.03800X0.03800*%
G04:AMPARAMS|DCode=68|XSize=63mil|YSize=58mil|CornerRadius=0mil|HoleSize=0mil|Usage=FLASHONLY|Rotation=0.000|XOffset=0mil|YOffset=0mil|HoleType=Round|Shape=Octagon|*
%AMOCTAGOND68*
4,1,8,0.03150,-0.01450,0.03150,0.01450,0.01700,0.02900,-0.01700,0.02900,-0.03150,0.01450,-0.03150,-0.01450,-0.01700,-0.02900,0.01700,-0.02900,0.03150,-0.01450,0.0*
%
%ADD68OCTAGOND68*%

%ADD69R,0.06300X0.05800*%
%ADD70R,0.07099X0.02178*%
%ADD71O,0.08674X0.02965*%
%ADD72R,0.13398X0.09068*%
%ADD73R,0.04343X0.09068*%
%ADD74R,0.06312X0.05524*%
%ADD75R,0.09068X0.02965*%
%ADD76O,0.09068X0.02965*%
%ADD77O,0.01784X0.05524*%
%ADD78R,0.01784X0.05524*%
%ADD79R,0.04343X0.03359*%
%ADD80R,0.04343X0.02769*%
%ADD81O,0.02559X0.07087*%
%ADD82R,0.07493X0.07493*%
%ADD83C,0.07493*%
%ADD84R,0.07493X0.07493*%
%ADD85R,0.05524X0.12611*%
%ADD86C,0.06706*%
%ADD87R,0.08674X0.06706*%
%ADD88R,0.04737X0.03950*%
G36*
X66000Y-131491D02*
X58126D01*
Y-123617D01*
X62841Y-123617D01*
X66000Y-126776D01*
X66000Y-131491D01*
D02*
G37*
D51*
X129118Y-173000D02*
D03*
X124000D02*
D03*
X118059Y-173000D02*
D03*
X112941D02*
D03*
X96269Y-84173D02*
D03*
X101387D02*
D03*
X96269Y-78173D02*
D03*
X101387D02*
D03*
X124559Y-81500D02*
D03*
X119441D02*
D03*
X133441D02*
D03*
X138559D02*
D03*
X147388Y-157305D02*
D03*
X142270D02*
D03*
X94118Y-105424D02*
D03*
X89000D02*
D03*
X123441Y-105000D02*
D03*
X128559D02*
D03*
X138941D02*
D03*
X144059D02*
D03*
X95559Y-59865D02*
D03*
X90441D02*
D03*
X117941Y-72924D02*
D03*
X123059D02*
D03*
X96328Y-154730D02*
D03*
X101446D02*
D03*
X96328Y-148730D02*
D03*
X101446D02*
D03*
X96328Y-136730D02*
D03*
X101446D02*
D03*
X96328Y-142730D02*
D03*
X101446D02*
D03*
X96269Y-123806D02*
D03*
X101387D02*
D03*
X59122Y-141479D02*
D03*
X54004D02*
D03*
X64945Y-141479D02*
D03*
X70063D02*
D03*
X-43567Y-89922D02*
D03*
X-48685D02*
D03*
X-43507Y-95922D02*
D03*
X-48625D02*
D03*
X-43567Y-115540D02*
D03*
X-48685D02*
D03*
Y-109422D02*
D03*
X-43567D02*
D03*
X-48684Y-83922D02*
D03*
X-43566D02*
D03*
X-48684Y-77922D02*
D03*
X-43566D02*
D03*
X-43567Y-64423D02*
D03*
X-48685D02*
D03*
X-48684Y-58422D02*
D03*
X-43566D02*
D03*
X-56559Y-127000D02*
D03*
X-51441D02*
D03*
D52*
X144000Y-93000D02*
D03*
X112769Y-93079D02*
D03*
D53*
X100329Y-72095D02*
D03*
Y-90095D02*
D03*
X100328Y-130230D02*
D03*
Y-161230D02*
D03*
X150887Y-163638D02*
D03*
D54*
X93329Y-72095D02*
D03*
Y-90095D02*
D03*
X93328Y-130230D02*
D03*
Y-161230D02*
D03*
X143887Y-163638D02*
D03*
D55*
X84000Y-109849D02*
D03*
Y-113195D02*
D03*
X69500Y-54425D02*
D03*
Y-57771D02*
D03*
X41000Y-122000D02*
D03*
Y-118654D02*
D03*
X43118Y-155229D02*
D03*
Y-158575D02*
D03*
X44020Y-186943D02*
D03*
Y-190289D02*
D03*
D56*
X62063Y-127554D02*
D03*
D57*
X66984Y-119680D02*
D03*
D58*
X54189Y-130507D02*
D03*
Y-128538D02*
D03*
Y-126570D02*
D03*
Y-124601D02*
D03*
X69937Y-122633D02*
D03*
Y-124601D02*
D03*
Y-128538D02*
D03*
Y-130507D02*
D03*
D59*
X66984Y-135428D02*
D03*
X65016D02*
D03*
X63047D02*
D03*
X61079D02*
D03*
X59110D02*
D03*
X57142D02*
D03*
D60*
X91175Y-123805D02*
D03*
X87828D02*
D03*
X67078Y-114500D02*
D03*
X63732D02*
D03*
X47463Y-148500D02*
D03*
X50810D02*
D03*
X-53654Y-121731D02*
D03*
X-57000D02*
D03*
X-12397Y-100300D02*
D03*
X-9050D02*
D03*
D61*
X127750Y-183500D02*
D03*
X114250D02*
D03*
D62*
X3381Y-67119D02*
D03*
X7000Y-63500D02*
D03*
X11381Y-59119D02*
D03*
X15000Y-55500D02*
D03*
X50810Y-60543D02*
D03*
X47190Y-64162D02*
D03*
X23781Y-121119D02*
D03*
X27400Y-117500D02*
D03*
D63*
X29810Y-59009D02*
D03*
X26191Y-55391D02*
D03*
X3190Y-75655D02*
D03*
X6809Y-79274D02*
D03*
X67619Y-105704D02*
D03*
X64000Y-102085D02*
D03*
D64*
X12128Y-72336D02*
D03*
X21872Y-62593D02*
D03*
D65*
X34543Y-72856D02*
D03*
X33151Y-74248D02*
D03*
X31759Y-75640D02*
D03*
X30367Y-77032D02*
D03*
X28975Y-78424D02*
D03*
X27583Y-79816D02*
D03*
X26191Y-81208D02*
D03*
X24799Y-82600D02*
D03*
X23407Y-83992D02*
D03*
X22015Y-85384D02*
D03*
X20623Y-86775D02*
D03*
X19231Y-88168D02*
D03*
X44284Y-107652D02*
D03*
X45676Y-106261D02*
D03*
X47068Y-104869D02*
D03*
X48460Y-103477D02*
D03*
X49852Y-102085D02*
D03*
X51244Y-100693D02*
D03*
X52636Y-99301D02*
D03*
X54027Y-97909D02*
D03*
X55419Y-96517D02*
D03*
X56811Y-95125D02*
D03*
D66*
X19231D02*
D03*
X20623Y-96517D02*
D03*
X22015Y-97909D02*
D03*
X23407Y-99301D02*
D03*
X24799Y-100693D02*
D03*
X26191Y-102085D02*
D03*
X27583Y-103477D02*
D03*
X28975Y-104869D02*
D03*
X30367Y-106261D02*
D03*
X31759Y-107652D02*
D03*
X33151Y-109044D02*
D03*
X34543Y-110436D02*
D03*
X56811Y-88168D02*
D03*
X55419Y-86775D02*
D03*
X54027Y-85384D02*
D03*
X52636Y-83992D02*
D03*
X51244Y-82600D02*
D03*
X49852Y-81208D02*
D03*
X48460Y-79816D02*
D03*
X47068Y-78424D02*
D03*
X45676Y-77032D02*
D03*
X44284Y-75640D02*
D03*
X42892Y-74248D02*
D03*
X41500Y-72856D02*
D03*
D67*
X117000Y-59864D02*
D03*
Y-64983D02*
D03*
X123000D02*
D03*
Y-59864D02*
D03*
X48000Y-124806D02*
D03*
Y-129924D02*
D03*
Y-141118D02*
D03*
Y-136000D02*
D03*
X76063Y-124479D02*
D03*
Y-119361D02*
D03*
X76063Y-130420D02*
D03*
Y-135538D02*
D03*
X101019Y-177440D02*
D03*
Y-182558D02*
D03*
X48028Y-164118D02*
D03*
Y-159000D02*
D03*
X100519Y-199309D02*
D03*
Y-204427D02*
D03*
X48520Y-195502D02*
D03*
Y-190384D02*
D03*
X-12626Y-110682D02*
D03*
Y-115800D02*
D03*
X-6626Y-110682D02*
D03*
Y-115800D02*
D03*
X-6126Y-58741D02*
D03*
Y-63859D02*
D03*
X-12125D02*
D03*
Y-58741D02*
D03*
D68*
X144250Y-68924D02*
D03*
Y-60924D02*
D03*
X-34876Y-67300D02*
D03*
X-20125Y-59300D02*
D03*
X-34876Y-106422D02*
D03*
X-20870Y-114300D02*
D03*
D69*
X130750Y-68924D02*
D03*
Y-60924D02*
D03*
X-21375Y-67300D02*
D03*
X-33626Y-59300D02*
D03*
X-21375Y-106422D02*
D03*
X-34370Y-114300D02*
D03*
D70*
X140580Y-133624D02*
D03*
Y-131065D02*
D03*
Y-141301D02*
D03*
Y-136183D02*
D03*
Y-138742D02*
D03*
D71*
X110828Y-125805D02*
D03*
Y-130805D02*
D03*
Y-135805D02*
D03*
Y-140805D02*
D03*
Y-145805D02*
D03*
Y-150805D02*
D03*
Y-155805D02*
D03*
Y-160805D02*
D03*
X131928Y-125805D02*
D03*
Y-145805D02*
D03*
Y-150805D02*
D03*
Y-155805D02*
D03*
Y-160805D02*
D03*
D72*
X74000Y-150279D02*
D03*
X74520Y-182148D02*
D03*
D73*
X83055Y-172720D02*
D03*
X74000D02*
D03*
X64945D02*
D03*
X83575Y-204588D02*
D03*
X74520D02*
D03*
X65465D02*
D03*
D74*
X93020Y-182693D02*
D03*
Y-169307D02*
D03*
X55500Y-158807D02*
D03*
Y-172193D02*
D03*
X56020Y-190175D02*
D03*
Y-203561D02*
D03*
X93020Y-204636D02*
D03*
Y-191250D02*
D03*
X-10566Y-93993D02*
D03*
Y-80607D02*
D03*
D75*
X-4882Y-140364D02*
D03*
D76*
Y-145364D02*
D03*
Y-150364D02*
D03*
Y-155364D02*
D03*
Y-160364D02*
D03*
Y-165364D02*
D03*
Y-170364D02*
D03*
Y-175364D02*
D03*
Y-180364D02*
D03*
Y-185364D02*
D03*
X34882Y-160364D02*
D03*
Y-165364D02*
D03*
Y-170364D02*
D03*
Y-175364D02*
D03*
Y-180364D02*
D03*
Y-190364D02*
D03*
Y-195364D02*
D03*
X-4882D02*
D03*
Y-190364D02*
D03*
X34882Y-140364D02*
D03*
Y-145364D02*
D03*
Y-150364D02*
D03*
Y-155364D02*
D03*
D77*
X-34923Y-75186D02*
D03*
X-32364D02*
D03*
X-29805D02*
D03*
X-27246D02*
D03*
X-24686D02*
D03*
X-22127D02*
D03*
X-19568D02*
D03*
Y-98414D02*
D03*
X-22127D02*
D03*
X-24686D02*
D03*
X-27246D02*
D03*
X-29805D02*
D03*
X-32364D02*
D03*
D78*
X-34923D02*
D03*
D79*
X-63500Y-86020D02*
D03*
Y-75941D02*
D03*
X-57201D02*
D03*
Y-86020D02*
D03*
X-57350Y-105397D02*
D03*
Y-115476D02*
D03*
X-63650D02*
D03*
Y-105397D02*
D03*
X-56850Y-142461D02*
D03*
Y-152539D02*
D03*
X-63150D02*
D03*
Y-142461D02*
D03*
X-57201Y-173461D02*
D03*
Y-183539D02*
D03*
X-63500D02*
D03*
Y-173461D02*
D03*
D80*
X-63500Y-82556D02*
D03*
Y-79406D02*
D03*
X-57201D02*
D03*
Y-82556D02*
D03*
X-57350Y-108861D02*
D03*
Y-112011D02*
D03*
X-63650D02*
D03*
Y-108861D02*
D03*
X-56850Y-145925D02*
D03*
Y-149075D02*
D03*
X-63150D02*
D03*
Y-145925D02*
D03*
X-57201Y-176925D02*
D03*
Y-180075D02*
D03*
X-63500D02*
D03*
Y-176925D02*
D03*
D81*
X-23500Y-135664D02*
D03*
X-28500D02*
D03*
X-33500D02*
D03*
X-38500D02*
D03*
X-43500D02*
D03*
X-48500D02*
D03*
X-18500D02*
D03*
X-18500Y-157864D02*
D03*
X-23500D02*
D03*
X-28500D02*
D03*
X-33500D02*
D03*
X-38500D02*
D03*
X-43500D02*
D03*
X-48500D02*
D03*
X-23390Y-174664D02*
D03*
X-28390D02*
D03*
X-33390D02*
D03*
X-38390D02*
D03*
X-43390D02*
D03*
X-48390D02*
D03*
X-18390D02*
D03*
X-18390Y-196864D02*
D03*
X-23390D02*
D03*
X-28390D02*
D03*
X-33390D02*
D03*
X-38390D02*
D03*
X-43390D02*
D03*
X-48390D02*
D03*
D82*
X77000Y-107465D02*
D03*
X154000Y-186000D02*
D03*
X-74500Y-204000D02*
D03*
D83*
X77000Y-97465D02*
D03*
Y-87465D02*
D03*
Y-77465D02*
D03*
Y-67465D02*
D03*
Y-57465D02*
D03*
Y-47465D02*
D03*
X66000Y-47500D02*
D03*
X56000D02*
D03*
X46000D02*
D03*
X154000Y-176000D02*
D03*
X-74500Y-74000D02*
D03*
Y-94000D02*
D03*
Y-134000D02*
D03*
Y-144000D02*
D03*
Y-164000D02*
D03*
Y-194000D02*
D03*
Y-184000D02*
D03*
Y-174000D02*
D03*
Y-154000D02*
D03*
Y-124000D02*
D03*
Y-114000D02*
D03*
Y-104000D02*
D03*
Y-84000D02*
D03*
Y-64000D02*
D03*
Y-54000D02*
D03*
D84*
X36000Y-47500D02*
D03*
D85*
X146142Y-207500D02*
D03*
X113859D02*
D03*
D86*
X130000Y-207500D02*
D03*
X122126Y-207500D02*
D03*
D87*
X151998Y-150454D02*
D03*
Y-121911D02*
D03*
D88*
X141328Y-126636D02*
D03*
Y-145730D02*
D03*
M02*
