G04*
G04 #@! TF.GenerationSoftware,Altium Limited,Altium Designer,18.1.9 (240)*
G04*
G04 Layer_Color=16711935*
%FSLAX25Y25*%
%MOIN*%
G70*
G01*
G75*
%ADD18C,0.00394*%
%ADD102C,0.00591*%
D18*
X67968Y-121648D02*
G03*
X67968Y-121648I-787J0D01*
G01*
X69937Y-135428D02*
Y-119680D01*
X54189D02*
X69937D01*
X54189Y-135428D02*
X69937D01*
X54189D02*
Y-119680D01*
X87189Y-168783D02*
Y-154216D01*
X60811Y-168783D02*
Y-154216D01*
X87189D01*
X60811Y-168783D02*
X87189D01*
X87709Y-200651D02*
Y-186084D01*
X61331Y-200651D02*
Y-186084D01*
X87709D01*
X61331Y-200651D02*
X87709D01*
X-37088Y-95855D02*
X-17403D01*
Y-77745D01*
X-37088D02*
X-17403D01*
X-37088Y-95855D02*
Y-77745D01*
D102*
X39990Y-77170D02*
G03*
X39990Y-77170I-1969J0D01*
G01*
X6236Y-141864D02*
G03*
X6236Y-141864I-2236J0D01*
G01*
X18534Y-91646D02*
X38021Y-72159D01*
Y-111133D02*
X57508Y-91646D01*
X38021Y-72159D02*
X57508Y-91646D01*
X18534D02*
X38021Y-111133D01*
X-158Y-137549D02*
X30158D01*
Y-198179D02*
Y-137549D01*
X-158Y-198179D02*
X30158D01*
X-158D02*
Y-137549D01*
M02*
