G04*
G04 #@! TF.GenerationSoftware,Altium Limited,Altium Designer,18.1.9 (240)*
G04*
G04 Layer_Color=255*
%FSLAX25Y25*%
%MOIN*%
G70*
G01*
G75*
%ADD31P,0.04243X4X90.0*%
%ADD90R,0.06693X0.06693*%
%ADD91C,0.06693*%
%ADD92R,0.06693X0.06693*%
%ADD93R,0.04724X0.11811*%
%ADD94C,0.05906*%
%ADD95R,0.07874X0.05906*%
%ADD96R,0.03937X0.03150*%
%ADD98R,0.12598X0.12598*%
%ADD99R,0.04331X0.09843*%
D31*
X53000Y-67000D02*
D03*
X49381Y-70619D02*
D03*
X19691Y-113751D02*
D03*
X23310Y-110132D02*
D03*
D90*
X77000Y-107465D02*
D03*
X154000Y-186000D02*
D03*
X-74500Y-204000D02*
D03*
D91*
X77000Y-97465D02*
D03*
Y-87465D02*
D03*
Y-77465D02*
D03*
Y-67465D02*
D03*
Y-57465D02*
D03*
Y-47465D02*
D03*
X66000Y-47500D02*
D03*
X56000D02*
D03*
X46000D02*
D03*
X154000Y-176000D02*
D03*
X-74500Y-74000D02*
D03*
Y-94000D02*
D03*
Y-134000D02*
D03*
Y-144000D02*
D03*
Y-164000D02*
D03*
Y-194000D02*
D03*
Y-184000D02*
D03*
Y-174000D02*
D03*
Y-154000D02*
D03*
Y-124000D02*
D03*
Y-114000D02*
D03*
Y-104000D02*
D03*
Y-84000D02*
D03*
Y-64000D02*
D03*
Y-54000D02*
D03*
D92*
X36000Y-47500D02*
D03*
D93*
X146142Y-207500D02*
D03*
X113859D02*
D03*
D94*
X130000Y-207500D02*
D03*
X122126Y-207500D02*
D03*
D95*
X151998Y-150454D02*
D03*
Y-121911D02*
D03*
D96*
X141328Y-126636D02*
D03*
Y-145730D02*
D03*
D98*
X125748Y-81632D02*
D03*
D99*
X89132Y-50922D02*
D03*
X97006Y-50924D02*
D03*
X104880Y-50920D02*
D03*
X112754Y-50923D02*
D03*
X120628Y-50920D02*
D03*
X128502Y-50916D02*
D03*
X136376Y-50922D02*
D03*
X144250Y-50924D02*
D03*
X89132Y-113920D02*
D03*
X97006Y-113924D02*
D03*
X104880Y-113921D02*
D03*
X120628Y-113921D02*
D03*
X128502Y-113917D02*
D03*
X136376Y-113921D02*
D03*
X144250Y-113924D02*
D03*
M02*
