G04*
G04 #@! TF.GenerationSoftware,Altium Limited,Altium Designer,18.1.9 (240)*
G04*
G04 Layer_Physical_Order=2*
G04 Layer_Color=16711680*
%FSLAX25Y25*%
%MOIN*%
G70*
G01*
G75*
%ADD11C,0.01000*%
%ADD13C,0.02000*%
%ADD31P,0.04243X4X90.0*%
%ADD89C,0.03000*%
%ADD90R,0.06693X0.06693*%
%ADD91C,0.06693*%
%ADD92R,0.06693X0.06693*%
%ADD93R,0.04724X0.11811*%
%ADD94C,0.05906*%
%ADD95R,0.07874X0.05906*%
%ADD96R,0.03937X0.03150*%
%ADD97C,0.01600*%
%ADD98R,0.12598X0.12598*%
%ADD99R,0.04331X0.09843*%
G36*
X159878Y-49965D02*
Y-207035D01*
X150535Y-216378D01*
X-78035D01*
X-79628Y-214785D01*
Y-88111D01*
X-79167Y-87920D01*
X-77293Y-89793D01*
X-77293Y-89793D01*
X-76929Y-90036D01*
X-76673Y-90087D01*
X-76578Y-90330D01*
X-76557Y-90604D01*
X-77315Y-91185D01*
X-77947Y-92010D01*
X-78345Y-92970D01*
X-78480Y-94000D01*
X-78345Y-95030D01*
X-77947Y-95990D01*
X-77315Y-96815D01*
X-76490Y-97447D01*
X-75530Y-97845D01*
X-74500Y-97980D01*
X-73470Y-97845D01*
X-72601Y-97485D01*
X-67022Y-103065D01*
Y-111239D01*
X-67484Y-111430D01*
X-71711Y-107203D01*
X-71685Y-106815D01*
X-71053Y-105990D01*
X-70655Y-105030D01*
X-70520Y-104000D01*
X-70655Y-102970D01*
X-71053Y-102010D01*
X-71685Y-101185D01*
X-72510Y-100553D01*
X-73470Y-100155D01*
X-74500Y-100020D01*
X-75530Y-100155D01*
X-76490Y-100553D01*
X-77315Y-101185D01*
X-77947Y-102010D01*
X-78345Y-102970D01*
X-78480Y-104000D01*
X-78345Y-105030D01*
X-77947Y-105990D01*
X-77315Y-106815D01*
X-76490Y-107447D01*
X-75530Y-107845D01*
X-74500Y-107981D01*
X-74151Y-107935D01*
X-68622Y-113465D01*
Y-117639D01*
X-69083Y-117830D01*
X-71015Y-115899D01*
X-70655Y-115030D01*
X-70520Y-114000D01*
X-70655Y-112970D01*
X-71053Y-112010D01*
X-71685Y-111185D01*
X-72510Y-110553D01*
X-73470Y-110155D01*
X-74500Y-110020D01*
X-75530Y-110155D01*
X-76490Y-110553D01*
X-77315Y-111185D01*
X-77947Y-112010D01*
X-78345Y-112970D01*
X-78480Y-114000D01*
X-78345Y-115030D01*
X-77947Y-115990D01*
X-77315Y-116815D01*
X-76490Y-117447D01*
X-75530Y-117845D01*
X-74500Y-117981D01*
X-73470Y-117845D01*
X-72601Y-117485D01*
X-70384Y-119702D01*
Y-122317D01*
X-70884Y-122416D01*
X-71053Y-122010D01*
X-71685Y-121185D01*
X-72510Y-120553D01*
X-73470Y-120155D01*
X-74500Y-120019D01*
X-75530Y-120155D01*
X-76490Y-120553D01*
X-77315Y-121185D01*
X-77947Y-122010D01*
X-78345Y-122970D01*
X-78480Y-124000D01*
X-78345Y-125030D01*
X-77947Y-125990D01*
X-77315Y-126815D01*
X-76490Y-127447D01*
X-75530Y-127845D01*
X-74500Y-127980D01*
X-73470Y-127845D01*
X-72601Y-127485D01*
X-51770Y-148317D01*
X-51961Y-148778D01*
X-58135D01*
X-71015Y-135899D01*
X-70655Y-135030D01*
X-70520Y-134000D01*
X-70655Y-132970D01*
X-71053Y-132010D01*
X-71685Y-131185D01*
X-72510Y-130553D01*
X-73470Y-130155D01*
X-74500Y-130019D01*
X-75530Y-130155D01*
X-76490Y-130553D01*
X-77315Y-131185D01*
X-77947Y-132010D01*
X-78345Y-132970D01*
X-78480Y-134000D01*
X-78345Y-135030D01*
X-77947Y-135990D01*
X-77315Y-136815D01*
X-76490Y-137447D01*
X-75530Y-137845D01*
X-74500Y-137980D01*
X-73470Y-137845D01*
X-72601Y-137485D01*
X-60170Y-149917D01*
X-60361Y-150378D01*
X-66535D01*
X-71015Y-145899D01*
X-70655Y-145030D01*
X-70520Y-144000D01*
X-70655Y-142970D01*
X-71053Y-142010D01*
X-71685Y-141185D01*
X-72510Y-140553D01*
X-73470Y-140155D01*
X-74500Y-140020D01*
X-75530Y-140155D01*
X-76490Y-140553D01*
X-77315Y-141185D01*
X-77947Y-142010D01*
X-78345Y-142970D01*
X-78480Y-144000D01*
X-78345Y-145030D01*
X-77947Y-145990D01*
X-77315Y-146815D01*
X-76490Y-147447D01*
X-75530Y-147845D01*
X-74500Y-147980D01*
X-73470Y-147845D01*
X-72601Y-147485D01*
X-67793Y-152293D01*
X-67793Y-152293D01*
X-67429Y-152536D01*
X-67000Y-152622D01*
X-45353D01*
X-44888Y-153087D01*
X-44819Y-153435D01*
X-44509Y-153898D01*
X-44046Y-154208D01*
X-43500Y-154316D01*
X-42954Y-154208D01*
X-42491Y-153898D01*
X-42181Y-153435D01*
X-42072Y-152889D01*
X-42181Y-152343D01*
X-42491Y-151880D01*
X-42954Y-151570D01*
X-43057Y-151549D01*
X-43062Y-151522D01*
X-42632Y-151022D01*
X-36953D01*
X-34888Y-153087D01*
X-34819Y-153435D01*
X-34509Y-153898D01*
X-34046Y-154208D01*
X-33500Y-154316D01*
X-32954Y-154208D01*
X-32491Y-153898D01*
X-32181Y-153435D01*
X-32073Y-152889D01*
X-32181Y-152343D01*
X-32491Y-151880D01*
X-32954Y-151570D01*
X-33302Y-151501D01*
X-34919Y-149883D01*
X-34728Y-149422D01*
X-28554D01*
X-24888Y-153087D01*
X-24819Y-153435D01*
X-24509Y-153898D01*
X-24046Y-154208D01*
X-23500Y-154316D01*
X-22954Y-154208D01*
X-22491Y-153898D01*
X-22181Y-153435D01*
X-22073Y-152889D01*
X-22181Y-152343D01*
X-22491Y-151880D01*
X-22954Y-151570D01*
X-23302Y-151501D01*
X-26719Y-148083D01*
X-26528Y-147622D01*
X-24362D01*
X-24362Y-147622D01*
X-23932Y-147536D01*
X-23569Y-147293D01*
X-18302Y-142026D01*
X-17954Y-141957D01*
X-17491Y-141648D01*
X-17181Y-141185D01*
X-17073Y-140638D01*
X-17181Y-140092D01*
X-17491Y-139629D01*
X-17954Y-139320D01*
X-18500Y-139211D01*
X-19046Y-139320D01*
X-19509Y-139629D01*
X-19819Y-140092D01*
X-19888Y-140440D01*
X-24826Y-145378D01*
X-31001D01*
X-31192Y-144916D01*
X-28302Y-142026D01*
X-27954Y-141957D01*
X-27491Y-141648D01*
X-27181Y-141185D01*
X-27073Y-140638D01*
X-27181Y-140092D01*
X-27491Y-139629D01*
X-27954Y-139320D01*
X-28500Y-139211D01*
X-29046Y-139320D01*
X-29509Y-139629D01*
X-29819Y-140092D01*
X-29888Y-140440D01*
X-33226Y-143778D01*
X-39401D01*
X-39592Y-143316D01*
X-38302Y-142026D01*
X-37954Y-141957D01*
X-37491Y-141648D01*
X-37181Y-141185D01*
X-37073Y-140638D01*
X-37181Y-140092D01*
X-37491Y-139629D01*
X-37954Y-139320D01*
X-38500Y-139211D01*
X-39046Y-139320D01*
X-39509Y-139629D01*
X-39819Y-140092D01*
X-39888Y-140440D01*
X-41626Y-142178D01*
X-47947D01*
X-64778Y-125347D01*
Y-102600D01*
X-64778Y-102600D01*
X-64864Y-102171D01*
X-65107Y-101807D01*
X-65107Y-101807D01*
X-71015Y-95899D01*
X-70655Y-95030D01*
X-70520Y-94000D01*
X-70655Y-92970D01*
X-71053Y-92010D01*
X-71685Y-91185D01*
X-72420Y-90622D01*
X-72358Y-90257D01*
X-72288Y-90122D01*
X-69465D01*
X-54793Y-104793D01*
X-54793Y-104793D01*
X-54429Y-105036D01*
X-54000Y-105122D01*
X-47341D01*
X-47046Y-105319D01*
X-46500Y-105427D01*
X-45954Y-105319D01*
X-45491Y-105009D01*
X-45181Y-104546D01*
X-45073Y-104000D01*
X-45181Y-103454D01*
X-45491Y-102991D01*
X-45954Y-102681D01*
X-46500Y-102573D01*
X-46589Y-102084D01*
X-46573Y-102000D01*
X-46681Y-101454D01*
X-46991Y-100991D01*
X-47454Y-100681D01*
X-48000Y-100573D01*
X-48546Y-100681D01*
X-48841Y-100878D01*
X-53035D01*
X-70611Y-83303D01*
X-70655Y-82970D01*
X-71053Y-82010D01*
X-71685Y-81185D01*
X-72510Y-80553D01*
X-73470Y-80155D01*
X-74500Y-80019D01*
X-75530Y-80155D01*
X-76490Y-80553D01*
X-77315Y-81185D01*
X-77351Y-81233D01*
X-77825Y-81073D01*
Y-78911D01*
X-76399Y-77485D01*
X-75530Y-77845D01*
X-74500Y-77981D01*
X-73470Y-77845D01*
X-72510Y-77447D01*
X-71685Y-76815D01*
X-71053Y-75990D01*
X-70655Y-75030D01*
X-70520Y-74000D01*
X-70655Y-72970D01*
X-71053Y-72010D01*
X-71685Y-71185D01*
X-72510Y-70553D01*
X-73470Y-70155D01*
X-74500Y-70020D01*
X-75530Y-70155D01*
X-76490Y-70553D01*
X-77315Y-71185D01*
X-77947Y-72010D01*
X-78345Y-72970D01*
X-78480Y-74000D01*
X-78345Y-75030D01*
X-77985Y-75899D01*
X-79167Y-77080D01*
X-79628Y-76889D01*
Y-61111D01*
X-79167Y-60920D01*
X-77985Y-62101D01*
X-78345Y-62970D01*
X-78480Y-64000D01*
X-78345Y-65030D01*
X-77947Y-65990D01*
X-77315Y-66815D01*
X-76490Y-67447D01*
X-75530Y-67845D01*
X-74500Y-67980D01*
X-73470Y-67845D01*
X-72510Y-67447D01*
X-71685Y-66815D01*
X-71053Y-65990D01*
X-70655Y-65030D01*
X-70520Y-64000D01*
X-70655Y-62970D01*
X-71053Y-62010D01*
X-71685Y-61185D01*
X-72510Y-60553D01*
X-73470Y-60155D01*
X-74500Y-60019D01*
X-75530Y-60155D01*
X-76399Y-60515D01*
X-77825Y-59089D01*
Y-56927D01*
X-77351Y-56767D01*
X-77315Y-56815D01*
X-76490Y-57447D01*
X-75530Y-57845D01*
X-74500Y-57981D01*
X-73470Y-57845D01*
X-72510Y-57447D01*
X-71685Y-56815D01*
X-71053Y-55990D01*
X-70693Y-55122D01*
X-65965D01*
X-48888Y-72198D01*
X-48819Y-72546D01*
X-48509Y-73009D01*
X-48046Y-73319D01*
X-47500Y-73427D01*
X-46954Y-73319D01*
X-46491Y-73009D01*
X-46181Y-72546D01*
X-46073Y-72000D01*
X-46101Y-71858D01*
X-45954Y-71319D01*
X-45491Y-71009D01*
X-45181Y-70546D01*
X-45073Y-70000D01*
X-45181Y-69454D01*
X-45491Y-68991D01*
X-45954Y-68681D01*
X-46302Y-68612D01*
X-66707Y-48207D01*
X-67071Y-47964D01*
X-67500Y-47878D01*
X-67500Y-47878D01*
X-76000D01*
X-76429Y-47964D01*
X-76793Y-48207D01*
X-76793Y-48207D01*
X-79167Y-50580D01*
X-79628Y-50389D01*
Y-43715D01*
X-77035Y-41122D01*
X151035D01*
X159878Y-49965D01*
D02*
G37*
%LPC*%
G36*
X77500Y-43146D02*
Y-46965D01*
X81318D01*
X81235Y-46330D01*
X80797Y-45273D01*
X80100Y-44365D01*
X79192Y-43668D01*
X78135Y-43230D01*
X77500Y-43146D01*
D02*
G37*
G36*
X76500D02*
X75865Y-43230D01*
X74808Y-43668D01*
X73900Y-44365D01*
X73203Y-45273D01*
X72765Y-46330D01*
X72682Y-46965D01*
X76500D01*
Y-43146D01*
D02*
G37*
G36*
X40346Y-43154D02*
X36500D01*
Y-47000D01*
X40346D01*
Y-43154D01*
D02*
G37*
G36*
X35500D02*
X31653D01*
Y-47000D01*
X35500D01*
Y-43154D01*
D02*
G37*
G36*
X92297Y-45001D02*
X89632D01*
Y-50422D01*
X92297D01*
Y-45001D01*
D02*
G37*
G36*
X88632D02*
X85966D01*
Y-50422D01*
X88632D01*
Y-45001D01*
D02*
G37*
G36*
X66000Y-43519D02*
X64970Y-43655D01*
X64010Y-44053D01*
X63185Y-44685D01*
X62553Y-45510D01*
X62155Y-46470D01*
X62019Y-47500D01*
X62155Y-48530D01*
X62553Y-49490D01*
X63185Y-50315D01*
X64010Y-50947D01*
X64970Y-51345D01*
X66000Y-51481D01*
X67030Y-51345D01*
X67990Y-50947D01*
X68815Y-50315D01*
X69447Y-49490D01*
X69845Y-48530D01*
X69981Y-47500D01*
X69845Y-46470D01*
X69447Y-45510D01*
X68815Y-44685D01*
X67990Y-44053D01*
X67030Y-43655D01*
X66000Y-43519D01*
D02*
G37*
G36*
X56000D02*
X54970Y-43655D01*
X54010Y-44053D01*
X53185Y-44685D01*
X52553Y-45510D01*
X52155Y-46470D01*
X52020Y-47500D01*
X52155Y-48530D01*
X52553Y-49490D01*
X53185Y-50315D01*
X54010Y-50947D01*
X54970Y-51345D01*
X56000Y-51481D01*
X57030Y-51345D01*
X57990Y-50947D01*
X58815Y-50315D01*
X59447Y-49490D01*
X59845Y-48530D01*
X59980Y-47500D01*
X59845Y-46470D01*
X59447Y-45510D01*
X58815Y-44685D01*
X57990Y-44053D01*
X57030Y-43655D01*
X56000Y-43519D01*
D02*
G37*
G36*
X46000D02*
X44970Y-43655D01*
X44010Y-44053D01*
X43185Y-44685D01*
X42553Y-45510D01*
X42155Y-46470D01*
X42020Y-47500D01*
X42155Y-48530D01*
X42553Y-49490D01*
X43185Y-50315D01*
X44010Y-50947D01*
X44970Y-51345D01*
X46000Y-51481D01*
X47030Y-51345D01*
X47990Y-50947D01*
X48815Y-50315D01*
X49447Y-49490D01*
X49845Y-48530D01*
X49981Y-47500D01*
X49845Y-46470D01*
X49447Y-45510D01*
X48815Y-44685D01*
X47990Y-44053D01*
X47030Y-43655D01*
X46000Y-43519D01*
D02*
G37*
G36*
X81318Y-47965D02*
X77500D01*
Y-51783D01*
X78135Y-51699D01*
X79192Y-51261D01*
X80100Y-50564D01*
X80797Y-49657D01*
X81235Y-48599D01*
X81318Y-47965D01*
D02*
G37*
G36*
X76500D02*
X72682D01*
X72765Y-48599D01*
X73203Y-49657D01*
X73900Y-50564D01*
X74808Y-51261D01*
X75865Y-51699D01*
X76500Y-51783D01*
Y-47965D01*
D02*
G37*
G36*
X40346Y-48000D02*
X36500D01*
Y-51846D01*
X40346D01*
Y-48000D01*
D02*
G37*
G36*
X35500D02*
X31653D01*
Y-51846D01*
X35500D01*
Y-48000D01*
D02*
G37*
G36*
X47500Y-54998D02*
Y-56234D01*
X48736D01*
X48696Y-56031D01*
X48298Y-55436D01*
X47702Y-55038D01*
X47500Y-54998D01*
D02*
G37*
G36*
X46500D02*
X46298Y-55038D01*
X45702Y-55436D01*
X45304Y-56031D01*
X45264Y-56234D01*
X46500D01*
Y-54998D01*
D02*
G37*
G36*
X131267Y-45395D02*
X125736D01*
Y-56437D01*
X131267D01*
Y-45395D01*
D02*
G37*
G36*
X123393Y-45399D02*
X117862D01*
Y-56441D01*
X123393D01*
Y-45399D01*
D02*
G37*
G36*
X107645D02*
X102114D01*
Y-56441D01*
X107645D01*
Y-45399D01*
D02*
G37*
G36*
X139141Y-45400D02*
X133610D01*
Y-56443D01*
X139141D01*
Y-45400D01*
D02*
G37*
G36*
X115519Y-45402D02*
X109988D01*
Y-56444D01*
X115519D01*
Y-45402D01*
D02*
G37*
G36*
X147015Y-45403D02*
X141485D01*
Y-56445D01*
X147015D01*
Y-45403D01*
D02*
G37*
G36*
X99771D02*
X94240D01*
Y-56445D01*
X99771D01*
Y-45403D01*
D02*
G37*
G36*
X92297Y-51422D02*
X89632D01*
Y-56843D01*
X92297D01*
Y-51422D01*
D02*
G37*
G36*
X88632D02*
X85966D01*
Y-56843D01*
X88632D01*
Y-51422D01*
D02*
G37*
G36*
X48736Y-57234D02*
X47500D01*
Y-58469D01*
X47702Y-58429D01*
X48298Y-58031D01*
X48696Y-57436D01*
X48736Y-57234D01*
D02*
G37*
G36*
X46500D02*
X45264D01*
X45304Y-57436D01*
X45702Y-58031D01*
X46298Y-58429D01*
X46500Y-58469D01*
Y-57234D01*
D02*
G37*
G36*
X77000Y-53484D02*
X75970Y-53620D01*
X75010Y-54017D01*
X74185Y-54650D01*
X73553Y-55474D01*
X73155Y-56434D01*
X73019Y-57465D01*
X73155Y-58495D01*
X73553Y-59455D01*
X74185Y-60279D01*
X75010Y-60912D01*
X75970Y-61309D01*
X77000Y-61445D01*
X78030Y-61309D01*
X78990Y-60912D01*
X79815Y-60279D01*
X80447Y-59455D01*
X80845Y-58495D01*
X80980Y-57465D01*
X80845Y-56434D01*
X80447Y-55474D01*
X79815Y-54650D01*
X78990Y-54017D01*
X78030Y-53620D01*
X77000Y-53484D01*
D02*
G37*
G36*
X33893Y-60857D02*
Y-62093D01*
X35129D01*
X35089Y-61890D01*
X34691Y-61295D01*
X34095Y-60897D01*
X33893Y-60857D01*
D02*
G37*
G36*
X32893D02*
X32691Y-60897D01*
X32096Y-61295D01*
X31698Y-61890D01*
X31657Y-62093D01*
X32893D01*
Y-60857D01*
D02*
G37*
G36*
X57000Y-61764D02*
Y-63000D01*
X58236D01*
X58196Y-62798D01*
X57798Y-62202D01*
X57202Y-61804D01*
X57000Y-61764D01*
D02*
G37*
G36*
X56000D02*
X55798Y-61804D01*
X55202Y-62202D01*
X54804Y-62798D01*
X54764Y-63000D01*
X56000D01*
Y-61764D01*
D02*
G37*
G36*
X130750Y-59496D02*
X130204Y-59605D01*
X129741Y-59914D01*
X129431Y-60378D01*
X129362Y-60726D01*
X109207Y-80881D01*
X109122Y-81009D01*
X108622Y-80857D01*
Y-78906D01*
X110198Y-77329D01*
X110546Y-77260D01*
X111009Y-76951D01*
X111319Y-76487D01*
X111427Y-75941D01*
X111319Y-75395D01*
X111009Y-74932D01*
X110546Y-74622D01*
X110000Y-74514D01*
X109454Y-74622D01*
X108991Y-74932D01*
X108681Y-75395D01*
X108612Y-75743D01*
X106707Y-77648D01*
X106464Y-78012D01*
X106378Y-78441D01*
X106378Y-78441D01*
Y-98535D01*
X103802Y-101112D01*
X103454Y-101181D01*
X102991Y-101491D01*
X102681Y-101954D01*
X102573Y-102500D01*
X102681Y-103046D01*
X102991Y-103509D01*
X103454Y-103819D01*
X104000Y-103927D01*
X104546Y-103819D01*
X105009Y-103509D01*
X105319Y-103046D01*
X105388Y-102698D01*
X108293Y-99793D01*
X108293Y-99793D01*
X108378Y-99665D01*
X108878Y-99817D01*
Y-130035D01*
X97305Y-141609D01*
X92341D01*
X92046Y-141411D01*
X91698Y-141342D01*
X90222Y-139866D01*
Y-123100D01*
X90222Y-123100D01*
X90136Y-122671D01*
X89893Y-122307D01*
X89893Y-122307D01*
X87489Y-119903D01*
X87681Y-119441D01*
X91897D01*
Y-108399D01*
X86778D01*
X86608Y-108399D01*
X86401Y-107899D01*
X95839Y-98460D01*
X98958D01*
X98991Y-98509D01*
X99454Y-98819D01*
X100000Y-98927D01*
X100546Y-98819D01*
X101009Y-98509D01*
X101319Y-98046D01*
X101427Y-97500D01*
X101319Y-96954D01*
X101009Y-96491D01*
X100546Y-96181D01*
X100000Y-96073D01*
X99454Y-96181D01*
X99400Y-96217D01*
X95374D01*
X95374Y-96217D01*
X94945Y-96303D01*
X94581Y-96546D01*
X94581Y-96546D01*
X81408Y-109719D01*
X80946Y-109527D01*
Y-103518D01*
X80946D01*
X80981Y-103033D01*
X81512D01*
X81512Y-103033D01*
X81942Y-102947D01*
X82306Y-102704D01*
X93527Y-91483D01*
X93875Y-91414D01*
X94338Y-91104D01*
X94647Y-90641D01*
X94756Y-90095D01*
X94647Y-89549D01*
X94338Y-89086D01*
X93875Y-88776D01*
X93329Y-88668D01*
X92782Y-88776D01*
X92319Y-89086D01*
X92010Y-89549D01*
X91941Y-89897D01*
X81048Y-100789D01*
X79927D01*
X79767Y-100316D01*
X79815Y-100279D01*
X80447Y-99455D01*
X80845Y-98495D01*
X80980Y-97465D01*
X80845Y-96434D01*
X80447Y-95474D01*
X79815Y-94650D01*
X79126Y-94122D01*
X79296Y-93622D01*
X83670D01*
X83670Y-93622D01*
X84099Y-93536D01*
X84463Y-93293D01*
X87293Y-90463D01*
X87293Y-90463D01*
X87536Y-90099D01*
X87622Y-89670D01*
Y-79388D01*
X93527Y-73483D01*
X93875Y-73414D01*
X94338Y-73104D01*
X94647Y-72641D01*
X94756Y-72095D01*
X94647Y-71549D01*
X94338Y-71086D01*
X93875Y-70776D01*
X93329Y-70667D01*
X92782Y-70776D01*
X92319Y-71086D01*
X92010Y-71549D01*
X91941Y-71897D01*
X85707Y-78131D01*
X85464Y-78494D01*
X85378Y-78924D01*
X85378Y-78924D01*
Y-89205D01*
X83205Y-91378D01*
X79386D01*
X79310Y-91283D01*
X79390Y-90605D01*
X79815Y-90279D01*
X80447Y-89455D01*
X80845Y-88495D01*
X80980Y-87465D01*
X80845Y-86434D01*
X80447Y-85474D01*
X79815Y-84650D01*
X78990Y-84017D01*
X78030Y-83620D01*
X77000Y-83484D01*
X75970Y-83620D01*
X75101Y-83979D01*
X66643Y-75522D01*
X66850Y-75022D01*
X72971D01*
X73515Y-75566D01*
X73155Y-76434D01*
X73019Y-77465D01*
X73155Y-78495D01*
X73553Y-79455D01*
X74185Y-80279D01*
X75010Y-80912D01*
X75970Y-81309D01*
X77000Y-81445D01*
X78030Y-81309D01*
X78990Y-80912D01*
X79815Y-80279D01*
X80447Y-79455D01*
X80845Y-78495D01*
X80980Y-77465D01*
X80845Y-76434D01*
X80447Y-75474D01*
X79815Y-74650D01*
X78990Y-74017D01*
X78030Y-73620D01*
X77000Y-73484D01*
X75970Y-73620D01*
X75101Y-73980D01*
X74229Y-73107D01*
X73865Y-72864D01*
X73435Y-72778D01*
X73435Y-72778D01*
X57790D01*
X57583Y-72278D01*
X61276Y-68586D01*
X73193D01*
X73553Y-69455D01*
X74185Y-70279D01*
X75010Y-70912D01*
X75970Y-71309D01*
X77000Y-71445D01*
X78030Y-71309D01*
X78990Y-70912D01*
X79815Y-70279D01*
X80447Y-69455D01*
X80845Y-68495D01*
X80980Y-67465D01*
X80845Y-66434D01*
X80447Y-65474D01*
X79815Y-64650D01*
X78990Y-64017D01*
X78030Y-63620D01*
X77000Y-63484D01*
X75970Y-63620D01*
X75010Y-64017D01*
X74185Y-64650D01*
X73553Y-65474D01*
X73193Y-66343D01*
X60811D01*
X60811Y-66343D01*
X60382Y-66428D01*
X60018Y-66672D01*
X60018Y-66672D01*
X52077Y-74612D01*
X51729Y-74681D01*
X51266Y-74991D01*
X50957Y-75454D01*
X50848Y-76000D01*
X50957Y-76546D01*
X51266Y-77009D01*
X51729Y-77319D01*
X52276Y-77427D01*
X52822Y-77319D01*
X53285Y-77009D01*
X53296Y-76992D01*
X53824Y-76958D01*
X54099Y-77233D01*
X54065Y-77760D01*
X53755Y-78223D01*
X53646Y-78769D01*
X53755Y-79316D01*
X54065Y-79779D01*
X54528Y-80088D01*
X55074Y-80197D01*
X55620Y-80088D01*
X56083Y-79779D01*
X56284Y-79479D01*
X56784Y-79423D01*
X56862Y-79444D01*
X56991Y-79637D01*
X57183Y-79765D01*
X57205Y-79846D01*
X57149Y-80344D01*
X56847Y-80545D01*
X56538Y-81008D01*
X56429Y-81555D01*
X56538Y-82101D01*
X56847Y-82564D01*
X57310Y-82873D01*
X57856Y-82982D01*
X58403Y-82873D01*
X58866Y-82564D01*
X59175Y-82101D01*
X59245Y-81753D01*
X59876Y-81122D01*
X62222D01*
X67784Y-86683D01*
X67538Y-87144D01*
X67178Y-87073D01*
X66631Y-87181D01*
X66168Y-87491D01*
X65859Y-87954D01*
X65790Y-88302D01*
X65391Y-88701D01*
X61841D01*
X61546Y-88504D01*
X61000Y-88395D01*
X60454Y-88504D01*
X59991Y-88813D01*
X59681Y-89276D01*
X59573Y-89822D01*
X59681Y-90369D01*
X59688Y-90378D01*
X59421Y-90878D01*
X53582D01*
X53287Y-90681D01*
X52740Y-90573D01*
X52194Y-90681D01*
X51731Y-90991D01*
X51422Y-91454D01*
X51313Y-92000D01*
X51422Y-92546D01*
X51731Y-93009D01*
X52069Y-93235D01*
X52194Y-93319D01*
X52489Y-93426D01*
X52489Y-93429D01*
X52367Y-93878D01*
X46023D01*
X46023Y-93878D01*
X45594Y-93964D01*
X45230Y-94207D01*
X45230Y-94207D01*
X40707Y-98730D01*
X40464Y-99094D01*
X40378Y-99523D01*
X40378Y-99523D01*
Y-101243D01*
X40243Y-101446D01*
X39697Y-101607D01*
X37122Y-99032D01*
Y-91017D01*
X37122Y-91017D01*
X37036Y-90588D01*
X36793Y-90224D01*
X36793Y-90224D01*
X30900Y-84330D01*
X30830Y-83982D01*
X30521Y-83519D01*
X30058Y-83210D01*
X29512Y-83101D01*
X28965Y-83210D01*
X28502Y-83519D01*
X28193Y-83982D01*
X28084Y-84528D01*
X28193Y-85075D01*
X28502Y-85538D01*
X28965Y-85847D01*
X29313Y-85917D01*
X34878Y-91482D01*
Y-99497D01*
X34878Y-99497D01*
X34964Y-99926D01*
X35207Y-100290D01*
X35796Y-100878D01*
X35588Y-101378D01*
X34841D01*
X34546Y-101181D01*
X34000Y-101073D01*
X33454Y-101181D01*
X32991Y-101491D01*
X32681Y-101954D01*
X32573Y-102500D01*
X32681Y-103046D01*
X32991Y-103509D01*
X33454Y-103819D01*
X34000Y-103927D01*
X34546Y-103819D01*
X34841Y-103622D01*
X35535D01*
X43378Y-111465D01*
Y-114500D01*
X43378Y-114500D01*
X43464Y-114929D01*
X43707Y-115293D01*
X47707Y-119293D01*
X47707Y-119293D01*
X47715Y-119381D01*
X47330Y-119851D01*
X46000D01*
X45541Y-120041D01*
X43541Y-122041D01*
X43351Y-122500D01*
Y-126731D01*
X42541Y-127541D01*
X42351Y-128000D01*
Y-141500D01*
X42541Y-141959D01*
X46541Y-145959D01*
X47000Y-146149D01*
X72669D01*
X72861Y-146611D01*
X70029Y-149443D01*
X52000D01*
X51181Y-149606D01*
X50486Y-150070D01*
X50022Y-150765D01*
X49859Y-151584D01*
X50022Y-152404D01*
X50486Y-153098D01*
X51181Y-153562D01*
X52000Y-153725D01*
X70916D01*
X71735Y-153562D01*
X72430Y-153098D01*
X85148Y-140381D01*
X85612Y-139686D01*
X85775Y-138866D01*
Y-128000D01*
X85612Y-127181D01*
X85148Y-126486D01*
X84453Y-126022D01*
X83634Y-125859D01*
X82814Y-126022D01*
X82120Y-126486D01*
X81655Y-127181D01*
X81492Y-128000D01*
Y-137980D01*
X81111Y-138361D01*
X80649Y-138169D01*
Y-119152D01*
X81111Y-118960D01*
X86378Y-124227D01*
Y-144730D01*
X86378Y-144730D01*
X86464Y-145159D01*
X86707Y-145523D01*
X90112Y-148928D01*
X90181Y-149276D01*
X90491Y-149740D01*
X90954Y-150049D01*
X91500Y-150157D01*
X92046Y-150049D01*
X92341Y-149852D01*
X96770D01*
X96770Y-149852D01*
X97199Y-149766D01*
X97563Y-149523D01*
X116293Y-130793D01*
X116536Y-130429D01*
X116622Y-130000D01*
X116622Y-130000D01*
Y-127134D01*
X117122Y-126982D01*
X117202Y-127103D01*
X117798Y-127501D01*
X118000Y-127541D01*
Y-125805D01*
X119000D01*
Y-127541D01*
X119202Y-127501D01*
X119798Y-127103D01*
X119986Y-126821D01*
X123265Y-123543D01*
X135928D01*
X138360Y-125974D01*
Y-126136D01*
X140828D01*
Y-123828D01*
X137757Y-120758D01*
X137228Y-120404D01*
X136604Y-120280D01*
X122589D01*
X121965Y-120404D01*
X121435Y-120758D01*
X118154Y-124039D01*
X117798Y-124110D01*
X117202Y-124507D01*
X117122Y-124628D01*
X116622Y-124477D01*
Y-106499D01*
X145043Y-78077D01*
X145286Y-77713D01*
X145372Y-77284D01*
X145372Y-77284D01*
Y-69765D01*
X145569Y-69470D01*
X145677Y-68924D01*
X145569Y-68378D01*
X145259Y-67914D01*
X144796Y-67605D01*
X144250Y-67496D01*
X143704Y-67605D01*
X143241Y-67914D01*
X142931Y-68378D01*
X142823Y-68924D01*
X142931Y-69470D01*
X143128Y-69765D01*
Y-76819D01*
X133109Y-86839D01*
X132647Y-86648D01*
Y-74733D01*
X119234D01*
X119027Y-74233D01*
X130285Y-62975D01*
X130321Y-62999D01*
X130750Y-63085D01*
X131179Y-62999D01*
X131543Y-62756D01*
X131786Y-62392D01*
X131872Y-61963D01*
Y-61765D01*
X132069Y-61470D01*
X132177Y-60924D01*
X132069Y-60378D01*
X131759Y-59914D01*
X131296Y-59605D01*
X130750Y-59496D01*
D02*
G37*
G36*
X35129Y-63093D02*
X33893D01*
Y-64329D01*
X34095Y-64288D01*
X34691Y-63890D01*
X35089Y-63295D01*
X35129Y-63093D01*
D02*
G37*
G36*
X32893D02*
X31657D01*
X31698Y-63295D01*
X32096Y-63890D01*
X32691Y-64288D01*
X32893Y-64329D01*
Y-63093D01*
D02*
G37*
G36*
X58236Y-64000D02*
X57000D01*
Y-65236D01*
X57202Y-65196D01*
X57798Y-64798D01*
X58196Y-64202D01*
X58236Y-64000D01*
D02*
G37*
G36*
X53000Y-63464D02*
X51586Y-64879D01*
X53354Y-66646D01*
X55121Y-68414D01*
X56536Y-67000D01*
X55561Y-66025D01*
X56000Y-65586D01*
Y-64000D01*
X54414D01*
X53975Y-64439D01*
X53000Y-63464D01*
D02*
G37*
G36*
X50879Y-65586D02*
X49464Y-67000D01*
X50879Y-68414D01*
X52293Y-67000D01*
X50879Y-65586D01*
D02*
G37*
G36*
X53000Y-67707D02*
X51586Y-69121D01*
X53000Y-70535D01*
X54414Y-69121D01*
X53000Y-67707D01*
D02*
G37*
G36*
X2000Y-69764D02*
Y-71000D01*
X3236D01*
X3196Y-70798D01*
X2798Y-70202D01*
X2202Y-69804D01*
X2000Y-69764D01*
D02*
G37*
G36*
X1000D02*
X798Y-69804D01*
X202Y-70202D01*
X-196Y-70798D01*
X-236Y-71000D01*
X1000D01*
Y-69764D01*
D02*
G37*
G36*
X-27746Y-69819D02*
X-27948Y-69860D01*
X-28543Y-70257D01*
X-28941Y-70853D01*
X-28981Y-71055D01*
X-27746D01*
Y-69819D01*
D02*
G37*
G36*
X3236Y-72000D02*
X2000D01*
Y-73236D01*
X2202Y-73196D01*
X2798Y-72798D01*
X3196Y-72202D01*
X3236Y-72000D01*
D02*
G37*
G36*
X1000D02*
X-236D01*
X-196Y-72202D01*
X202Y-72798D01*
X798Y-73196D01*
X1000Y-73236D01*
Y-72000D01*
D02*
G37*
G36*
X-27746Y-72055D02*
X-28981D01*
X-28941Y-72258D01*
X-28543Y-72853D01*
X-27948Y-73251D01*
X-27746Y-73291D01*
Y-72055D01*
D02*
G37*
G36*
X49381Y-67649D02*
X46411Y-70619D01*
X49381Y-73589D01*
X52351Y-70619D01*
X49381Y-67649D01*
D02*
G37*
G36*
X-10066Y-73450D02*
Y-74686D01*
X-8830D01*
X-8871Y-74484D01*
X-9268Y-73888D01*
X-9864Y-73490D01*
X-10066Y-73450D01*
D02*
G37*
G36*
X-26746Y-69819D02*
Y-71555D01*
Y-73291D01*
X-26543Y-73251D01*
X-25948Y-72853D01*
X-25830Y-72677D01*
X-14661D01*
X-12652Y-74686D01*
X-11066D01*
Y-73100D01*
X-13404Y-70762D01*
X-13768Y-70519D01*
X-14197Y-70434D01*
X-14197Y-70434D01*
X-25830D01*
X-25948Y-70257D01*
X-26543Y-69860D01*
X-26746Y-69819D01*
D02*
G37*
G36*
X-8830Y-75686D02*
X-10066D01*
Y-76922D01*
X-9864Y-76881D01*
X-9268Y-76484D01*
X-8871Y-75888D01*
X-8830Y-75686D01*
D02*
G37*
G36*
X-11066D02*
X-12302D01*
X-12262Y-75888D01*
X-11864Y-76484D01*
X-11268Y-76881D01*
X-11066Y-76922D01*
Y-75686D01*
D02*
G37*
G36*
X-52500Y-76186D02*
Y-77422D01*
X-51264D01*
X-51304Y-77220D01*
X-51702Y-76624D01*
X-52298Y-76226D01*
X-52500Y-76186D01*
D02*
G37*
G36*
X-53500D02*
X-53702Y-76226D01*
X-54298Y-76624D01*
X-54696Y-77220D01*
X-54736Y-77422D01*
X-53500D01*
Y-76186D01*
D02*
G37*
G36*
X-51264Y-78422D02*
X-52500D01*
Y-79658D01*
X-52298Y-79618D01*
X-51702Y-79220D01*
X-51304Y-78624D01*
X-51264Y-78422D01*
D02*
G37*
G36*
X-53500D02*
X-54736D01*
X-54696Y-78624D01*
X-54298Y-79220D01*
X-53702Y-79618D01*
X-53500Y-79658D01*
Y-78422D01*
D02*
G37*
G36*
X-52500Y-94088D02*
Y-95324D01*
X-51264D01*
X-51304Y-95121D01*
X-51702Y-94526D01*
X-52298Y-94128D01*
X-52500Y-94088D01*
D02*
G37*
G36*
X-53500D02*
X-53702Y-94128D01*
X-54298Y-94526D01*
X-54696Y-95121D01*
X-54736Y-95324D01*
X-53500D01*
Y-94088D01*
D02*
G37*
G36*
X-51264Y-96324D02*
X-52500D01*
Y-97559D01*
X-52298Y-97519D01*
X-51702Y-97121D01*
X-51304Y-96526D01*
X-51264Y-96324D01*
D02*
G37*
G36*
X-53500D02*
X-54736D01*
X-54696Y-96526D01*
X-54298Y-97121D01*
X-53702Y-97519D01*
X-53500Y-97559D01*
Y-96324D01*
D02*
G37*
G36*
X99924Y-103688D02*
Y-104924D01*
X101160D01*
X101119Y-104722D01*
X100722Y-104126D01*
X100126Y-103728D01*
X99924Y-103688D01*
D02*
G37*
G36*
X98924D02*
X98722Y-103728D01*
X98126Y-104126D01*
X97728Y-104722D01*
X97688Y-104924D01*
X98924D01*
Y-103688D01*
D02*
G37*
G36*
X-27246Y-101453D02*
X-27870Y-101577D01*
X-28399Y-101931D01*
X-28753Y-102460D01*
X-28877Y-103085D01*
X-28753Y-103709D01*
X-28399Y-104238D01*
X-26984Y-105654D01*
X-26454Y-106007D01*
X-25830Y-106131D01*
X-13400D01*
X-12776Y-106007D01*
X-12246Y-105654D01*
X-11243Y-104650D01*
X-10890Y-104121D01*
X-10766Y-103497D01*
X-10890Y-102873D01*
X-11243Y-102343D01*
X-11772Y-101990D01*
X-12397Y-101865D01*
X-13021Y-101990D01*
X-13550Y-102343D01*
X-14076Y-102869D01*
X-25154D01*
X-26092Y-101931D01*
X-26621Y-101577D01*
X-27246Y-101453D01*
D02*
G37*
G36*
X101160Y-105924D02*
X99924D01*
Y-107160D01*
X100126Y-107119D01*
X100722Y-106722D01*
X101119Y-106126D01*
X101160Y-105924D01*
D02*
G37*
G36*
X98924D02*
X97688D01*
X97728Y-106126D01*
X98126Y-106722D01*
X98722Y-107119D01*
X98924Y-107160D01*
Y-105924D01*
D02*
G37*
G36*
X16447Y-99265D02*
X15901Y-99374D01*
X15438Y-99683D01*
X15128Y-100146D01*
X15059Y-100495D01*
X6407Y-109147D01*
X6164Y-109511D01*
X6078Y-109940D01*
X6078Y-109940D01*
Y-139475D01*
X6078Y-139475D01*
X6164Y-139904D01*
X6407Y-140268D01*
X26701Y-160562D01*
X26770Y-160910D01*
X27079Y-161373D01*
X27543Y-161682D01*
X28089Y-161791D01*
X28635Y-161682D01*
X29098Y-161373D01*
X29408Y-160910D01*
X29516Y-160364D01*
X29408Y-159817D01*
X29098Y-159354D01*
X28635Y-159045D01*
X28287Y-158976D01*
X8322Y-139010D01*
Y-137812D01*
X8783Y-137621D01*
X26591Y-155428D01*
X26660Y-155776D01*
X26970Y-156239D01*
X27433Y-156549D01*
X27979Y-156658D01*
X28525Y-156549D01*
X28988Y-156239D01*
X29298Y-155776D01*
X29406Y-155230D01*
X29298Y-154684D01*
X28988Y-154221D01*
X28525Y-153911D01*
X28177Y-153842D01*
X9922Y-135587D01*
Y-134546D01*
X10384Y-134354D01*
X26591Y-150562D01*
X26660Y-150910D01*
X26970Y-151373D01*
X27433Y-151682D01*
X27979Y-151791D01*
X28525Y-151682D01*
X28988Y-151373D01*
X29298Y-150910D01*
X29406Y-150364D01*
X29298Y-149817D01*
X28988Y-149354D01*
X28525Y-149045D01*
X28177Y-148976D01*
X11522Y-132320D01*
Y-131125D01*
X11983Y-130933D01*
X26612Y-145562D01*
X26681Y-145910D01*
X26991Y-146373D01*
X27454Y-146682D01*
X28000Y-146791D01*
X28546Y-146682D01*
X29009Y-146373D01*
X29319Y-145910D01*
X29427Y-145364D01*
X29398Y-145218D01*
X29859Y-144971D01*
X51044Y-166157D01*
X51045Y-166157D01*
X51408Y-166400D01*
X51838Y-166485D01*
X114958D01*
X116671Y-168198D01*
X116741Y-168547D01*
X117050Y-169010D01*
X117513Y-169319D01*
X118059Y-169428D01*
X118606Y-169319D01*
X119069Y-169010D01*
X119378Y-168547D01*
X119487Y-168000D01*
X119378Y-167454D01*
X119069Y-166991D01*
X118606Y-166682D01*
X118257Y-166612D01*
X116216Y-164571D01*
X115852Y-164328D01*
X115423Y-164242D01*
X115423Y-164242D01*
X52302D01*
X14721Y-126662D01*
Y-119380D01*
X15163Y-119144D01*
X15239Y-119196D01*
X15442Y-119236D01*
Y-117500D01*
X15942D01*
Y-117000D01*
X18028D01*
X18716Y-116312D01*
X19691Y-117286D01*
X21105Y-115872D01*
X19337Y-114104D01*
X19691Y-113751D01*
X19337Y-113397D01*
X21105Y-111629D01*
X20040Y-110565D01*
X20051Y-110550D01*
X20706Y-110497D01*
X23310Y-113102D01*
X26280Y-110132D01*
X23567Y-107419D01*
X23338Y-107087D01*
X23472Y-106729D01*
X23594Y-106546D01*
X23703Y-106000D01*
X23594Y-105454D01*
X23285Y-104991D01*
X22822Y-104681D01*
X22275Y-104573D01*
X21729Y-104681D01*
X21266Y-104991D01*
X20838Y-104732D01*
X20807Y-104685D01*
X20758Y-104652D01*
X20509Y-104217D01*
X20642Y-104019D01*
X20819Y-103754D01*
X20927Y-103208D01*
X20819Y-102662D01*
X20509Y-102198D01*
X20046Y-101889D01*
X19500Y-101780D01*
X18954Y-101889D01*
X18491Y-102198D01*
X17926Y-102144D01*
X17867Y-102057D01*
X17804Y-102014D01*
X17457Y-101702D01*
X17766Y-101239D01*
X17875Y-100693D01*
X17766Y-100146D01*
X17457Y-99683D01*
X16994Y-99374D01*
X16447Y-99265D01*
D02*
G37*
G36*
X21812Y-112337D02*
X20398Y-113751D01*
X21812Y-115165D01*
X23226Y-113751D01*
X21812Y-112337D01*
D02*
G37*
G36*
X17677Y-118000D02*
X16442D01*
Y-119236D01*
X16644Y-119196D01*
X17239Y-118798D01*
X17637Y-118202D01*
X17677Y-118000D01*
D02*
G37*
G36*
X131267Y-108396D02*
X125736D01*
Y-119438D01*
X131267D01*
Y-108396D01*
D02*
G37*
G36*
X139141Y-108399D02*
X133610D01*
Y-119442D01*
X139141D01*
Y-108399D01*
D02*
G37*
G36*
X123393D02*
X117862D01*
Y-119442D01*
X123393D01*
Y-108399D01*
D02*
G37*
G36*
X107645Y-108400D02*
X102114D01*
Y-119442D01*
X107645D01*
Y-108400D01*
D02*
G37*
G36*
X99771Y-108403D02*
X94240D01*
Y-119445D01*
X99771D01*
Y-108403D01*
D02*
G37*
G36*
X152498Y-117958D02*
Y-121411D01*
X156935D01*
Y-117958D01*
X152498D01*
D02*
G37*
G36*
X147015Y-108403D02*
X141484D01*
Y-119445D01*
X147015Y-119445D01*
X147061Y-119926D01*
Y-121411D01*
X151498D01*
Y-117958D01*
X147515D01*
X147061Y-117958D01*
X147015Y-117477D01*
Y-108403D01*
D02*
G37*
G36*
X-4500Y-98159D02*
X-5319Y-98321D01*
X-6014Y-98786D01*
X-6478Y-99480D01*
X-6641Y-100300D01*
X-6478Y-101119D01*
X-6014Y-101814D01*
X-992Y-106835D01*
X-1360Y-121678D01*
X-1217Y-122502D01*
X-770Y-123208D01*
X-87Y-123689D01*
X728Y-123872D01*
X1551Y-123729D01*
X2257Y-123283D01*
X2738Y-122599D01*
X2921Y-121784D01*
X3311Y-106024D01*
X3307Y-105997D01*
X3312Y-105971D01*
X3235Y-105586D01*
X3169Y-105200D01*
X3154Y-105177D01*
X3149Y-105151D01*
X2931Y-104825D01*
X2722Y-104494D01*
X2700Y-104479D01*
X2685Y-104456D01*
X-2986Y-98786D01*
X-3681Y-98321D01*
X-4500Y-98159D01*
D02*
G37*
G36*
X21000Y-122664D02*
Y-123900D01*
X22236D01*
X22196Y-123698D01*
X21798Y-123102D01*
X21202Y-122704D01*
X21000Y-122664D01*
D02*
G37*
G36*
X20000D02*
X19798Y-122704D01*
X19202Y-123102D01*
X18804Y-123698D01*
X18764Y-123900D01*
X20000D01*
Y-122664D01*
D02*
G37*
G36*
X156935Y-122411D02*
X152498D01*
Y-125864D01*
X156935D01*
Y-122411D01*
D02*
G37*
G36*
X151498D02*
X147061D01*
Y-125864D01*
X151498D01*
Y-122411D01*
D02*
G37*
G36*
X144297Y-124061D02*
X141828D01*
Y-126136D01*
X144297D01*
Y-124061D01*
D02*
G37*
G36*
X22236Y-124900D02*
X21000D01*
Y-126136D01*
X21202Y-126096D01*
X21798Y-125698D01*
X22196Y-125102D01*
X22236Y-124900D01*
D02*
G37*
G36*
X20000D02*
X18764D01*
X18804Y-125102D01*
X19202Y-125698D01*
X19798Y-126096D01*
X20000Y-126136D01*
Y-124900D01*
D02*
G37*
G36*
X-46000Y-125265D02*
Y-126500D01*
X-44764D01*
X-44804Y-126298D01*
X-45202Y-125703D01*
X-45798Y-125305D01*
X-46000Y-125265D01*
D02*
G37*
G36*
X-47000D02*
X-47202Y-125305D01*
X-47798Y-125703D01*
X-48196Y-126298D01*
X-48236Y-126500D01*
X-47000D01*
Y-125265D01*
D02*
G37*
G36*
X-44764Y-127500D02*
X-46000D01*
Y-128736D01*
X-45798Y-128696D01*
X-45202Y-128298D01*
X-44804Y-127703D01*
X-44764Y-127500D01*
D02*
G37*
G36*
X-47000D02*
X-48236D01*
X-48196Y-127703D01*
X-47798Y-128298D01*
X-47202Y-128696D01*
X-47000Y-128736D01*
Y-127500D01*
D02*
G37*
G36*
X144297Y-127136D02*
X141828D01*
Y-129210D01*
X144297D01*
Y-127136D01*
D02*
G37*
G36*
X140828D02*
X138360D01*
Y-129210D01*
X140828D01*
Y-127136D01*
D02*
G37*
G36*
X144297Y-143155D02*
X141828D01*
Y-145230D01*
X144297D01*
Y-143155D01*
D02*
G37*
G36*
X140828D02*
X138360D01*
Y-145230D01*
X140828D01*
Y-143155D01*
D02*
G37*
G36*
X144297Y-146230D02*
X141828D01*
Y-148305D01*
X144297D01*
Y-146230D01*
D02*
G37*
G36*
X140828D02*
X138360D01*
Y-148305D01*
X140828D01*
Y-146230D01*
D02*
G37*
G36*
X156935Y-146502D02*
X152498D01*
Y-149954D01*
X156935D01*
Y-146502D01*
D02*
G37*
G36*
X151498D02*
X147061D01*
Y-149954D01*
X151498D01*
Y-146502D01*
D02*
G37*
G36*
X156935Y-150954D02*
X152498D01*
Y-154407D01*
X156935D01*
Y-150954D01*
D02*
G37*
G36*
X151498D02*
X147061D01*
Y-154407D01*
X151498D01*
Y-150954D01*
D02*
G37*
G36*
X-14166Y-156128D02*
Y-157364D01*
X-12931D01*
X-12971Y-157161D01*
X-13369Y-156566D01*
X-13964Y-156168D01*
X-14166Y-156128D01*
D02*
G37*
G36*
X-15166D02*
X-15369Y-156168D01*
X-15964Y-156566D01*
X-16362Y-157161D01*
X-16402Y-157364D01*
X-15166D01*
Y-156128D01*
D02*
G37*
G36*
X-12931Y-158364D02*
X-14166D01*
Y-159599D01*
X-13964Y-159559D01*
X-13369Y-159161D01*
X-12971Y-158566D01*
X-12931Y-158364D01*
D02*
G37*
G36*
X-15166D02*
X-16402D01*
X-16362Y-158566D01*
X-15964Y-159161D01*
X-15369Y-159559D01*
X-15166Y-159599D01*
Y-158364D01*
D02*
G37*
G36*
X101212Y-167571D02*
Y-168807D01*
X102448D01*
X102408Y-168605D01*
X102010Y-168009D01*
X101415Y-167612D01*
X101212Y-167571D01*
D02*
G37*
G36*
X100212D02*
X100010Y-167612D01*
X99415Y-168009D01*
X99017Y-168605D01*
X98976Y-168807D01*
X100212D01*
Y-167571D01*
D02*
G37*
G36*
X102448Y-169807D02*
X101212D01*
Y-171043D01*
X101415Y-171003D01*
X102010Y-170605D01*
X102408Y-170009D01*
X102448Y-169807D01*
D02*
G37*
G36*
X100212D02*
X98976D01*
X99017Y-170009D01*
X99415Y-170605D01*
X100010Y-171003D01*
X100212Y-171043D01*
Y-169807D01*
D02*
G37*
G36*
X154500Y-171682D02*
Y-175500D01*
X158318D01*
X158235Y-174865D01*
X157797Y-173808D01*
X157100Y-172900D01*
X156192Y-172203D01*
X155135Y-171765D01*
X154500Y-171682D01*
D02*
G37*
G36*
X153500D02*
X152865Y-171765D01*
X151808Y-172203D01*
X150900Y-172900D01*
X150203Y-173808D01*
X149765Y-174865D01*
X149682Y-175500D01*
X153500D01*
Y-171682D01*
D02*
G37*
G36*
X50352Y-176105D02*
Y-177341D01*
X51587D01*
X51547Y-177139D01*
X51149Y-176543D01*
X50554Y-176145D01*
X50352Y-176105D01*
D02*
G37*
G36*
X49352D02*
X49149Y-176145D01*
X48554Y-176543D01*
X48156Y-177139D01*
X48116Y-177341D01*
X49352D01*
Y-176105D01*
D02*
G37*
G36*
X51587Y-178341D02*
X50352D01*
Y-179577D01*
X50554Y-179536D01*
X51149Y-179139D01*
X51547Y-178543D01*
X51587Y-178341D01*
D02*
G37*
G36*
X49352D02*
X48116D01*
X48156Y-178543D01*
X48554Y-179139D01*
X49149Y-179536D01*
X49352Y-179577D01*
Y-178341D01*
D02*
G37*
G36*
X158318Y-176500D02*
X154500D01*
Y-180318D01*
X155135Y-180235D01*
X156192Y-179797D01*
X157100Y-179100D01*
X157797Y-178192D01*
X158235Y-177135D01*
X158318Y-176500D01*
D02*
G37*
G36*
X153500D02*
X149682D01*
X149765Y-177135D01*
X150203Y-178192D01*
X150900Y-179100D01*
X151808Y-179797D01*
X152865Y-180235D01*
X153500Y-180318D01*
Y-176500D01*
D02*
G37*
G36*
X-74500Y-150020D02*
X-75530Y-150155D01*
X-76490Y-150553D01*
X-77315Y-151185D01*
X-77947Y-152010D01*
X-78345Y-152970D01*
X-78480Y-154000D01*
X-78345Y-155030D01*
X-77947Y-155990D01*
X-77315Y-156815D01*
X-76490Y-157447D01*
X-75530Y-157845D01*
X-74500Y-157981D01*
X-73470Y-157845D01*
X-72601Y-157485D01*
X-48270Y-181816D01*
X-48461Y-182278D01*
X-54635D01*
X-71015Y-165899D01*
X-70655Y-165030D01*
X-70520Y-164000D01*
X-70655Y-162970D01*
X-71053Y-162010D01*
X-71685Y-161185D01*
X-72510Y-160553D01*
X-73470Y-160155D01*
X-74500Y-160020D01*
X-75530Y-160155D01*
X-76490Y-160553D01*
X-77315Y-161185D01*
X-77947Y-162010D01*
X-78345Y-162970D01*
X-78480Y-164000D01*
X-78345Y-165030D01*
X-77947Y-165990D01*
X-77315Y-166815D01*
X-76490Y-167447D01*
X-75530Y-167845D01*
X-74500Y-167981D01*
X-73470Y-167845D01*
X-72601Y-167485D01*
X-56670Y-183416D01*
X-56861Y-183878D01*
X-63035D01*
X-71015Y-175899D01*
X-70655Y-175030D01*
X-70520Y-174000D01*
X-70655Y-172970D01*
X-71053Y-172010D01*
X-71685Y-171185D01*
X-72510Y-170553D01*
X-73470Y-170155D01*
X-74500Y-170019D01*
X-75530Y-170155D01*
X-76490Y-170553D01*
X-77315Y-171185D01*
X-77947Y-172010D01*
X-78345Y-172970D01*
X-78480Y-174000D01*
X-78345Y-175030D01*
X-77947Y-175990D01*
X-77315Y-176815D01*
X-76490Y-177447D01*
X-75530Y-177845D01*
X-74500Y-177980D01*
X-73470Y-177845D01*
X-72601Y-177485D01*
X-64870Y-185216D01*
X-65061Y-185678D01*
X-68512D01*
X-68834Y-185464D01*
X-69263Y-185378D01*
X-69263Y-185378D01*
X-70323D01*
X-70635Y-184878D01*
X-70520Y-184000D01*
X-70655Y-182970D01*
X-71053Y-182010D01*
X-71685Y-181185D01*
X-72510Y-180553D01*
X-73470Y-180155D01*
X-74500Y-180019D01*
X-75530Y-180155D01*
X-76490Y-180553D01*
X-77315Y-181185D01*
X-77947Y-182010D01*
X-78345Y-182970D01*
X-78480Y-184000D01*
X-78345Y-185030D01*
X-77947Y-185990D01*
X-77315Y-186815D01*
X-76490Y-187447D01*
X-75530Y-187845D01*
X-74500Y-187980D01*
X-73470Y-187845D01*
X-72542Y-187461D01*
X-72429Y-187536D01*
X-72000Y-187622D01*
X-70415D01*
X-70208Y-188122D01*
X-72601Y-190515D01*
X-73470Y-190155D01*
X-74500Y-190020D01*
X-75530Y-190155D01*
X-76490Y-190553D01*
X-77315Y-191185D01*
X-77947Y-192010D01*
X-78345Y-192970D01*
X-78480Y-194000D01*
X-78345Y-195030D01*
X-77947Y-195990D01*
X-77315Y-196815D01*
X-76490Y-197447D01*
X-75530Y-197845D01*
X-74500Y-197980D01*
X-73470Y-197845D01*
X-72510Y-197447D01*
X-71685Y-196815D01*
X-71053Y-195990D01*
X-70655Y-195030D01*
X-70520Y-194000D01*
X-70655Y-192970D01*
X-71015Y-192101D01*
X-68435Y-189522D01*
X-62261D01*
X-62070Y-189983D01*
X-72140Y-200054D01*
X-78447D01*
Y-207946D01*
X-70553D01*
Y-201640D01*
X-60035Y-191122D01*
X-45743D01*
X-44778Y-192087D01*
X-44709Y-192435D01*
X-44399Y-192898D01*
X-43936Y-193208D01*
X-43390Y-193316D01*
X-42844Y-193208D01*
X-42381Y-192898D01*
X-42071Y-192435D01*
X-41963Y-191889D01*
X-42071Y-191343D01*
X-42381Y-190880D01*
X-42844Y-190570D01*
X-43192Y-190501D01*
X-43709Y-189983D01*
X-43518Y-189522D01*
X-37343D01*
X-34778Y-192087D01*
X-34709Y-192435D01*
X-34399Y-192898D01*
X-33936Y-193208D01*
X-33390Y-193316D01*
X-32844Y-193208D01*
X-32381Y-192898D01*
X-32071Y-192435D01*
X-31962Y-191889D01*
X-32071Y-191343D01*
X-32381Y-190880D01*
X-32844Y-190570D01*
X-33192Y-190501D01*
X-35309Y-188383D01*
X-35118Y-187922D01*
X-28943D01*
X-24778Y-192087D01*
X-24709Y-192435D01*
X-24399Y-192898D01*
X-23936Y-193208D01*
X-23390Y-193316D01*
X-22844Y-193208D01*
X-22381Y-192898D01*
X-22071Y-192435D01*
X-21963Y-191889D01*
X-22071Y-191343D01*
X-22381Y-190880D01*
X-22844Y-190570D01*
X-23192Y-190501D01*
X-27109Y-186583D01*
X-26918Y-186122D01*
X-23752D01*
X-23752Y-186122D01*
X-23322Y-186036D01*
X-22959Y-185793D01*
X-18192Y-181026D01*
X-17844Y-180957D01*
X-17381Y-180648D01*
X-17071Y-180185D01*
X-16962Y-179638D01*
X-17071Y-179092D01*
X-17381Y-178629D01*
X-17844Y-178320D01*
X-18390Y-178211D01*
X-18936Y-178320D01*
X-19399Y-178629D01*
X-19709Y-179092D01*
X-19778Y-179440D01*
X-24216Y-183878D01*
X-30391D01*
X-30582Y-183416D01*
X-28192Y-181026D01*
X-27844Y-180957D01*
X-27381Y-180648D01*
X-27071Y-180185D01*
X-26963Y-179638D01*
X-27071Y-179092D01*
X-27381Y-178629D01*
X-27844Y-178320D01*
X-28390Y-178211D01*
X-28936Y-178320D01*
X-29399Y-178629D01*
X-29709Y-179092D01*
X-29778Y-179440D01*
X-32616Y-182278D01*
X-38791D01*
X-38982Y-181816D01*
X-38192Y-181026D01*
X-37844Y-180957D01*
X-37381Y-180648D01*
X-37071Y-180185D01*
X-36963Y-179638D01*
X-37071Y-179092D01*
X-37381Y-178629D01*
X-37844Y-178320D01*
X-38390Y-178211D01*
X-38936Y-178320D01*
X-39399Y-178629D01*
X-39709Y-179092D01*
X-39778Y-179440D01*
X-41016Y-180678D01*
X-46235D01*
X-71015Y-155899D01*
X-70655Y-155030D01*
X-70520Y-154000D01*
X-70655Y-152970D01*
X-71053Y-152010D01*
X-71685Y-151185D01*
X-72510Y-150553D01*
X-73470Y-150155D01*
X-74500Y-150020D01*
D02*
G37*
G36*
X157947Y-182053D02*
X150054D01*
Y-189946D01*
X157947D01*
Y-182053D01*
D02*
G37*
G36*
X100578Y-189514D02*
Y-190750D01*
X101814D01*
X101774Y-190548D01*
X101376Y-189952D01*
X100781Y-189555D01*
X100578Y-189514D01*
D02*
G37*
G36*
X99578D02*
X99376Y-189555D01*
X98781Y-189952D01*
X98383Y-190548D01*
X98343Y-190750D01*
X99578D01*
Y-189514D01*
D02*
G37*
G36*
X101814Y-191750D02*
X100578D01*
Y-192986D01*
X100781Y-192946D01*
X101376Y-192548D01*
X101774Y-191953D01*
X101814Y-191750D01*
D02*
G37*
G36*
X99578D02*
X98343D01*
X98383Y-191953D01*
X98781Y-192548D01*
X99376Y-192946D01*
X99578Y-192986D01*
Y-191750D01*
D02*
G37*
G36*
X-14500Y-195128D02*
Y-196364D01*
X-13264D01*
X-13304Y-196161D01*
X-13702Y-195566D01*
X-14298Y-195168D01*
X-14500Y-195128D01*
D02*
G37*
G36*
X-15500D02*
X-15702Y-195168D01*
X-16298Y-195566D01*
X-16696Y-196161D01*
X-16736Y-196364D01*
X-15500D01*
Y-195128D01*
D02*
G37*
G36*
X-13264Y-197364D02*
X-14500D01*
Y-198600D01*
X-14298Y-198559D01*
X-13702Y-198161D01*
X-13304Y-197566D01*
X-13264Y-197364D01*
D02*
G37*
G36*
X-15500D02*
X-16736D01*
X-16696Y-197566D01*
X-16298Y-198161D01*
X-15702Y-198559D01*
X-15500Y-198600D01*
Y-197364D01*
D02*
G37*
G36*
X-4382Y-198494D02*
Y-199730D01*
X-3146D01*
X-3186Y-199528D01*
X-3584Y-198932D01*
X-4180Y-198535D01*
X-4382Y-198494D01*
D02*
G37*
G36*
X-5382D02*
X-5584Y-198535D01*
X-6180Y-198932D01*
X-6577Y-199528D01*
X-6618Y-199730D01*
X-5382D01*
Y-198494D01*
D02*
G37*
G36*
X-3146Y-200730D02*
X-4382D01*
Y-201966D01*
X-4180Y-201926D01*
X-3584Y-201528D01*
X-3186Y-200932D01*
X-3146Y-200730D01*
D02*
G37*
G36*
X-5382D02*
X-6618D01*
X-6577Y-200932D01*
X-6180Y-201528D01*
X-5584Y-201926D01*
X-5382Y-201966D01*
Y-200730D01*
D02*
G37*
G36*
X48212Y-201825D02*
Y-203061D01*
X49447D01*
X49407Y-202858D01*
X49009Y-202263D01*
X48414Y-201865D01*
X48212Y-201825D01*
D02*
G37*
G36*
X47212D02*
X47009Y-201865D01*
X46414Y-202263D01*
X46016Y-202858D01*
X45976Y-203061D01*
X47212D01*
Y-201825D01*
D02*
G37*
G36*
X49447Y-204061D02*
X48212D01*
Y-205297D01*
X48414Y-205256D01*
X49009Y-204859D01*
X49407Y-204263D01*
X49447Y-204061D01*
D02*
G37*
G36*
X47212D02*
X45976D01*
X46016Y-204263D01*
X46414Y-204859D01*
X47009Y-205256D01*
X47212Y-205297D01*
Y-204061D01*
D02*
G37*
G36*
X122126Y-203916D02*
X121199Y-204038D01*
X120335Y-204396D01*
X119592Y-204966D01*
X119023Y-205708D01*
X118665Y-206572D01*
X118543Y-207500D01*
X118665Y-208427D01*
X119023Y-209291D01*
X119592Y-210033D01*
X120335Y-210603D01*
X121199Y-210961D01*
X122126Y-211083D01*
X123054Y-210961D01*
X123918Y-210603D01*
X124660Y-210033D01*
X125230Y-209291D01*
X125588Y-208427D01*
X125710Y-207500D01*
X125588Y-206572D01*
X125230Y-205708D01*
X124660Y-204966D01*
X123918Y-204396D01*
X123054Y-204038D01*
X122126Y-203916D01*
D02*
G37*
G36*
X130000Y-203917D02*
X129073Y-204039D01*
X128208Y-204397D01*
X127466Y-204966D01*
X126897Y-205708D01*
X126539Y-206573D01*
X126417Y-207500D01*
X126539Y-208427D01*
X126897Y-209292D01*
X127466Y-210034D01*
X128208Y-210603D01*
X129073Y-210961D01*
X130000Y-211083D01*
X130927Y-210961D01*
X131792Y-210603D01*
X132534Y-210034D01*
X133103Y-209292D01*
X133461Y-208427D01*
X133583Y-207500D01*
X133461Y-206573D01*
X133103Y-205708D01*
X132534Y-204966D01*
X131792Y-204397D01*
X130927Y-204039D01*
X130000Y-203917D01*
D02*
G37*
G36*
X149104Y-200994D02*
X143180D01*
Y-214005D01*
X149104D01*
Y-200994D01*
D02*
G37*
G36*
X116821D02*
X110896D01*
Y-214005D01*
X116821D01*
Y-200994D01*
D02*
G37*
%LPD*%
G36*
X74365Y-102704D02*
X74365Y-102704D01*
X74729Y-102947D01*
X75086Y-103018D01*
X75036Y-103518D01*
X73053D01*
Y-109789D01*
X72592Y-109980D01*
X69771Y-107159D01*
X69407Y-106916D01*
X68977Y-106831D01*
X68977Y-106831D01*
X59222D01*
X55599Y-103207D01*
X55599Y-103207D01*
X55235Y-102964D01*
X54806Y-102878D01*
X54806Y-102878D01*
X45017D01*
X44962Y-102813D01*
X44796Y-102378D01*
X45018Y-102046D01*
X45127Y-101500D01*
X45018Y-100954D01*
X44864Y-100723D01*
X46465Y-99122D01*
X57699D01*
X57966Y-99622D01*
X57792Y-99882D01*
X57751Y-100085D01*
X61223D01*
X61183Y-99882D01*
X61009Y-99622D01*
X61276Y-99122D01*
X70783D01*
X74365Y-102704D01*
D02*
G37*
G36*
X70818Y-115904D02*
X70818Y-115904D01*
X71182Y-116147D01*
X71611Y-116233D01*
X71611Y-116233D01*
X78384D01*
X80000Y-117849D01*
Y-139364D01*
X73864Y-145500D01*
X47000D01*
X43000Y-141500D01*
Y-128000D01*
X43874Y-127126D01*
X44000D01*
Y-122500D01*
X46000Y-120500D01*
X48028D01*
X48906Y-119622D01*
X51434D01*
X51729Y-119819D01*
X52276Y-119927D01*
X52822Y-119819D01*
X53285Y-119509D01*
X53594Y-119046D01*
X53703Y-118500D01*
X53594Y-117954D01*
X53431Y-117710D01*
X53629Y-117185D01*
X53951Y-117117D01*
X53954Y-117119D01*
X54500Y-117227D01*
X55046Y-117119D01*
X55183Y-117027D01*
X65473D01*
X65500Y-117000D01*
Y-112622D01*
X67535D01*
X70818Y-115904D01*
D02*
G37*
%LPC*%
G36*
X61223Y-101085D02*
X59987D01*
Y-102321D01*
X60189Y-102280D01*
X60785Y-101882D01*
X61183Y-101287D01*
X61223Y-101085D01*
D02*
G37*
G36*
X58987D02*
X57751D01*
X57792Y-101287D01*
X58189Y-101882D01*
X58785Y-102280D01*
X58987Y-102321D01*
Y-101085D01*
D02*
G37*
G36*
X71644Y-117944D02*
Y-119180D01*
X72879D01*
X72839Y-118978D01*
X72441Y-118382D01*
X71846Y-117984D01*
X71644Y-117944D01*
D02*
G37*
G36*
X70644D02*
X70441Y-117984D01*
X69846Y-118382D01*
X69448Y-118978D01*
X69408Y-119180D01*
X70644D01*
Y-117944D01*
D02*
G37*
G36*
X72879Y-120180D02*
X71644D01*
Y-121416D01*
X71846Y-121376D01*
X72441Y-120978D01*
X72839Y-120382D01*
X72879Y-120180D01*
D02*
G37*
G36*
X70644D02*
X69408D01*
X69448Y-120382D01*
X69846Y-120978D01*
X70441Y-121376D01*
X70644Y-121416D01*
Y-120180D01*
D02*
G37*
G36*
X62063Y-126127D02*
X61517Y-126235D01*
X61054Y-126545D01*
X60744Y-127008D01*
X60636Y-127554D01*
X60744Y-128100D01*
X61054Y-128563D01*
X61517Y-128873D01*
X62063Y-128981D01*
X62609Y-128873D01*
X63072Y-128563D01*
X63382Y-128100D01*
X63490Y-127554D01*
X63382Y-127008D01*
X63072Y-126545D01*
X62609Y-126235D01*
X62063Y-126127D01*
D02*
G37*
G36*
X52500Y-135790D02*
Y-137026D01*
X53736D01*
X53696Y-136824D01*
X53298Y-136228D01*
X52702Y-135830D01*
X52500Y-135790D01*
D02*
G37*
G36*
X51500D02*
X51298Y-135830D01*
X50702Y-136228D01*
X50304Y-136824D01*
X50264Y-137026D01*
X51500D01*
Y-135790D01*
D02*
G37*
G36*
X53736Y-138026D02*
X52500D01*
Y-139262D01*
X52702Y-139222D01*
X53298Y-138824D01*
X53696Y-138228D01*
X53736Y-138026D01*
D02*
G37*
G36*
X51500D02*
X50264D01*
X50304Y-138228D01*
X50702Y-138824D01*
X51298Y-139222D01*
X51500Y-139262D01*
Y-138026D01*
D02*
G37*
%LPD*%
D11*
X115423Y-165364D02*
X118059Y-168000D01*
X51838Y-165364D02*
X115423D01*
X13600Y-127126D02*
X51838Y-165364D01*
X-41162Y-143300D02*
X-38500Y-140638D01*
X-48412Y-143300D02*
X-41162D01*
X-65900Y-125812D02*
X-48412Y-143300D01*
X-65900Y-125812D02*
Y-102600D01*
X-74500Y-94000D02*
X-65900Y-102600D01*
X-74500Y-114000D02*
X-69263Y-119237D01*
Y-126974D02*
Y-119237D01*
Y-126974D02*
X-49737Y-146500D01*
X-49075Y-144900D02*
X-32762D01*
X-67500Y-126474D02*
X-49075Y-144900D01*
X-67500Y-126474D02*
Y-113000D01*
X-49737Y-146500D02*
X-24362D01*
X-74500Y-106000D02*
X-67500Y-113000D01*
X-74500Y-116500D02*
Y-114000D01*
Y-106000D02*
Y-104000D01*
X-32762Y-144900D02*
X-28500Y-140638D01*
X-24362Y-146500D02*
X-18500Y-140638D01*
X-28089Y-148300D02*
X-23500Y-152889D01*
X-50200Y-148300D02*
X-28089D01*
X-74500Y-124000D02*
X-50200Y-148300D01*
X-36489Y-149900D02*
X-33500Y-152889D01*
X-58600Y-149900D02*
X-36489D01*
X-74500Y-134000D02*
X-58600Y-149900D01*
X-44889Y-151500D02*
X-43500Y-152889D01*
X-67000Y-151500D02*
X-44889D01*
X-74500Y-144000D02*
X-67000Y-151500D01*
X-40552Y-181800D02*
X-38390Y-179638D01*
X-46700Y-181800D02*
X-40552D01*
X-74500Y-154000D02*
X-46700Y-181800D01*
X-32152Y-183400D02*
X-28390Y-179638D01*
X-55100Y-183400D02*
X-32152D01*
X-74500Y-164000D02*
X-55100Y-183400D01*
X-23752Y-185000D02*
X-18390Y-179638D01*
X-63500Y-185000D02*
X-23752D01*
X-74500Y-174000D02*
X-63500Y-185000D01*
X-36879Y-188400D02*
X-33390Y-191889D01*
X-68900Y-188400D02*
X-36879D01*
X-74500Y-194000D02*
X-68900Y-188400D01*
X-28479Y-186800D02*
X-23390Y-191889D01*
X-68963Y-186800D02*
X-28479D01*
X-69263Y-186500D02*
X-68963Y-186800D01*
X-72000Y-186500D02*
X-69263D01*
X-74500Y-184000D02*
X-72000Y-186500D01*
X-45279Y-190000D02*
X-43390Y-191889D01*
X-60500Y-190000D02*
X-45279D01*
X-74500Y-204000D02*
X-60500Y-190000D01*
X-53500Y-102000D02*
X-48000D01*
X-71500Y-84000D02*
X-53500Y-102000D01*
X-74500Y-84000D02*
X-71500D01*
X-67500Y-49000D02*
X-46500Y-70000D01*
X-76000Y-49000D02*
X-67500D01*
X-78947Y-51947D02*
X-76000Y-49000D01*
X-78947Y-59447D02*
Y-51947D01*
X-76500Y-89000D02*
X-69000D01*
X-78947Y-86554D02*
X-76500Y-89000D01*
X-78947Y-86554D02*
Y-78447D01*
X-69000Y-89000D02*
X-54000Y-104000D01*
X-46500D01*
X-78947Y-78447D02*
X-74500Y-74000D01*
X-79000Y-59500D02*
X-78947Y-59447D01*
X-79000Y-59500D02*
X-74500Y-64000D01*
X-65500Y-54000D02*
X-47500Y-72000D01*
X-74500Y-54000D02*
X-65500D01*
X13600Y-127126D02*
Y-114675D01*
X22275Y-106000D01*
X7200Y-109940D02*
X16447Y-100693D01*
X7200Y-139475D02*
Y-109940D01*
Y-139475D02*
X28089Y-160364D01*
X8800Y-111124D02*
X16858Y-103066D01*
X8800Y-136051D02*
Y-111124D01*
Y-136051D02*
X27979Y-155230D01*
X10400Y-112308D02*
X19500Y-103208D01*
X10400Y-132785D02*
Y-112308D01*
Y-132785D02*
X27979Y-150364D01*
X12000Y-113492D02*
X19797Y-105694D01*
X12000Y-129364D02*
Y-113492D01*
Y-129364D02*
X28000Y-145364D01*
X54806Y-104000D02*
X58758Y-107952D01*
X40503Y-104000D02*
X54806D01*
X36000Y-99497D02*
X40503Y-104000D01*
X53979Y-106309D02*
X54076D01*
X99839Y-97339D02*
X100000Y-97500D01*
X95374Y-97339D02*
X99839D01*
X80802Y-111911D02*
X95374Y-97339D01*
X72936Y-111911D02*
X80802D01*
X107500Y-99000D02*
Y-78441D01*
X104000Y-102500D02*
X107500Y-99000D01*
X110000Y-130500D02*
Y-81674D01*
X97770Y-142730D02*
X110000Y-130500D01*
X107500Y-78441D02*
X110000Y-75941D01*
Y-81674D02*
X130750Y-60924D01*
X57667Y-109900D02*
X68663D01*
X54076Y-106309D02*
X57667Y-109900D01*
X68663D02*
X72274Y-113511D01*
X71611Y-115111D02*
X78848D01*
X68000Y-111500D02*
X71611Y-115111D01*
X56483Y-111500D02*
X68000D01*
X53500Y-108517D02*
X56483Y-111500D01*
X58758Y-107952D02*
X68977D01*
X78848Y-115111D02*
X87500Y-123763D01*
X72274Y-113511D02*
X79511D01*
X68977Y-107952D02*
X72936Y-111911D01*
X46000Y-98000D02*
X71247D01*
X81512Y-101911D02*
X93329Y-90095D01*
X75158Y-101911D02*
X81512D01*
X71247Y-98000D02*
X75158Y-101911D01*
X36000Y-99497D02*
Y-91017D01*
X29512Y-84528D02*
X36000Y-91017D01*
X43699Y-101500D02*
Y-100301D01*
X79511Y-113511D02*
X89100Y-123100D01*
X44500Y-114500D02*
X48500Y-118500D01*
X52276D01*
X49759Y-115800D02*
X54500D01*
X44500Y-114500D02*
Y-111000D01*
X36000Y-102500D02*
X44500Y-111000D01*
X34000Y-102500D02*
X36000D01*
X48028Y-114068D02*
X49759Y-115800D01*
X46023Y-95000D02*
X71000D01*
X41500Y-99523D02*
X46023Y-95000D01*
X41500Y-102085D02*
Y-99523D01*
X43699Y-100301D02*
X46000Y-98000D01*
X83670Y-92500D02*
X86500Y-89670D01*
X73500Y-92500D02*
X83670D01*
X71000Y-95000D02*
X73500Y-92500D01*
X86500Y-78924D02*
X93329Y-72095D01*
X86500Y-89670D02*
Y-78924D01*
X87500Y-144730D02*
Y-123763D01*
X89100Y-140330D02*
Y-123100D01*
X115500Y-130000D02*
Y-106034D01*
X144250Y-77284D01*
X96770Y-148730D02*
X115500Y-130000D01*
X91500Y-148730D02*
X96770D01*
X91500Y-142730D02*
X97770D01*
X144250Y-77284D02*
Y-68924D01*
X89100Y-140330D02*
X91500Y-142730D01*
X87500Y-144730D02*
X91500Y-148730D01*
X70500Y-92000D02*
Y-87813D01*
X72500Y-90095D02*
Y-87000D01*
X75465Y-97465D02*
X77000D01*
X130750Y-61963D02*
Y-60924D01*
X52740Y-92000D02*
X67600D01*
X52500D02*
X52740D01*
X65855Y-89822D02*
X67178Y-88500D01*
X61000Y-89822D02*
X65855D01*
X53000Y-67000D02*
X56500Y-63500D01*
X59411Y-80000D02*
X62687D01*
X70500Y-87813D01*
X62965Y-77465D02*
X72500Y-87000D01*
X57856Y-81555D02*
X59411Y-80000D01*
X59163Y-77465D02*
X62965D01*
X65400Y-75865D02*
X77000Y-87465D01*
X57979Y-75865D02*
X65400D01*
X55074Y-78769D02*
X57979Y-75865D01*
X73435Y-73900D02*
X77000Y-77465D01*
X57159Y-73900D02*
X73435D01*
X55059Y-76000D02*
X57159Y-73900D01*
X58000Y-78627D02*
X59163Y-77465D01*
X52276Y-76000D02*
X60811Y-67465D01*
X77000D01*
X15942Y-117500D02*
X19691Y-113751D01*
X-14197Y-71555D02*
X-10566Y-75186D01*
X-27246Y-71555D02*
X-14197D01*
D13*
X118500Y-125805D02*
X118695D01*
X122589Y-121911D01*
X136604D01*
X141328Y-126636D01*
X-13400Y-104500D02*
X-12397Y-103497D01*
X-25830Y-104500D02*
X-13400D01*
X-27246Y-103085D02*
X-25830Y-104500D01*
D31*
X53000Y-67000D02*
D03*
X49381Y-70619D02*
D03*
X19691Y-113751D02*
D03*
X23310Y-110132D02*
D03*
D89*
X-4500Y-100300D02*
X1171Y-105971D01*
X781Y-121731D02*
X1171Y-105971D01*
X83634Y-138866D02*
Y-128000D01*
X70916Y-151584D02*
X83634Y-138866D01*
X52000Y-151584D02*
X70916D01*
D90*
X77000Y-107465D02*
D03*
X154000Y-186000D02*
D03*
X-74500Y-204000D02*
D03*
D91*
X77000Y-97465D02*
D03*
Y-87465D02*
D03*
Y-77465D02*
D03*
Y-67465D02*
D03*
Y-57465D02*
D03*
Y-47465D02*
D03*
X66000Y-47500D02*
D03*
X56000D02*
D03*
X46000D02*
D03*
X154000Y-176000D02*
D03*
X-74500Y-74000D02*
D03*
Y-94000D02*
D03*
Y-134000D02*
D03*
Y-144000D02*
D03*
Y-164000D02*
D03*
Y-194000D02*
D03*
Y-184000D02*
D03*
Y-174000D02*
D03*
Y-154000D02*
D03*
Y-124000D02*
D03*
Y-114000D02*
D03*
Y-104000D02*
D03*
Y-84000D02*
D03*
Y-64000D02*
D03*
Y-54000D02*
D03*
D92*
X36000Y-47500D02*
D03*
D93*
X146142Y-207500D02*
D03*
X113859D02*
D03*
D94*
X130000Y-207500D02*
D03*
X122126Y-207500D02*
D03*
D95*
X151998Y-150454D02*
D03*
Y-121911D02*
D03*
D96*
X141328Y-126636D02*
D03*
Y-145730D02*
D03*
D97*
X47712Y-203561D02*
D03*
X100078Y-191250D02*
D03*
X100712Y-169307D02*
D03*
X-38500Y-140638D02*
D03*
X-28500D02*
D03*
X-18500D02*
D03*
X-23500Y-152889D02*
D03*
X-33500D02*
D03*
X-43500D02*
D03*
X-38390Y-179638D02*
D03*
X-28390D02*
D03*
X-18390D02*
D03*
X-23390Y-191889D02*
D03*
X-33390D02*
D03*
X-43390D02*
D03*
X-46500Y-104000D02*
D03*
X-48000Y-102000D02*
D03*
X-47500Y-72000D02*
D03*
X-46500Y-70000D02*
D03*
Y-127000D02*
D03*
X49852Y-177841D02*
D03*
X118059Y-168000D02*
D03*
X52000Y-137526D02*
D03*
X781Y-121731D02*
D03*
X53979Y-106309D02*
D03*
X100000Y-97500D02*
D03*
X43699Y-101500D02*
D03*
X29512Y-84528D02*
D03*
X104000Y-102500D02*
D03*
X110000Y-75941D02*
D03*
X1500Y-71500D02*
D03*
X-4500Y-100300D02*
D03*
X52276Y-118500D02*
D03*
X34000Y-102500D02*
D03*
X54500Y-115800D02*
D03*
X48028Y-114068D02*
D03*
X93329Y-72095D02*
D03*
Y-90095D02*
D03*
X41500Y-102085D02*
D03*
X91500Y-148730D02*
D03*
Y-142730D02*
D03*
X70500Y-92000D02*
D03*
X72500Y-90095D02*
D03*
X130750Y-60924D02*
D03*
X144250Y-68924D02*
D03*
X47000Y-56734D02*
D03*
X99424Y-105424D02*
D03*
X22275Y-106000D02*
D03*
X16447Y-100693D02*
D03*
X16858Y-103066D02*
D03*
X19500Y-103208D02*
D03*
X19797Y-105694D02*
D03*
X28089Y-160364D02*
D03*
X27979Y-155230D02*
D03*
Y-150364D02*
D03*
X28000Y-145364D02*
D03*
X83634Y-128000D02*
D03*
X52000Y-151584D02*
D03*
X-53000Y-95824D02*
D03*
Y-77922D02*
D03*
X20500Y-124400D02*
D03*
X-14666Y-157864D02*
D03*
X-15000Y-196864D02*
D03*
X-4882Y-200230D02*
D03*
X67619Y-92000D02*
D03*
X52740D02*
D03*
X67178Y-88500D02*
D03*
X56500Y-63500D02*
D03*
X61000Y-89822D02*
D03*
X59487Y-100585D02*
D03*
X57856Y-81555D02*
D03*
X55059Y-76000D02*
D03*
X58000Y-78627D02*
D03*
X52276Y-76000D02*
D03*
X118500Y-125805D02*
D03*
X15942Y-117500D02*
D03*
X33393Y-62593D02*
D03*
X89000Y-114229D02*
D03*
X97000Y-51000D02*
D03*
X89000D02*
D03*
X112769D02*
D03*
X144250Y-114420D02*
D03*
X128500Y-114000D02*
D03*
X136500Y-51000D02*
D03*
X144250D02*
D03*
X-12397Y-103497D02*
D03*
X-27246Y-103085D02*
D03*
X-10566Y-75186D02*
D03*
X-27246Y-71555D02*
D03*
X53500Y-108517D02*
D03*
X49500Y-70500D02*
D03*
X55074Y-78769D02*
D03*
X23500Y-110000D02*
D03*
X71144Y-119680D02*
D03*
X62063Y-127554D02*
D03*
D98*
X125748Y-81632D02*
D03*
D99*
X89132Y-50922D02*
D03*
X97006Y-50924D02*
D03*
X104880Y-50920D02*
D03*
X112754Y-50923D02*
D03*
X120628Y-50920D02*
D03*
X128502Y-50916D02*
D03*
X136376Y-50922D02*
D03*
X144250Y-50924D02*
D03*
X89132Y-113920D02*
D03*
X97006Y-113924D02*
D03*
X104880Y-113921D02*
D03*
X120628Y-113921D02*
D03*
X128502Y-113917D02*
D03*
X136376Y-113921D02*
D03*
X144250Y-113924D02*
D03*
M02*
