G04*
G04 #@! TF.GenerationSoftware,Altium Limited,Altium Designer,18.1.9 (240)*
G04*
G04 Layer_Color=65535*
%FSLAX25Y25*%
%MOIN*%
G70*
G01*
G75*
%ADD10C,0.00984*%
%ADD11C,0.01000*%
%ADD12C,0.01968*%
%ADD13C,0.02000*%
%ADD14C,0.00787*%
%ADD15C,0.00800*%
%ADD16C,0.00600*%
%ADD17C,0.00700*%
%ADD18C,0.00394*%
%ADD19C,0.00400*%
D10*
X69346Y-117711D02*
G03*
X69346Y-117711I-394J0D01*
G01*
X112273Y-122557D02*
G03*
X112273Y-122557I-492J0D01*
G01*
X61500Y-172720D02*
G03*
X61500Y-172720I-492J0D01*
G01*
X62020Y-204588D02*
G03*
X62020Y-204588I-492J0D01*
G01*
X-51408Y-157856D02*
G03*
X-51408Y-157856I-492J0D01*
G01*
X-51298Y-196856D02*
G03*
X-51298Y-196856I-492J0D01*
G01*
D11*
X121000Y-183500D02*
G03*
X123748Y-183138I1299J750D01*
G01*
X121000Y-183500D02*
G03*
X118252Y-183862I-1299J-750D01*
G01*
X12000Y-137864D02*
G03*
X18000Y-137864I3000J0D01*
G01*
X-36736Y-99300D02*
G03*
X-36736Y-99300I-510J0D01*
G01*
X-50700Y-149564D02*
G03*
X-50793Y-143965I0J2800D01*
G01*
X-50590Y-188564D02*
G03*
X-50683Y-182965I0J2800D01*
G01*
X43000Y-141500D02*
X47000Y-145500D01*
X73852D01*
X80000Y-139352D01*
Y-115500D01*
X73563D02*
X80000D01*
X69804Y-111741D02*
X73563Y-115500D01*
X65500Y-111741D02*
X69804D01*
X65500Y-116802D02*
Y-111741D01*
X65302Y-117000D02*
X65500Y-116802D01*
X51673Y-117000D02*
X65302D01*
X48173Y-120500D02*
X51673Y-117000D01*
X45791Y-120500D02*
X48173D01*
X44000Y-122291D02*
X45791Y-120500D01*
X44000Y-127000D02*
Y-122291D01*
X43000Y-128000D02*
X44000Y-127000D01*
X43000Y-141500D02*
Y-128000D01*
X140659Y-100480D02*
Y-97600D01*
X115856Y-100480D02*
Y-97600D01*
X140659Y-88800D02*
Y-85520D01*
X115856Y-88800D02*
Y-85520D01*
Y-100480D02*
X140659D01*
X115856Y-85520D02*
X140659D01*
X135500Y-90900D02*
Y-88000D01*
X121500D02*
X135500D01*
X121500Y-90900D02*
Y-88000D01*
X125500Y-97000D02*
X131400D01*
X128500Y-95000D02*
Y-92400D01*
Y-90600D02*
Y-88000D01*
X127500Y-188000D02*
X131500D01*
Y-179000D01*
X127500D02*
X131500D01*
X112000D02*
X121000D01*
Y-188000D02*
X130000D01*
X110500D02*
X114500D01*
X110500D02*
Y-179000D01*
X114500D01*
X-74500Y-129000D02*
X33000D01*
X-51900Y-155486D02*
X-51500Y-56000D01*
X-51900Y-196997D02*
Y-155486D01*
X-66150Y-185350D02*
X-66000Y-74248D01*
X22465Y-91646D02*
X38021Y-76090D01*
X53578Y-91646D01*
X38021Y-107203D02*
X53578Y-91646D01*
X22465D02*
X38021Y-107203D01*
X148700Y-70724D02*
Y-67124D01*
X147000Y-65424D02*
X148700Y-67124D01*
X141750Y-65424D02*
X147000D01*
X141750Y-72424D02*
X147000D01*
X148700Y-70724D01*
X139060Y-72234D02*
Y-65754D01*
X126750Y-72424D02*
Y-65424D01*
Y-72424D02*
X133250D01*
X126750Y-65424D02*
X133250D01*
X135860Y-65874D02*
X139060Y-69074D01*
X135860Y-72044D02*
Y-65874D01*
Y-72044D02*
X138900Y-69004D01*
X148700Y-62724D02*
Y-59124D01*
X147000Y-57424D02*
X148700Y-59124D01*
X141750Y-57424D02*
X147000D01*
X141750Y-64424D02*
X147000D01*
X148700Y-62724D01*
X139060Y-64234D02*
Y-57754D01*
X126750Y-64424D02*
Y-57424D01*
Y-64424D02*
X133250D01*
X126750Y-57424D02*
X133250D01*
X135860Y-57874D02*
X139060Y-61074D01*
X135860Y-64044D02*
Y-57874D01*
Y-64044D02*
X138900Y-61004D01*
X18000Y-137864D02*
X28000D01*
X2000D02*
X12000D01*
X28000Y-197864D02*
Y-137864D01*
X2000Y-197864D02*
Y-137864D01*
Y-197864D02*
X28000D01*
X-39325Y-69100D02*
Y-65500D01*
Y-69100D02*
X-37626Y-70800D01*
X-32375D01*
X-37626Y-63800D02*
X-32375D01*
X-39325Y-65500D02*
X-37626Y-63800D01*
X-29686Y-70470D02*
Y-63990D01*
X-17376Y-70800D02*
Y-63800D01*
X-23876D02*
X-17376D01*
X-23876Y-70800D02*
X-17376D01*
X-29686Y-67150D02*
X-26485Y-70350D01*
Y-64180D01*
X-29526Y-67220D02*
X-26485Y-64180D01*
X-15676Y-61100D02*
Y-57500D01*
X-17376Y-55800D02*
X-15676Y-57500D01*
X-22625Y-55800D02*
X-17376D01*
X-22625Y-62800D02*
X-17376D01*
X-15676Y-61100D01*
X-25315Y-62610D02*
Y-56130D01*
X-37626Y-62800D02*
Y-55800D01*
Y-62800D02*
X-31126D01*
X-37626Y-55800D02*
X-31126D01*
X-28515Y-56250D02*
X-25315Y-59450D01*
X-28515Y-62420D02*
Y-56250D01*
Y-62420D02*
X-25475Y-59380D01*
X-39325Y-108222D02*
Y-104622D01*
Y-108222D02*
X-37626Y-109922D01*
X-32375D01*
X-37626Y-102922D02*
X-32375D01*
X-39325Y-104622D02*
X-37626Y-102922D01*
X-29686Y-109592D02*
Y-103112D01*
X-17376Y-109922D02*
Y-102922D01*
X-23876D02*
X-17376D01*
X-23876Y-109922D02*
X-17376D01*
X-29686Y-106272D02*
X-26485Y-109472D01*
Y-103302D01*
X-29526Y-106342D02*
X-26485Y-103302D01*
X-16420Y-116100D02*
Y-112500D01*
X-18120Y-110800D02*
X-16420Y-112500D01*
X-23370Y-110800D02*
X-18120D01*
X-23370Y-117800D02*
X-18120D01*
X-16420Y-116100D01*
X-26060Y-117610D02*
Y-111130D01*
X-38370Y-117800D02*
Y-110800D01*
Y-117800D02*
X-31870D01*
X-38370Y-110800D02*
X-31870D01*
X-29260Y-111250D02*
X-26060Y-114450D01*
X-29260Y-117420D02*
Y-111250D01*
Y-117420D02*
X-26220Y-114380D01*
X-51023Y-143964D02*
Y-140660D01*
Y-152668D02*
Y-149666D01*
X-16377Y-152668D02*
Y-140660D01*
X-51023D02*
X-16377D01*
X-51023Y-152668D02*
X-16377D01*
X-50913Y-182964D02*
Y-179660D01*
Y-191668D02*
Y-188666D01*
X-16267Y-191668D02*
Y-179660D01*
X-50913D02*
X-16267D01*
X-50913Y-191668D02*
X-16267D01*
D12*
X39006Y-81747D02*
G03*
X39006Y-81747I-984J0D01*
G01*
X-4392Y-133864D02*
G03*
X-4392Y-133864I-608J0D01*
G01*
D13*
X37238Y-69372D02*
G03*
X37238Y-69372I-984J0D01*
G01*
D14*
X119460Y-123634D02*
G03*
X123197Y-123634I1868J-3D01*
G01*
X-36588Y-88794D02*
G03*
X-36588Y-84806I-157J1994D01*
G01*
X72000Y-42465D02*
X82000D01*
Y-112465D02*
Y-42465D01*
X72000Y-112465D02*
Y-42465D01*
Y-112465D02*
X82000D01*
X31000Y-52500D02*
Y-42500D01*
X71000D01*
X31000Y-52500D02*
X71000D01*
Y-42500D01*
X116028Y-162990D02*
Y-123620D01*
X126728Y-162990D02*
Y-123620D01*
X116028Y-162990D02*
X126728D01*
X116028Y-123620D02*
X119428D01*
X123197D02*
X126728D01*
X87189Y-167405D02*
Y-155594D01*
X60811Y-167405D02*
Y-155594D01*
X87189D01*
X60811Y-167405D02*
X87189D01*
X89020Y-185500D02*
X90320Y-186800D01*
X95720D01*
X89020Y-185500D02*
Y-179000D01*
X95720Y-186800D02*
X97020Y-185500D01*
Y-179000D01*
X89020Y-172500D02*
Y-165500D01*
X97020D01*
Y-172500D02*
Y-165500D01*
X58200Y-154700D02*
X59500Y-156000D01*
X52800Y-154700D02*
X58200D01*
X59500Y-162500D02*
Y-156000D01*
X51500D02*
X52800Y-154700D01*
X51500Y-162500D02*
Y-156000D01*
X59500Y-176000D02*
Y-169000D01*
X51500Y-176000D02*
X59500D01*
X51500D02*
Y-169000D01*
X58720Y-186068D02*
X60020Y-187368D01*
X53320Y-186068D02*
X58720D01*
X60020Y-193868D02*
Y-187368D01*
X52020D02*
X53320Y-186068D01*
X52020Y-193868D02*
Y-187368D01*
X60020Y-207368D02*
Y-200368D01*
X52020Y-207368D02*
X60020D01*
X52020D02*
Y-200368D01*
X89020Y-207443D02*
X90320Y-208743D01*
X95720D01*
X89020Y-207443D02*
Y-200943D01*
X95720Y-208743D02*
X97020Y-207443D01*
Y-200943D01*
X89020Y-194443D02*
Y-187443D01*
X97020D01*
Y-194443D02*
Y-187443D01*
X87709Y-199274D02*
Y-187462D01*
X61331Y-199274D02*
Y-187462D01*
X87709D01*
X61331Y-199274D02*
X87709D01*
X-14566Y-96800D02*
X-13266Y-98100D01*
X-7866D01*
X-14566Y-96800D02*
Y-90300D01*
X-7866Y-98100D02*
X-6566Y-96800D01*
Y-90300D01*
X-14566Y-83800D02*
Y-76800D01*
X-6566D01*
Y-83800D02*
Y-76800D01*
X-36746Y-92800D02*
X-17745D01*
X-36746D02*
Y-88800D01*
Y-84800D02*
Y-80800D01*
X-17745D01*
Y-92800D02*
Y-80800D01*
D15*
X131677Y-175559D02*
Y-170441D01*
X121441Y-175559D02*
X131677D01*
X121441D02*
Y-170441D01*
X131677D01*
X120618Y-175559D02*
Y-170441D01*
X110382Y-175559D02*
X120618D01*
X110382D02*
Y-170441D01*
X120618D01*
X93710Y-86732D02*
Y-81614D01*
X103946D01*
Y-86732D02*
Y-81614D01*
X93710Y-86732D02*
X103946D01*
X93710Y-80732D02*
Y-75614D01*
X103946D01*
Y-80732D02*
Y-75614D01*
X93710Y-80732D02*
X103946D01*
X88729Y-69295D02*
X89729D01*
X88729Y-74895D02*
Y-69295D01*
Y-74895D02*
X89729D01*
X89829Y-69295D02*
X95129D01*
X89729Y-74695D02*
Y-69295D01*
Y-74895D02*
X95129D01*
X98529Y-69295D02*
X103929D01*
Y-69495D02*
Y-69295D01*
Y-74895D02*
Y-69495D01*
X103829Y-74895D02*
X103929D01*
X98529D02*
X103829D01*
X88729Y-87295D02*
X89729D01*
X88729Y-92895D02*
Y-87295D01*
Y-92895D02*
X89729D01*
X89829Y-87295D02*
X95129D01*
X89729Y-92695D02*
Y-87295D01*
Y-92895D02*
X95129D01*
X98529Y-87295D02*
X103929D01*
Y-87495D02*
Y-87295D01*
Y-92895D02*
Y-87495D01*
X103829Y-92895D02*
X103929D01*
X98529D02*
X103829D01*
X127118Y-84059D02*
Y-78941D01*
X116882Y-84059D02*
X127118D01*
X116882D02*
Y-78941D01*
X127118D01*
X130882Y-84059D02*
Y-78941D01*
X141118Y-84059D02*
Y-78941D01*
X137500Y-84059D02*
X141118D01*
X137500Y-78941D02*
X141118D01*
X130882Y-84059D02*
X134500D01*
X130882Y-78941D02*
X134500D01*
X149947Y-159864D02*
Y-154746D01*
X139710Y-159864D02*
X149947D01*
X139710D02*
Y-154746D01*
X149947D01*
X113000Y-216500D02*
X147000D01*
X113000Y-200500D02*
Y-198500D01*
X147000D01*
Y-200500D02*
Y-198500D01*
Y-216500D02*
Y-214500D01*
X113000Y-216500D02*
Y-214500D01*
X121662Y-226500D02*
Y-216500D01*
X129536Y-226500D02*
Y-216500D01*
X121662Y-226500D02*
X124000D01*
X124000Y-226500D01*
X125500Y-225000D01*
X127000Y-226500D01*
X127000Y-226500D01*
X129536D01*
X8061Y-66058D02*
X10619Y-63500D01*
X4442Y-62439D02*
X7000Y-59881D01*
X3381Y-70738D02*
X5940Y-68180D01*
X-238Y-67119D02*
X2321Y-64560D01*
X-238Y-67119D02*
X3381Y-70738D01*
X7000Y-59881D02*
X10619Y-63500D01*
X7762Y-59119D02*
X15000Y-51881D01*
X7762Y-59119D02*
X11381Y-62738D01*
X18619Y-55500D01*
X15000Y-51881D02*
X18619Y-55500D01*
X26191Y-51771D02*
X28749Y-54330D01*
X22572Y-55391D02*
X25130Y-57949D01*
X30870Y-56451D02*
X33429Y-59009D01*
X27251Y-60070D02*
X29810Y-62629D01*
X33429Y-59009D01*
X22572Y-55391D02*
X26191Y-51771D01*
X14494Y-78879D02*
X28414Y-64960D01*
X14040Y-78425D02*
X14494Y-78879D01*
X27960Y-64506D02*
X28414Y-64960D01*
X19505Y-56051D02*
X19959Y-56505D01*
X5586Y-69971D02*
X6041Y-70426D01*
X5586Y-69971D02*
X19505Y-56051D01*
X4251Y-80335D02*
X6809Y-82893D01*
X7870Y-76716D02*
X10428Y-79274D01*
X-429Y-75655D02*
X2130Y-78214D01*
X3190Y-72036D02*
X5749Y-74595D01*
X-429Y-75655D02*
X3190Y-72036D01*
X6809Y-82893D02*
X10428Y-79274D01*
X43571Y-64162D02*
X46130Y-61604D01*
X47190Y-67781D02*
X49749Y-65223D01*
X48251Y-59483D02*
X50810Y-56924D01*
X51870Y-63102D02*
X54429Y-60543D01*
X50810Y-56924D02*
X54429Y-60543D01*
X43571Y-64162D02*
X47190Y-67781D01*
X64000Y-98466D02*
X66558Y-101024D01*
X60381Y-102085D02*
X62939Y-104643D01*
X68679Y-103145D02*
X71238Y-105704D01*
X65060Y-106764D02*
X67619Y-109323D01*
X71238Y-105704D01*
X60381Y-102085D02*
X64000Y-98466D01*
X28461Y-120058D02*
X31019Y-117500D01*
X24842Y-116439D02*
X27400Y-113881D01*
X23781Y-124738D02*
X26340Y-122179D01*
X20162Y-121119D02*
X22720Y-118560D01*
X20162Y-121119D02*
X23781Y-124738D01*
X27400Y-113881D02*
X31019Y-117500D01*
X86441Y-102865D02*
X90059D01*
X86441Y-107983D02*
X90059D01*
X93059Y-102865D02*
X96677D01*
X93059Y-107983D02*
X96677D01*
Y-102865D01*
X86441Y-107983D02*
Y-102865D01*
X120882Y-102441D02*
X131118D01*
X120882Y-107559D02*
Y-102441D01*
Y-107559D02*
X131118D01*
Y-102441D01*
X136382D02*
X146618D01*
X136382Y-107559D02*
Y-102441D01*
Y-107559D02*
X146618D01*
Y-102441D01*
X87882Y-62424D02*
X98118D01*
Y-57306D01*
X87882D02*
X98118D01*
X87882Y-62424D02*
Y-57306D01*
X119559Y-67542D02*
Y-57305D01*
X114441D02*
X119559D01*
X114441Y-67542D02*
Y-57305D01*
Y-67542D02*
X119559D01*
X115382Y-70364D02*
X125618D01*
X115382Y-75483D02*
Y-70364D01*
Y-75483D02*
X125618D01*
Y-70364D01*
X120441Y-67542D02*
Y-57305D01*
Y-67542D02*
X125559D01*
Y-57305D01*
X120441D02*
X125559D01*
X88728Y-127430D02*
X89728D01*
X88728Y-133030D02*
Y-127430D01*
Y-133030D02*
X89728D01*
X89828Y-127430D02*
X95128D01*
X89728Y-132830D02*
Y-127430D01*
Y-133030D02*
X95128D01*
X98528Y-127430D02*
X103928D01*
Y-127630D02*
Y-127430D01*
Y-133030D02*
Y-127630D01*
X103828Y-133030D02*
X103928D01*
X98528D02*
X103828D01*
X88728Y-158430D02*
X89728D01*
X88728Y-164030D02*
Y-158430D01*
Y-164030D02*
X89728D01*
X89828Y-158430D02*
X95128D01*
X89728Y-163830D02*
Y-158430D01*
Y-164030D02*
X95128D01*
X98528Y-158430D02*
X103928D01*
Y-158630D02*
Y-158430D01*
Y-164030D02*
Y-158630D01*
X103828Y-164030D02*
X103928D01*
X98528D02*
X103828D01*
X93769Y-152171D02*
X104006D01*
X93769Y-157289D02*
Y-152171D01*
Y-157289D02*
X104006D01*
Y-152171D01*
X93769Y-146171D02*
X104006D01*
X93769Y-151289D02*
Y-146171D01*
Y-151289D02*
X104006D01*
Y-146171D01*
X93769Y-134171D02*
X104006D01*
X93769Y-139289D02*
Y-134171D01*
Y-139289D02*
X104006D01*
Y-134171D01*
X93769Y-140171D02*
X104006D01*
X93769Y-145289D02*
Y-140171D01*
Y-145289D02*
X104006D01*
Y-140171D01*
X139287Y-160838D02*
X140287D01*
X139287Y-166438D02*
Y-160838D01*
Y-166438D02*
X140287D01*
X140387Y-160838D02*
X145687D01*
X140287Y-166238D02*
Y-160838D01*
Y-166438D02*
X145687D01*
X149087Y-160838D02*
X154487D01*
Y-161038D02*
Y-160838D01*
Y-166438D02*
Y-161038D01*
X154387Y-166438D02*
X154487D01*
X149087D02*
X154387D01*
X100328Y-126365D02*
X103946D01*
X100328Y-121247D02*
X103946D01*
X93710Y-126365D02*
X97328D01*
X93710Y-121247D02*
X97328D01*
X93710Y-126365D02*
Y-121247D01*
X103946Y-126365D02*
Y-121247D01*
X51445Y-138920D02*
X55063D01*
X51445Y-144038D02*
X55063D01*
X58063Y-138920D02*
X61681D01*
X58063Y-144038D02*
X61681D01*
Y-138920D01*
X51445Y-144038D02*
Y-138920D01*
X45441Y-132483D02*
Y-128866D01*
X50559Y-132483D02*
Y-128866D01*
X45441Y-125865D02*
Y-122247D01*
X50559Y-125865D02*
Y-122247D01*
X45441D02*
X50559D01*
X45441Y-132483D02*
X50559D01*
Y-137058D02*
Y-133441D01*
X45441Y-137058D02*
Y-133441D01*
X50559Y-143677D02*
Y-140058D01*
X45441Y-143677D02*
Y-140058D01*
Y-143677D02*
X50559D01*
X45441Y-133441D02*
X50559D01*
X73504Y-127038D02*
Y-116802D01*
Y-127038D02*
X78622D01*
Y-116802D01*
X73504D02*
X78622D01*
X78622Y-138098D02*
Y-127861D01*
X73504D02*
X78622D01*
X73504Y-138098D02*
Y-127861D01*
Y-138098D02*
X78622D01*
X69004Y-144038D02*
X72622D01*
X69004Y-138920D02*
X72622D01*
X62386Y-144038D02*
X66004D01*
X62386Y-138920D02*
X66004D01*
X62386Y-144038D02*
Y-138920D01*
X72622Y-144038D02*
Y-138920D01*
X98460Y-185117D02*
Y-181500D01*
X103578Y-185117D02*
Y-181500D01*
X98460Y-178500D02*
Y-174881D01*
X103578Y-178500D02*
Y-174881D01*
X98460D02*
X103578D01*
X98460Y-185117D02*
X103578D01*
X50586Y-160059D02*
Y-156441D01*
X45468Y-160059D02*
Y-156441D01*
X50586Y-166677D02*
Y-163059D01*
X45468Y-166677D02*
Y-163059D01*
Y-166677D02*
X50586D01*
X45468Y-156441D02*
X50586D01*
X97960Y-206986D02*
Y-203368D01*
X103078Y-206986D02*
Y-203368D01*
X97960Y-200368D02*
Y-196749D01*
X103078Y-200368D02*
Y-196749D01*
X97960D02*
X103078D01*
X97960Y-206986D02*
X103078D01*
X51079Y-191443D02*
Y-187825D01*
X45961Y-191443D02*
Y-187825D01*
X51079Y-198062D02*
Y-194443D01*
X45961Y-198062D02*
Y-194443D01*
Y-198062D02*
X51079D01*
X45961Y-187825D02*
X51079D01*
X-51244Y-92481D02*
X-41008D01*
Y-87363D01*
X-51244D02*
X-41008D01*
X-51244Y-92481D02*
Y-87363D01*
X-51184Y-98481D02*
X-40948D01*
Y-93363D01*
X-51184D02*
X-40948D01*
X-51184Y-98481D02*
Y-93363D01*
X-51244Y-118099D02*
X-41008D01*
Y-112981D01*
X-51244D02*
X-41008D01*
X-51244Y-118099D02*
Y-112981D01*
Y-106863D02*
X-41008D01*
X-51244Y-111981D02*
Y-106863D01*
Y-111981D02*
X-41008D01*
Y-106863D01*
X-51243Y-81363D02*
X-41007D01*
X-51243Y-86481D02*
Y-81363D01*
Y-86481D02*
X-41007D01*
Y-81363D01*
X-51243Y-75363D02*
X-41007D01*
X-51243Y-80481D02*
Y-75363D01*
Y-80481D02*
X-41007D01*
Y-75363D01*
X-51244Y-66982D02*
X-41008D01*
Y-61864D01*
X-51244D02*
X-41008D01*
X-51244Y-66982D02*
Y-61864D01*
X-51243Y-55863D02*
X-41007D01*
X-51243Y-60981D02*
Y-55863D01*
Y-60981D02*
X-41007D01*
Y-55863D01*
X-15184Y-118359D02*
Y-114741D01*
X-10066Y-118359D02*
Y-114741D01*
X-15184Y-111741D02*
Y-108123D01*
X-10066Y-111741D02*
Y-108123D01*
X-15184D02*
X-10066D01*
X-15184Y-118359D02*
X-10066D01*
X-9184D02*
Y-114741D01*
X-4066Y-118359D02*
Y-114741D01*
X-9184Y-111741D02*
Y-108123D01*
X-4066Y-111741D02*
Y-108123D01*
X-9184D02*
X-4066D01*
X-9184Y-118359D02*
X-4066D01*
X-8685Y-66418D02*
Y-62801D01*
X-3566Y-66418D02*
Y-62801D01*
X-8685Y-59801D02*
Y-56182D01*
X-3566Y-59801D02*
Y-56182D01*
X-8685D02*
X-3566D01*
X-8685Y-66418D02*
X-3566D01*
X-9566Y-59800D02*
Y-56182D01*
X-14684Y-59800D02*
Y-56182D01*
X-9566Y-66418D02*
Y-62800D01*
X-14684Y-66418D02*
Y-62800D01*
Y-66418D02*
X-9566D01*
X-14684Y-56182D02*
X-9566D01*
X-52500Y-129559D02*
X-48882D01*
X-52500Y-124441D02*
X-48882D01*
X-59118Y-129559D02*
X-55500D01*
X-59118Y-124441D02*
X-55500D01*
X-59118Y-129559D02*
Y-124441D01*
X-48882Y-129559D02*
Y-124441D01*
X149582Y-142183D02*
X152914D01*
X153580Y-141516D01*
Y-140183D01*
X152914Y-139517D01*
X149582D01*
X150248Y-135518D02*
X149582Y-136185D01*
Y-137518D01*
X150248Y-138184D01*
X150915D01*
X151581Y-137518D01*
Y-136185D01*
X152247Y-135518D01*
X152914D01*
X153580Y-136185D01*
Y-137518D01*
X152914Y-138184D01*
X149582Y-134186D02*
X153580D01*
Y-132186D01*
X152914Y-131520D01*
X152247D01*
X151581Y-132186D01*
Y-134186D01*
Y-132186D01*
X150915Y-131520D01*
X150248D01*
X149582Y-132186D01*
Y-134186D01*
D16*
X136000Y-82400D02*
Y-80600D01*
Y-81500D02*
X136300D01*
X135700D02*
X136000D01*
X85771Y-114770D02*
Y-108274D01*
X82228Y-114770D02*
Y-108274D01*
X85771D01*
X82228Y-114770D02*
X85771D01*
X71271Y-59346D02*
Y-52850D01*
X67728Y-59346D02*
Y-52850D01*
X71271D01*
X67728Y-59346D02*
X71271D01*
X86253Y-125577D02*
X92750D01*
X86253Y-122034D02*
X92750D01*
Y-125577D02*
Y-122034D01*
X86253Y-125577D02*
Y-122034D01*
X68653Y-116272D02*
Y-112729D01*
X62157Y-116272D02*
Y-112729D01*
Y-116272D02*
X68653D01*
X62157Y-112729D02*
X68653D01*
X45888Y-150272D02*
Y-146728D01*
X52384Y-150272D02*
Y-146728D01*
X45888D02*
X52384D01*
X45888Y-150272D02*
X52384D01*
X39228Y-123575D02*
X42772D01*
X39228Y-117079D02*
X42772D01*
X39228Y-123575D02*
Y-117079D01*
X42772Y-123575D02*
Y-117079D01*
X-52079Y-123503D02*
Y-119960D01*
X-58575Y-123503D02*
Y-119960D01*
Y-123503D02*
X-52079D01*
X-58575Y-119960D02*
X-52079D01*
X-13972Y-102071D02*
Y-98528D01*
X-7475Y-102071D02*
Y-98528D01*
X-13972D02*
X-7475D01*
X-13972Y-102071D02*
X-7475D01*
X5190Y-65309D02*
X5403Y-65097D01*
X4978Y-65521D02*
X5190Y-65309D01*
X4554Y-64673D02*
X5827Y-65946D01*
X27788Y-56988D02*
X28000Y-57200D01*
X28212Y-57412D01*
X27364Y-57836D02*
X28636Y-56564D01*
X17707Y-70293D02*
X19828Y-68172D01*
X14172Y-66758D02*
X16293Y-64636D01*
X14172D02*
X15232Y-65697D01*
X13111D02*
X14172Y-64636D01*
X18768Y-69232D02*
X19828Y-70293D01*
X21243Y-68879D01*
X12757Y-66050D02*
X13111Y-65697D01*
X16646Y-69232D02*
X18768Y-67111D01*
X15232Y-67818D02*
X16646Y-69232D01*
X15232Y-67818D02*
X17354Y-65697D01*
X18768Y-67111D01*
X5000Y-77465D02*
X5212Y-77677D01*
X4788Y-77252D02*
X5000Y-77465D01*
X4364Y-78101D02*
X5636Y-76828D01*
X48788Y-62565D02*
X49000Y-62353D01*
X49212Y-62141D01*
X48364Y-61717D02*
X49636Y-62989D01*
X65597Y-103682D02*
X65809Y-103894D01*
X66021Y-104106D01*
X65173Y-104531D02*
X66445Y-103258D01*
X25591Y-119309D02*
X25803Y-119097D01*
X25378Y-119521D02*
X25591Y-119309D01*
X24954Y-118673D02*
X26227Y-119946D01*
X91259Y-105424D02*
X91559D01*
X91859D01*
X91559Y-106324D02*
Y-104524D01*
X144616Y-142679D02*
Y-130179D01*
X139998Y-152683D02*
X147399D01*
X139998D02*
Y-148683D01*
Y-123183D02*
Y-119683D01*
X147399D01*
X162998Y-148183D02*
Y-123183D01*
X98828Y-123805D02*
X99128D01*
X98528D02*
X98828D01*
Y-124705D02*
Y-122905D01*
X56263Y-141479D02*
X56563D01*
X56863D01*
X56563Y-142379D02*
Y-140579D01*
X48000Y-127665D02*
Y-127366D01*
Y-127066D01*
X47100Y-127366D02*
X48900D01*
X47999Y-138558D02*
Y-138258D01*
Y-138858D02*
Y-138558D01*
X47099D02*
X48899D01*
X67504Y-141479D02*
X67804D01*
X67204D02*
X67504D01*
Y-142379D02*
Y-140579D01*
X41346Y-153654D02*
X44890D01*
X41346Y-160150D02*
X44890D01*
Y-153654D01*
X41346Y-160150D02*
Y-153654D01*
X101020Y-180300D02*
Y-180000D01*
Y-179700D01*
X100120Y-180000D02*
X101920D01*
X48027Y-161559D02*
Y-161259D01*
Y-161859D02*
Y-161559D01*
X47127D02*
X48927D01*
X42248Y-185368D02*
X45791D01*
X42248Y-191864D02*
X45791D01*
Y-185368D01*
X42248Y-191864D02*
Y-185368D01*
X100520Y-202168D02*
Y-201868D01*
Y-201568D01*
X99620Y-201868D02*
X101420D01*
X48520Y-192943D02*
Y-192643D01*
Y-193243D02*
Y-192943D01*
X47620D02*
X49420D01*
X-12625Y-113541D02*
Y-113241D01*
Y-112941D01*
X-13525Y-113241D02*
X-11725D01*
X-6625Y-113541D02*
Y-113241D01*
Y-112941D01*
X-7525Y-113241D02*
X-5725D01*
X-6125Y-61601D02*
Y-61301D01*
Y-61001D01*
X-7025Y-61301D02*
X-5225D01*
X-12126Y-61300D02*
Y-61000D01*
Y-61600D02*
Y-61300D01*
X-13025D02*
X-11225D01*
X-54850Y-87981D02*
Y-73981D01*
X-65850D02*
X-54850D01*
X-65850Y-87981D02*
Y-73981D01*
Y-87981D02*
X-54850D01*
X-66000Y-117436D02*
Y-103436D01*
Y-117436D02*
X-55000D01*
Y-103436D01*
X-66000D02*
X-55000D01*
X-65500Y-154500D02*
Y-140500D01*
Y-154500D02*
X-54500D01*
Y-140500D01*
X-65500D02*
X-54500D01*
X-65850Y-185500D02*
Y-171500D01*
Y-185500D02*
X-54850D01*
Y-171500D01*
X-65850D02*
X-54850D01*
X-54000Y-127000D02*
X-53700D01*
X-54300D02*
X-54000D01*
Y-127900D02*
Y-126100D01*
D17*
X68362Y-119263D02*
X70354D01*
Y-121255D02*
Y-119263D01*
X53772D02*
X55764D01*
X53772Y-121255D02*
Y-119263D01*
Y-135845D02*
Y-133853D01*
Y-135845D02*
X55764D01*
X68362D02*
X70354D01*
Y-133853D01*
D18*
X135080Y-139801D02*
X136580Y-141301D01*
X135080Y-142801D02*
Y-139801D01*
Y-142801D02*
X136580Y-141301D01*
D19*
X83833Y-42001D02*
X83166D01*
X83500D01*
Y-43667D01*
X83166Y-44000D01*
X82833D01*
X82500Y-43667D01*
X84499Y-44000D02*
Y-42001D01*
X85499D01*
X85832Y-42334D01*
Y-43000D01*
X85499Y-43334D01*
X84499D01*
X86499Y-44000D02*
X87165D01*
X86832D01*
Y-42001D01*
X86499Y-42334D01*
X-7050Y-101500D02*
Y-99500D01*
X-6051D01*
X-5717Y-99834D01*
Y-100500D01*
X-6051Y-100833D01*
X-7050D01*
X-6384D02*
X-5717Y-101500D01*
X-4051D02*
Y-99500D01*
X-5051Y-100500D01*
X-3718D01*
X-3052Y-99834D02*
X-2718Y-99500D01*
X-2052D01*
X-1719Y-99834D01*
Y-100167D01*
X-2052Y-100500D01*
X-1719Y-100833D01*
Y-101166D01*
X-2052Y-101500D01*
X-2718D01*
X-3052Y-101166D01*
Y-100833D01*
X-2718Y-100500D01*
X-3052Y-100167D01*
Y-99834D01*
X-2718Y-100500D02*
X-2052D01*
X18586Y-55051D02*
X20943Y-55522D01*
X19529Y-54108D02*
X20000Y-56465D01*
X21414Y-55051D02*
X21885Y-54580D01*
X21649Y-54815D01*
X20236Y-53401D01*
X20236Y-53873D01*
X62000Y-148500D02*
Y-149833D01*
X62666Y-150500D01*
X63333Y-149833D01*
Y-148500D01*
X63999Y-148834D02*
X64333Y-148500D01*
X64999D01*
X65332Y-148834D01*
Y-149167D01*
X64999Y-149500D01*
X64666D01*
X64999D01*
X65332Y-149833D01*
Y-150166D01*
X64999Y-150500D01*
X64333D01*
X63999Y-150166D01*
X62520Y-179869D02*
Y-181202D01*
X63186Y-181868D01*
X63853Y-181202D01*
Y-179869D01*
X65852Y-181868D02*
X64519D01*
X65852Y-180535D01*
Y-180202D01*
X65519Y-179869D01*
X64852D01*
X64519Y-180202D01*
X136829Y-129230D02*
X138495D01*
X138828Y-128897D01*
Y-128230D01*
X138495Y-127897D01*
X136829D01*
X137162Y-125898D02*
X136829Y-126231D01*
Y-126898D01*
X137162Y-127231D01*
X137495D01*
X137829Y-126898D01*
Y-126231D01*
X138162Y-125898D01*
X138495D01*
X138828Y-126231D01*
Y-126898D01*
X138495Y-127231D01*
X136829Y-125231D02*
X138828D01*
Y-124232D01*
X138495Y-123898D01*
X138162D01*
X137829Y-124232D01*
Y-125231D01*
Y-124232D01*
X137495Y-123898D01*
X137162D01*
X136829Y-124232D01*
Y-125231D01*
X138828Y-121899D02*
Y-123232D01*
X137495Y-121899D01*
X137162D01*
X136829Y-122232D01*
Y-122899D01*
X137162Y-123232D01*
X-39245Y-76363D02*
X-37579D01*
X-37246Y-76030D01*
Y-75363D01*
X-37579Y-75030D01*
X-39245D01*
Y-73031D02*
X-38912Y-73697D01*
X-38245Y-74364D01*
X-37579D01*
X-37246Y-74030D01*
Y-73364D01*
X-37579Y-73031D01*
X-37912D01*
X-38245Y-73364D01*
Y-74364D01*
X-53499Y-138864D02*
X-51833D01*
X-51500Y-138530D01*
Y-137864D01*
X-51833Y-137531D01*
X-53499D01*
Y-135531D02*
Y-136864D01*
X-52500D01*
X-52833Y-136198D01*
Y-135865D01*
X-52500Y-135531D01*
X-51833D01*
X-51500Y-135865D01*
Y-136531D01*
X-51833Y-136864D01*
X-52889Y-177864D02*
X-51223D01*
X-50890Y-177530D01*
Y-176864D01*
X-51223Y-176531D01*
X-52889D01*
X-50890Y-174865D02*
X-52889D01*
X-51890Y-175864D01*
Y-174531D01*
X106328Y-121306D02*
Y-122972D01*
X106661Y-123305D01*
X107328D01*
X107661Y-122972D01*
Y-121306D01*
X108328Y-121639D02*
X108661Y-121306D01*
X109327D01*
X109660Y-121639D01*
Y-121972D01*
X109327Y-122306D01*
X108994D01*
X109327D01*
X109660Y-122639D01*
Y-122972D01*
X109327Y-123305D01*
X108661D01*
X108328Y-122972D01*
X38107Y-69732D02*
X39286Y-70911D01*
X39757D01*
X40228Y-70439D01*
X40228Y-69968D01*
X39050Y-68790D01*
X41877D02*
X40935Y-69732D01*
Y-67848D01*
X40699Y-67612D01*
X40228D01*
X39757Y-68083D01*
X39757Y-68554D01*
X52500Y-116501D02*
Y-118167D01*
X52833Y-118500D01*
X53500D01*
X53833Y-118167D01*
Y-116501D01*
X54499Y-118500D02*
X55166D01*
X54833D01*
Y-116501D01*
X54499Y-116834D01*
X110833Y-87274D02*
X110500Y-86941D01*
X109833D01*
X109500Y-87274D01*
Y-87608D01*
X109833Y-87941D01*
X110500D01*
X110833Y-88274D01*
Y-88607D01*
X110500Y-88941D01*
X109833D01*
X109500Y-88607D01*
X111499Y-86941D02*
Y-88941D01*
X112166Y-88274D01*
X112832Y-88941D01*
Y-86941D01*
X113499Y-87274D02*
X113832Y-86941D01*
X114498D01*
X114832Y-87274D01*
Y-87608D01*
X114498Y-87941D01*
X114165D01*
X114498D01*
X114832Y-88274D01*
Y-88607D01*
X114498Y-88941D01*
X113832D01*
X113499Y-88607D01*
X144833Y-196391D02*
X144500Y-196058D01*
X143833D01*
X143500Y-196391D01*
Y-196724D01*
X143833Y-197057D01*
X144500D01*
X144833Y-197390D01*
Y-197724D01*
X144500Y-198057D01*
X143833D01*
X143500Y-197724D01*
X145499Y-198057D02*
X146166D01*
X145833D01*
Y-196058D01*
X145499Y-196391D01*
X44500Y-166000D02*
X42501D01*
Y-165000D01*
X42834Y-164667D01*
X43500D01*
X43834Y-165000D01*
Y-166000D01*
Y-165333D02*
X44500Y-164667D01*
Y-163001D02*
X42501D01*
X43500Y-164001D01*
Y-162668D01*
X42501Y-162001D02*
Y-160668D01*
X42834D01*
X44167Y-162001D01*
X44500D01*
X-52126Y-92481D02*
X-54125D01*
Y-91482D01*
X-53792Y-91149D01*
X-53125D01*
X-52792Y-91482D01*
Y-92481D01*
Y-91815D02*
X-52126Y-91149D01*
Y-89482D02*
X-54125D01*
X-53125Y-90482D01*
Y-89149D01*
X-54125Y-87150D02*
X-53792Y-87816D01*
X-53125Y-88483D01*
X-52459D01*
X-52126Y-88149D01*
Y-87483D01*
X-52459Y-87150D01*
X-52792D01*
X-53125Y-87483D01*
Y-88483D01*
X-52126Y-86481D02*
X-54125D01*
Y-85481D01*
X-53792Y-85148D01*
X-53125D01*
X-52792Y-85481D01*
Y-86481D01*
Y-85815D02*
X-52126Y-85148D01*
Y-83482D02*
X-54125D01*
X-53125Y-84482D01*
Y-83149D01*
X-54125Y-81150D02*
Y-82482D01*
X-53125D01*
X-53458Y-81816D01*
Y-81483D01*
X-53125Y-81150D01*
X-52459D01*
X-52126Y-81483D01*
Y-82149D01*
X-52459Y-82482D01*
X-52126Y-79924D02*
X-54125D01*
Y-78924D01*
X-53792Y-78591D01*
X-53125D01*
X-52792Y-78924D01*
Y-79924D01*
Y-79257D02*
X-52126Y-78591D01*
Y-76925D02*
X-54125D01*
X-53125Y-77925D01*
Y-76592D01*
X-52126Y-74925D02*
X-54125D01*
X-53125Y-75925D01*
Y-74592D01*
X-52126Y-98481D02*
X-54125D01*
Y-97482D01*
X-53792Y-97149D01*
X-53125D01*
X-52792Y-97482D01*
Y-98481D01*
Y-97815D02*
X-52126Y-97149D01*
Y-95482D02*
X-54125D01*
X-53125Y-96482D01*
Y-95149D01*
X-53792Y-94483D02*
X-54125Y-94150D01*
Y-93483D01*
X-53792Y-93150D01*
X-53458D01*
X-53125Y-93483D01*
Y-93816D01*
Y-93483D01*
X-52792Y-93150D01*
X-52459D01*
X-52126Y-93483D01*
Y-94150D01*
X-52459Y-94483D01*
X45020Y-197943D02*
X43020D01*
Y-196943D01*
X43354Y-196610D01*
X44020D01*
X44353Y-196943D01*
Y-197943D01*
Y-197277D02*
X45020Y-196610D01*
Y-194944D02*
X43020D01*
X44020Y-195944D01*
Y-194611D01*
X45020Y-192612D02*
Y-193944D01*
X43687Y-192612D01*
X43354D01*
X43020Y-192945D01*
Y-193611D01*
X43354Y-193944D01*
X121500Y-170000D02*
Y-168001D01*
X122500D01*
X122833Y-168334D01*
Y-169000D01*
X122500Y-169334D01*
X121500D01*
X122167D02*
X122833Y-170000D01*
X124499D02*
Y-168001D01*
X123499Y-169000D01*
X124832D01*
X125499Y-170000D02*
X126165D01*
X125832D01*
Y-168001D01*
X125499Y-168334D01*
X-59000Y-123500D02*
X-60999D01*
Y-122500D01*
X-60666Y-122167D01*
X-60000D01*
X-59666Y-122500D01*
Y-123500D01*
Y-122834D02*
X-59000Y-122167D01*
Y-120501D02*
X-60999D01*
X-60000Y-121501D01*
Y-120168D01*
X-60666Y-119501D02*
X-60999Y-119168D01*
Y-118502D01*
X-60666Y-118168D01*
X-59333D01*
X-59000Y-118502D01*
Y-119168D01*
X-59333Y-119501D01*
X-60666D01*
X110500Y-170000D02*
Y-168001D01*
X111500D01*
X111833Y-168334D01*
Y-169000D01*
X111500Y-169334D01*
X110500D01*
X111167D02*
X111833Y-170000D01*
X112499Y-168334D02*
X112833Y-168001D01*
X113499D01*
X113832Y-168334D01*
Y-168667D01*
X113499Y-169000D01*
X113166D01*
X113499D01*
X113832Y-169334D01*
Y-169667D01*
X113499Y-170000D01*
X112833D01*
X112499Y-169667D01*
X114499D02*
X114832Y-170000D01*
X115498D01*
X115832Y-169667D01*
Y-168334D01*
X115498Y-168001D01*
X114832D01*
X114499Y-168334D01*
Y-168667D01*
X114832Y-169000D01*
X115832D01*
X-51626Y-66800D02*
X-53625D01*
Y-65800D01*
X-53292Y-65467D01*
X-52625D01*
X-52292Y-65800D01*
Y-66800D01*
Y-66134D02*
X-51626Y-65467D01*
X-53292Y-64801D02*
X-53625Y-64467D01*
Y-63801D01*
X-53292Y-63468D01*
X-52958D01*
X-52625Y-63801D01*
Y-64134D01*
Y-63801D01*
X-52292Y-63468D01*
X-51959D01*
X-51626Y-63801D01*
Y-64467D01*
X-51959Y-64801D01*
X-53292Y-62801D02*
X-53625Y-62468D01*
Y-61802D01*
X-53292Y-61468D01*
X-52958D01*
X-52625Y-61802D01*
X-52292Y-61468D01*
X-51959D01*
X-51626Y-61802D01*
Y-62468D01*
X-51959Y-62801D01*
X-52292D01*
X-52625Y-62468D01*
X-52958Y-62801D01*
X-53292D01*
X-52625Y-62468D02*
Y-61802D01*
X-51626Y-111652D02*
X-53625D01*
Y-110652D01*
X-53292Y-110319D01*
X-52625D01*
X-52292Y-110652D01*
Y-111652D01*
Y-110985D02*
X-51626Y-110319D01*
X-53292Y-109652D02*
X-53625Y-109319D01*
Y-108653D01*
X-53292Y-108319D01*
X-52958D01*
X-52625Y-108653D01*
Y-108986D01*
Y-108653D01*
X-52292Y-108319D01*
X-51959D01*
X-51626Y-108653D01*
Y-109319D01*
X-51959Y-109652D01*
X-53625Y-107653D02*
Y-106320D01*
X-53292D01*
X-51959Y-107653D01*
X-51626D01*
X-52126Y-60800D02*
X-54125D01*
Y-59800D01*
X-53792Y-59467D01*
X-53125D01*
X-52792Y-59800D01*
Y-60800D01*
Y-60134D02*
X-52126Y-59467D01*
X-53792Y-58801D02*
X-54125Y-58467D01*
Y-57801D01*
X-53792Y-57468D01*
X-53458D01*
X-53125Y-57801D01*
Y-58134D01*
Y-57801D01*
X-52792Y-57468D01*
X-52459D01*
X-52126Y-57801D01*
Y-58467D01*
X-52459Y-58801D01*
X-54125Y-55468D02*
X-53792Y-56135D01*
X-53125Y-56801D01*
X-52459D01*
X-52126Y-56468D01*
Y-55802D01*
X-52459Y-55468D01*
X-52792D01*
X-53125Y-55802D01*
Y-56801D01*
X-51626Y-117964D02*
X-53625D01*
Y-116964D01*
X-53292Y-116631D01*
X-52625D01*
X-52292Y-116964D01*
Y-117964D01*
Y-117297D02*
X-51626Y-116631D01*
X-53292Y-115965D02*
X-53625Y-115631D01*
Y-114965D01*
X-53292Y-114632D01*
X-52958D01*
X-52625Y-114965D01*
Y-115298D01*
Y-114965D01*
X-52292Y-114632D01*
X-51959D01*
X-51626Y-114965D01*
Y-115631D01*
X-51959Y-115965D01*
X-53625Y-112632D02*
Y-113965D01*
X-52625D01*
X-52958Y-113299D01*
Y-112966D01*
X-52625Y-112632D01*
X-51959D01*
X-51626Y-112966D01*
Y-113632D01*
X-51959Y-113965D01*
X85000Y-107695D02*
X83000D01*
Y-106695D01*
X83334Y-106362D01*
X84000D01*
X84333Y-106695D01*
Y-107695D01*
Y-107029D02*
X85000Y-106362D01*
X83334Y-105696D02*
X83000Y-105363D01*
Y-104696D01*
X83334Y-104363D01*
X83667D01*
X84000Y-104696D01*
Y-105029D01*
Y-104696D01*
X84333Y-104363D01*
X84666D01*
X85000Y-104696D01*
Y-105363D01*
X84666Y-105696D01*
X85000Y-102364D02*
Y-103697D01*
X83667Y-102364D01*
X83334D01*
X83000Y-102697D01*
Y-103363D01*
X83334Y-103697D01*
X-66201Y-102861D02*
Y-100862D01*
X-65201D01*
X-64868Y-101195D01*
Y-101862D01*
X-65201Y-102195D01*
X-66201D01*
X-65534D02*
X-64868Y-102861D01*
X-64201Y-101195D02*
X-63868Y-100862D01*
X-63202D01*
X-62868Y-101195D01*
Y-101529D01*
X-63202Y-101862D01*
X-63535D01*
X-63202D01*
X-62868Y-102195D01*
Y-102528D01*
X-63202Y-102861D01*
X-63868D01*
X-64201Y-102528D01*
X-62202Y-102861D02*
X-61536D01*
X-61869D01*
Y-100862D01*
X-62202Y-101195D01*
X100500Y-62365D02*
X98501D01*
Y-61365D01*
X98834Y-61032D01*
X99500D01*
X99834Y-61365D01*
Y-62365D01*
Y-61698D02*
X100500Y-61032D01*
X98834Y-60365D02*
X98501Y-60032D01*
Y-59365D01*
X98834Y-59032D01*
X99167D01*
X99500Y-59365D01*
Y-59699D01*
Y-59365D01*
X99834Y-59032D01*
X100167D01*
X100500Y-59365D01*
Y-60032D01*
X100167Y-60365D01*
X98834Y-58366D02*
X98501Y-58033D01*
Y-57366D01*
X98834Y-57033D01*
X100167D01*
X100500Y-57366D01*
Y-58033D01*
X100167Y-58366D01*
X98834D01*
X-65449Y-140000D02*
Y-138001D01*
X-64449D01*
X-64116Y-138334D01*
Y-139000D01*
X-64449Y-139333D01*
X-65449D01*
X-64782D02*
X-64116Y-140000D01*
X-62117D02*
X-63450D01*
X-62117Y-138667D01*
Y-138334D01*
X-62450Y-138001D01*
X-63116D01*
X-63450Y-138334D01*
X-61450Y-139667D02*
X-61117Y-140000D01*
X-60450D01*
X-60117Y-139667D01*
Y-138334D01*
X-60450Y-138001D01*
X-61117D01*
X-61450Y-138334D01*
Y-138667D01*
X-61117Y-139000D01*
X-60117D01*
X-64850Y-171038D02*
Y-169039D01*
X-63851D01*
X-63517Y-169372D01*
Y-170038D01*
X-63851Y-170372D01*
X-64850D01*
X-64184D02*
X-63517Y-171038D01*
X-61518D02*
X-62851D01*
X-61518Y-169705D01*
Y-169372D01*
X-61851Y-169039D01*
X-62518D01*
X-62851Y-169372D01*
X-60852D02*
X-60518Y-169039D01*
X-59852D01*
X-59519Y-169372D01*
Y-169705D01*
X-59852Y-170038D01*
X-59519Y-170372D01*
Y-170705D01*
X-59852Y-171038D01*
X-60518D01*
X-60852Y-170705D01*
Y-170372D01*
X-60518Y-170038D01*
X-60852Y-169705D01*
Y-169372D01*
X-60518Y-170038D02*
X-59852D01*
X93269Y-80673D02*
X91270D01*
Y-79673D01*
X91603Y-79340D01*
X92270D01*
X92603Y-79673D01*
Y-80673D01*
Y-80006D02*
X93269Y-79340D01*
Y-77340D02*
Y-78673D01*
X91936Y-77340D01*
X91603D01*
X91270Y-77674D01*
Y-78340D01*
X91603Y-78673D01*
X91270Y-76674D02*
Y-75341D01*
X91603D01*
X92936Y-76674D01*
X93269D01*
X93329Y-86672D02*
X91329D01*
Y-85673D01*
X91663Y-85339D01*
X92329D01*
X92662Y-85673D01*
Y-86672D01*
Y-86006D02*
X93329Y-85339D01*
Y-83340D02*
Y-84673D01*
X91996Y-83340D01*
X91663D01*
X91329Y-83673D01*
Y-84340D01*
X91663Y-84673D01*
X91329Y-81341D02*
X91663Y-82007D01*
X92329Y-82674D01*
X92995D01*
X93329Y-82340D01*
Y-81674D01*
X92995Y-81341D01*
X92662D01*
X92329Y-81674D01*
Y-82674D01*
X119500Y-67923D02*
Y-69923D01*
X118500D01*
X118167Y-69589D01*
Y-68923D01*
X118500Y-68590D01*
X119500D01*
X118833D02*
X118167Y-67923D01*
X116167D02*
X117500D01*
X116167Y-69256D01*
Y-69589D01*
X116501Y-69923D01*
X117167D01*
X117500Y-69589D01*
X114168Y-69923D02*
X115501D01*
Y-68923D01*
X114834Y-69256D01*
X114501D01*
X114168Y-68923D01*
Y-68256D01*
X114501Y-67923D01*
X115168D01*
X115501Y-68256D01*
X120059Y-108000D02*
X118060D01*
Y-107000D01*
X118393Y-106667D01*
X119060D01*
X119393Y-107000D01*
Y-108000D01*
Y-107333D02*
X120059Y-106667D01*
Y-104667D02*
Y-106000D01*
X118727Y-104667D01*
X118393D01*
X118060Y-105001D01*
Y-105667D01*
X118393Y-106000D01*
X120059Y-103001D02*
X118060D01*
X119060Y-104001D01*
Y-102668D01*
X116500Y-84066D02*
X114501D01*
Y-83067D01*
X114834Y-82734D01*
X115500D01*
X115833Y-83067D01*
Y-84066D01*
Y-83400D02*
X116500Y-82734D01*
Y-82067D02*
Y-81401D01*
Y-81734D01*
X114501D01*
X114834Y-82067D01*
Y-80401D02*
X114501Y-80068D01*
Y-79401D01*
X114834Y-79068D01*
X115167D01*
X115500Y-79401D01*
X115833Y-79068D01*
X116167D01*
X116500Y-79401D01*
Y-80068D01*
X116167Y-80401D01*
X115833D01*
X115500Y-80068D01*
X115167Y-80401D01*
X114834D01*
X115500Y-80068D02*
Y-79401D01*
X18381Y-53751D02*
X16968Y-52337D01*
X17674Y-51630D01*
X18146D01*
X18617Y-52101D01*
X18617Y-52573D01*
X17910Y-53279D01*
X18381Y-52808D02*
X19324D01*
X19795Y-52337D02*
X20266Y-51866D01*
X20031Y-52101D01*
X18617Y-50687D01*
X18617Y-51159D01*
X19559Y-49745D02*
X20502Y-48803D01*
X20738Y-49038D01*
Y-50923D01*
X20973Y-51159D01*
X88500Y-155633D02*
Y-153634D01*
X89500D01*
X89833Y-153967D01*
Y-154634D01*
X89500Y-154967D01*
X88500D01*
X89166D02*
X89833Y-155633D01*
X90499D02*
X91166D01*
X90833D01*
Y-153634D01*
X90499Y-153967D01*
X93498Y-153634D02*
X92832Y-153967D01*
X92165Y-154634D01*
Y-155300D01*
X92499Y-155633D01*
X93165D01*
X93498Y-155300D01*
Y-154967D01*
X93165Y-154634D01*
X92165D01*
X88000Y-150134D02*
Y-148134D01*
X89000D01*
X89333Y-148467D01*
Y-149134D01*
X89000Y-149467D01*
X88000D01*
X88666D02*
X89333Y-150134D01*
X89999D02*
X90666D01*
X90333D01*
Y-148134D01*
X89999Y-148467D01*
X92998Y-148134D02*
X91666D01*
Y-149134D01*
X92332Y-148801D01*
X92665D01*
X92998Y-149134D01*
Y-149800D01*
X92665Y-150134D01*
X91999D01*
X91666Y-149800D01*
X88500Y-138134D02*
Y-136134D01*
X89500D01*
X89833Y-136467D01*
Y-137134D01*
X89500Y-137467D01*
X88500D01*
X89166D02*
X89833Y-138134D01*
X90499D02*
X91166D01*
X90833D01*
Y-136134D01*
X90499Y-136467D01*
X93165Y-138134D02*
Y-136134D01*
X92165Y-137134D01*
X93498D01*
X150769Y-158305D02*
Y-156306D01*
X151769D01*
X152102Y-156639D01*
Y-157306D01*
X151769Y-157639D01*
X150769D01*
X151435D02*
X152102Y-158305D01*
X152768D02*
X153435D01*
X153102D01*
Y-156306D01*
X152768Y-156639D01*
X154434D02*
X154768Y-156306D01*
X155434D01*
X155767Y-156639D01*
Y-156972D01*
X155434Y-157306D01*
X155101D01*
X155434D01*
X155767Y-157639D01*
Y-157972D01*
X155434Y-158305D01*
X154768D01*
X154434Y-157972D01*
X88500Y-144133D02*
Y-142134D01*
X89500D01*
X89833Y-142467D01*
Y-143134D01*
X89500Y-143467D01*
X88500D01*
X89166D02*
X89833Y-144133D01*
X90499D02*
X91166D01*
X90833D01*
Y-142134D01*
X90499Y-142467D01*
X93498Y-144133D02*
X92165D01*
X93498Y-142801D01*
Y-142467D01*
X93165Y-142134D01*
X92499D01*
X92165Y-142467D01*
X135731Y-107500D02*
X133731D01*
Y-106500D01*
X134065Y-106167D01*
X134731D01*
X135064Y-106500D01*
Y-107500D01*
Y-106834D02*
X135731Y-106167D01*
Y-105501D02*
Y-104834D01*
Y-105167D01*
X133731D01*
X134065Y-105501D01*
X135731Y-103834D02*
Y-103168D01*
Y-103501D01*
X133731D01*
X134065Y-103834D01*
X125500Y-67983D02*
Y-69982D01*
X124500D01*
X124167Y-69649D01*
Y-68982D01*
X124500Y-68649D01*
X125500D01*
X124833D02*
X124167Y-67983D01*
X123500D02*
X122834D01*
X123167D01*
Y-69982D01*
X123500Y-69649D01*
X121834D02*
X121501Y-69982D01*
X120835D01*
X120501Y-69649D01*
Y-68316D01*
X120835Y-67983D01*
X121501D01*
X121834Y-68316D01*
Y-69649D01*
X113000Y-71424D02*
X114999D01*
Y-72424D01*
X114666Y-72757D01*
X114000D01*
X113666Y-72424D01*
Y-71424D01*
Y-72090D02*
X113000Y-72757D01*
X113333Y-73423D02*
X113000Y-73756D01*
Y-74423D01*
X113333Y-74756D01*
X114666D01*
X114999Y-74423D01*
Y-73756D01*
X114666Y-73423D01*
X114333D01*
X114000Y-73756D01*
Y-74756D01*
X39500Y-116729D02*
Y-114729D01*
X40500D01*
X40833Y-115062D01*
Y-115729D01*
X40500Y-116062D01*
X39500D01*
X40167D02*
X40833Y-116729D01*
X41500Y-115062D02*
X41833Y-114729D01*
X42499D01*
X42833Y-115062D01*
Y-115396D01*
X42499Y-115729D01*
X42833Y-116062D01*
Y-116395D01*
X42499Y-116729D01*
X41833D01*
X41500Y-116395D01*
Y-116062D01*
X41833Y-115729D01*
X41500Y-115396D01*
Y-115062D01*
X41833Y-115729D02*
X42499D01*
X42234Y-149500D02*
Y-147501D01*
X43234D01*
X43567Y-147834D01*
Y-148501D01*
X43234Y-148834D01*
X42234D01*
X42901D02*
X43567Y-149500D01*
X44234Y-147501D02*
X45567D01*
Y-147834D01*
X44234Y-149167D01*
Y-149500D01*
X67619Y-61500D02*
Y-59501D01*
X68619D01*
X68952Y-59834D01*
Y-60500D01*
X68619Y-60834D01*
X67619D01*
X68286D02*
X68952Y-61500D01*
X70951Y-59501D02*
X70285Y-59834D01*
X69618Y-60500D01*
Y-61167D01*
X69952Y-61500D01*
X70618D01*
X70951Y-61167D01*
Y-60834D01*
X70618Y-60500D01*
X69618D01*
X74063Y-116479D02*
Y-114480D01*
X75063D01*
X75396Y-114813D01*
Y-115479D01*
X75063Y-115813D01*
X74063D01*
X74729D02*
X75396Y-116479D01*
X77395Y-114480D02*
X76062D01*
Y-115479D01*
X76729Y-115146D01*
X77062D01*
X77395Y-115479D01*
Y-116146D01*
X77062Y-116479D01*
X76396D01*
X76062Y-116146D01*
X69000Y-115500D02*
Y-113501D01*
X70000D01*
X70333Y-113834D01*
Y-114500D01*
X70000Y-114833D01*
X69000D01*
X69666D02*
X70333Y-115500D01*
X71999D02*
Y-113501D01*
X70999Y-114500D01*
X72332D01*
X78563Y-138479D02*
Y-140479D01*
X77563D01*
X77230Y-140145D01*
Y-139479D01*
X77563Y-139146D01*
X78563D01*
X77897D02*
X77230Y-138479D01*
X76564Y-140145D02*
X76230Y-140479D01*
X75564D01*
X75231Y-140145D01*
Y-139812D01*
X75564Y-139479D01*
X75897D01*
X75564D01*
X75231Y-139146D01*
Y-138812D01*
X75564Y-138479D01*
X76230D01*
X76564Y-138812D01*
X86328Y-121305D02*
Y-119306D01*
X87328D01*
X87661Y-119639D01*
Y-120306D01*
X87328Y-120639D01*
X86328D01*
X86995D02*
X87661Y-121305D01*
X89661D02*
X88328D01*
X89661Y-119972D01*
Y-119639D01*
X89327Y-119306D01*
X88661D01*
X88328Y-119639D01*
X-64500Y-73600D02*
Y-71601D01*
X-63500D01*
X-63167Y-71934D01*
Y-72600D01*
X-63500Y-72934D01*
X-64500D01*
X-63834D02*
X-63167Y-73600D01*
X-62501D02*
X-61834D01*
X-62167D01*
Y-71601D01*
X-62501Y-71934D01*
X85829Y-78095D02*
X87829D01*
Y-76762D01*
X85829Y-74763D02*
Y-76096D01*
X87829D01*
Y-74763D01*
X86829Y-76096D02*
Y-75429D01*
X85829Y-74096D02*
X87829D01*
Y-73097D01*
X87495Y-72763D01*
X86163D01*
X85829Y-73097D01*
Y-74096D01*
X87829Y-72097D02*
Y-71430D01*
Y-71764D01*
X85829D01*
X86163Y-72097D01*
Y-70431D02*
X85829Y-70098D01*
Y-69431D01*
X86163Y-69098D01*
X86496D01*
X86829Y-69431D01*
Y-69764D01*
Y-69431D01*
X87162Y-69098D01*
X87495D01*
X87829Y-69431D01*
Y-70098D01*
X87495Y-70431D01*
X85829Y-93052D02*
X87829D01*
Y-91719D01*
X85829Y-89720D02*
Y-91053D01*
X87829D01*
Y-89720D01*
X86829Y-91053D02*
Y-90386D01*
X85829Y-89053D02*
X87829D01*
Y-88054D01*
X87495Y-87720D01*
X86163D01*
X85829Y-88054D01*
Y-89053D01*
X87829Y-87054D02*
Y-86387D01*
Y-86721D01*
X85829D01*
X86163Y-87054D01*
X87829Y-84055D02*
Y-85388D01*
X86496Y-84055D01*
X86163D01*
X85829Y-84388D01*
Y-85054D01*
X86163Y-85388D01*
X104328Y-161634D02*
Y-163634D01*
X105661D01*
X107660Y-161634D02*
X106328D01*
Y-163634D01*
X107660D01*
X106328Y-162634D02*
X106994D01*
X108327Y-161634D02*
Y-163634D01*
X109327D01*
X109660Y-163300D01*
Y-161967D01*
X109327Y-161634D01*
X108327D01*
X110326Y-163300D02*
X110660Y-163634D01*
X111326D01*
X111659Y-163300D01*
Y-161967D01*
X111326Y-161634D01*
X110660D01*
X110326Y-161967D01*
Y-162301D01*
X110660Y-162634D01*
X111659D01*
X85829Y-133805D02*
X87828D01*
Y-132472D01*
X85829Y-130473D02*
Y-131806D01*
X87828D01*
Y-130473D01*
X86829Y-131806D02*
Y-131139D01*
X85829Y-129806D02*
X87828D01*
Y-128807D01*
X87495Y-128474D01*
X86162D01*
X85829Y-128807D01*
Y-129806D01*
X86162Y-127807D02*
X85829Y-127474D01*
Y-126807D01*
X86162Y-126474D01*
X86495D01*
X86829Y-126807D01*
X87162Y-126474D01*
X87495D01*
X87828Y-126807D01*
Y-127474D01*
X87495Y-127807D01*
X87162D01*
X86829Y-127474D01*
X86495Y-127807D01*
X86162D01*
X86829Y-127474D02*
Y-126807D01*
X139500Y-167001D02*
Y-169000D01*
X140833D01*
X142832Y-167001D02*
X141499D01*
Y-169000D01*
X142832D01*
X141499Y-168000D02*
X142166D01*
X143499Y-167001D02*
Y-169000D01*
X144498D01*
X144832Y-168667D01*
Y-167334D01*
X144498Y-167001D01*
X143499D01*
X145498D02*
X146831D01*
Y-167334D01*
X145498Y-168667D01*
Y-169000D01*
X26253Y-42501D02*
X25586D01*
X25919D01*
Y-44167D01*
X25586Y-44500D01*
X25253D01*
X24920Y-44167D01*
X26919Y-44500D02*
Y-42501D01*
X27919D01*
X28252Y-42834D01*
Y-43500D01*
X27919Y-43834D01*
X26919D01*
X30251Y-44500D02*
X28918D01*
X30251Y-43167D01*
Y-42834D01*
X29918Y-42501D01*
X29252D01*
X28918Y-42834D01*
X-2000Y-133364D02*
X-1333D01*
X-1667D01*
Y-135364D01*
X-2000D01*
X-1333D01*
X999Y-133697D02*
X666Y-133364D01*
X-1D01*
X-334Y-133697D01*
Y-135030D01*
X-1Y-135364D01*
X666D01*
X999Y-135030D01*
X1665Y-135364D02*
X2332D01*
X1999D01*
Y-133364D01*
X1665Y-133697D01*
X132251Y-183667D02*
Y-185000D01*
X133250D01*
Y-184334D01*
Y-185000D01*
X134250D01*
Y-183001D02*
Y-182334D01*
Y-182667D01*
X132251D01*
X132584Y-183001D01*
X-13233Y-73608D02*
X-14566D01*
Y-75607D01*
X-13233D01*
X-14566Y-74607D02*
X-13900D01*
X-12567Y-73608D02*
X-11234D01*
Y-73941D01*
X-12567Y-75274D01*
Y-75607D01*
X54833Y-152000D02*
X53500D01*
Y-154000D01*
X54833D01*
X53500Y-153000D02*
X54166D01*
X56832Y-152000D02*
X56166Y-152333D01*
X55499Y-153000D01*
Y-153666D01*
X55833Y-154000D01*
X56499D01*
X56832Y-153666D01*
Y-153333D01*
X56499Y-153000D01*
X55499D01*
X98833Y-165501D02*
X97500D01*
Y-167500D01*
X98833D01*
X97500Y-166500D02*
X98166D01*
X100832Y-165501D02*
X99499D01*
Y-166500D01*
X100166Y-166167D01*
X100499D01*
X100832Y-166500D01*
Y-167167D01*
X100499Y-167500D01*
X99833D01*
X99499Y-167167D01*
X55353Y-183369D02*
X54020D01*
Y-185368D01*
X55353D01*
X54020Y-184368D02*
X54686D01*
X57019Y-185368D02*
Y-183369D01*
X56019Y-184368D01*
X57352D01*
X98833Y-187501D02*
X97500D01*
Y-189500D01*
X98833D01*
X97500Y-188500D02*
X98166D01*
X99499Y-187834D02*
X99833Y-187501D01*
X100499D01*
X100832Y-187834D01*
Y-188167D01*
X100499Y-188500D01*
X100166D01*
X100499D01*
X100832Y-188833D01*
Y-189167D01*
X100499Y-189500D01*
X99833D01*
X99499Y-189167D01*
X-40625Y-62800D02*
X-38625D01*
Y-61800D01*
X-38959Y-61467D01*
X-40292D01*
X-40625Y-61800D01*
Y-62800D01*
X-38625Y-60801D02*
Y-60134D01*
Y-60467D01*
X-40625D01*
X-40292Y-60801D01*
Y-59135D02*
X-40625Y-58801D01*
Y-58135D01*
X-40292Y-57802D01*
X-38959D01*
X-38625Y-58135D01*
Y-58801D01*
X-38959Y-59135D01*
X-40292D01*
X-41119Y-117800D02*
X-39120D01*
Y-116800D01*
X-39453Y-116467D01*
X-40786D01*
X-41119Y-116800D01*
Y-117800D01*
X-39453Y-115801D02*
X-39120Y-115467D01*
Y-114801D01*
X-39453Y-114468D01*
X-40786D01*
X-41119Y-114801D01*
Y-115467D01*
X-40786Y-115801D01*
X-40453D01*
X-40120Y-115467D01*
Y-114468D01*
X-14753Y-66981D02*
X-16753D01*
Y-67981D01*
X-16420Y-68314D01*
X-15087D01*
X-14753Y-67981D01*
Y-66981D01*
X-15087Y-68980D02*
X-14753Y-69314D01*
Y-69980D01*
X-15087Y-70313D01*
X-15420D01*
X-15753Y-69980D01*
X-16086Y-70313D01*
X-16420D01*
X-16753Y-69980D01*
Y-69314D01*
X-16420Y-68980D01*
X-16086D01*
X-15753Y-69314D01*
X-15420Y-68980D01*
X-15087D01*
X-15753Y-69314D02*
Y-69980D01*
X-14626Y-102922D02*
X-16625D01*
Y-103922D01*
X-16292Y-104255D01*
X-14959D01*
X-14626Y-103922D01*
Y-102922D01*
Y-104922D02*
Y-106255D01*
X-14959D01*
X-16292Y-104922D01*
X-16625D01*
X149251Y-70483D02*
X151250D01*
Y-69484D01*
X150917Y-69150D01*
X149584D01*
X149251Y-69484D01*
Y-70483D01*
X151250Y-67151D02*
Y-68484D01*
X149917Y-67151D01*
X149584D01*
X149251Y-67484D01*
Y-68151D01*
X149584Y-68484D01*
X151249Y-59424D02*
X149250D01*
Y-60424D01*
X149583Y-60757D01*
X150916D01*
X151249Y-60424D01*
Y-59424D01*
X149250Y-61423D02*
Y-62090D01*
Y-61756D01*
X151249D01*
X150916Y-61423D01*
X-11359Y-68400D02*
X-11026Y-68066D01*
Y-67400D01*
X-11359Y-67067D01*
X-12692D01*
X-13025Y-67400D01*
Y-68066D01*
X-12692Y-68400D01*
X-11359Y-69066D02*
X-11026Y-69399D01*
Y-70066D01*
X-11359Y-70399D01*
X-11693D01*
X-12026Y-70066D01*
Y-69732D01*
Y-70066D01*
X-12359Y-70399D01*
X-12692D01*
X-13025Y-70066D01*
Y-69399D01*
X-12692Y-69066D01*
X-13025Y-71065D02*
Y-71732D01*
Y-71399D01*
X-11026D01*
X-11359Y-71065D01*
X-13391Y-106183D02*
X-13724Y-106516D01*
Y-107183D01*
X-13391Y-107516D01*
X-12058D01*
X-11725Y-107183D01*
Y-106516D01*
X-12058Y-106183D01*
X-13391Y-105517D02*
X-13724Y-105183D01*
Y-104517D01*
X-13391Y-104184D01*
X-13058D01*
X-12725Y-104517D01*
Y-104850D01*
Y-104517D01*
X-12392Y-104184D01*
X-12058D01*
X-11725Y-104517D01*
Y-105183D01*
X-12058Y-105517D01*
X-13391Y-103517D02*
X-13724Y-103184D01*
Y-102517D01*
X-13391Y-102184D01*
X-12058D01*
X-11725Y-102517D01*
Y-103184D01*
X-12058Y-103517D01*
X-13391D01*
X47861Y-172726D02*
X47528Y-173059D01*
Y-173725D01*
X47861Y-174059D01*
X49194D01*
X49527Y-173725D01*
Y-173059D01*
X49194Y-172726D01*
X49527Y-170727D02*
Y-172059D01*
X48194Y-170727D01*
X47861D01*
X47528Y-171060D01*
Y-171726D01*
X47861Y-172059D01*
X49527Y-169060D02*
X47528D01*
X48528Y-170060D01*
Y-168727D01*
X100353Y-172607D02*
X100020Y-172941D01*
Y-173607D01*
X100353Y-173940D01*
X101686D01*
X102019Y-173607D01*
Y-172941D01*
X101686Y-172607D01*
X102019Y-170608D02*
Y-171941D01*
X100687Y-170608D01*
X100353D01*
X100020Y-170941D01*
Y-171608D01*
X100353Y-171941D01*
Y-169942D02*
X100020Y-169608D01*
Y-168942D01*
X100353Y-168609D01*
X100687D01*
X101020Y-168942D01*
Y-169275D01*
Y-168942D01*
X101353Y-168609D01*
X101686D01*
X102019Y-168942D01*
Y-169608D01*
X101686Y-169942D01*
X-5148Y-68700D02*
X-4815Y-68367D01*
Y-67700D01*
X-5148Y-67367D01*
X-6481D01*
X-6814Y-67700D01*
Y-68367D01*
X-6481Y-68700D01*
X-6814Y-70700D02*
Y-69367D01*
X-5482Y-70700D01*
X-5148D01*
X-4815Y-70366D01*
Y-69700D01*
X-5148Y-69367D01*
X-6814Y-72699D02*
Y-71366D01*
X-5482Y-72699D01*
X-5148D01*
X-4815Y-72366D01*
Y-71699D01*
X-5148Y-71366D01*
X-7621Y-106081D02*
X-7954Y-106414D01*
Y-107081D01*
X-7621Y-107414D01*
X-6288D01*
X-5955Y-107081D01*
Y-106414D01*
X-6288Y-106081D01*
X-5955Y-104082D02*
Y-105415D01*
X-7288Y-104082D01*
X-7621D01*
X-7954Y-104415D01*
Y-105081D01*
X-7621Y-105415D01*
X-5955Y-103415D02*
Y-102749D01*
Y-103082D01*
X-7954D01*
X-7621Y-103415D01*
X47854Y-203610D02*
X47520Y-203943D01*
Y-204610D01*
X47854Y-204943D01*
X49187D01*
X49520Y-204610D01*
Y-203943D01*
X49187Y-203610D01*
X49520Y-202944D02*
Y-202277D01*
Y-202610D01*
X47520D01*
X47854Y-202944D01*
X49187Y-201278D02*
X49520Y-200944D01*
Y-200278D01*
X49187Y-199945D01*
X47854D01*
X47520Y-200278D01*
Y-200944D01*
X47854Y-201278D01*
X48187D01*
X48520Y-200944D01*
Y-199945D01*
X99854Y-194535D02*
X99520Y-194868D01*
Y-195535D01*
X99854Y-195868D01*
X101187D01*
X101520Y-195535D01*
Y-194868D01*
X101187Y-194535D01*
X101520Y-193869D02*
Y-193202D01*
Y-193535D01*
X99520D01*
X99854Y-193869D01*
Y-192202D02*
X99520Y-191869D01*
Y-191203D01*
X99854Y-190870D01*
X100187D01*
X100520Y-191203D01*
X100853Y-190870D01*
X101187D01*
X101520Y-191203D01*
Y-191869D01*
X101187Y-192202D01*
X100853D01*
X100520Y-191869D01*
X100187Y-192202D01*
X99854D01*
X100520Y-191869D02*
Y-191203D01*
X99225Y-103757D02*
X99558Y-103424D01*
Y-102757D01*
X99225Y-102424D01*
X97892D01*
X97559Y-102757D01*
Y-103424D01*
X97892Y-103757D01*
X97559Y-104423D02*
Y-105090D01*
Y-104757D01*
X99558D01*
X99225Y-104423D01*
X99558Y-106090D02*
Y-107423D01*
X99225D01*
X97892Y-106090D01*
X97559D01*
X52977Y-144678D02*
X52643Y-144345D01*
X51977D01*
X51644Y-144678D01*
Y-146011D01*
X51977Y-146345D01*
X52643D01*
X52977Y-146011D01*
X53643Y-146345D02*
X54309D01*
X53976D01*
Y-144345D01*
X53643Y-144678D01*
X56642Y-144345D02*
X55976Y-144678D01*
X55309Y-145345D01*
Y-146011D01*
X55642Y-146345D01*
X56309D01*
X56642Y-146011D01*
Y-145678D01*
X56309Y-145345D01*
X55309D01*
X-61513Y-128113D02*
X-61846Y-128446D01*
Y-129113D01*
X-61513Y-129446D01*
X-60180D01*
X-59847Y-129113D01*
Y-128446D01*
X-60180Y-128113D01*
X-59847Y-127447D02*
Y-126780D01*
Y-127113D01*
X-61846D01*
X-61513Y-127447D01*
X-61846Y-124448D02*
Y-125781D01*
X-60846D01*
X-61179Y-125114D01*
Y-124781D01*
X-60846Y-124448D01*
X-60180D01*
X-59847Y-124781D01*
Y-125447D01*
X-60180Y-125781D01*
X46733Y-144636D02*
X46399Y-144303D01*
X45733D01*
X45400Y-144636D01*
Y-145969D01*
X45733Y-146302D01*
X46399D01*
X46733Y-145969D01*
X47399Y-146302D02*
X48066D01*
X47732D01*
Y-144303D01*
X47399Y-144636D01*
X50065Y-146302D02*
Y-144303D01*
X49065Y-145302D01*
X50398D01*
X29794Y-113217D02*
Y-112746D01*
X29323Y-112275D01*
X28851Y-112275D01*
X27909Y-113217D01*
Y-113689D01*
X28380Y-114160D01*
X28851Y-114160D01*
X29087Y-114867D02*
X29558Y-115338D01*
X29323Y-115102D01*
X30736Y-113689D01*
X30265Y-113689D01*
X31443Y-114867D02*
X31914Y-114867D01*
X32386Y-115338D01*
Y-115809D01*
X32150Y-116045D01*
X31679D01*
X31443Y-115809D01*
X31679Y-116045D01*
X31679Y-116516D01*
X31443Y-116752D01*
X30972Y-116752D01*
X30501Y-116280D01*
Y-115809D01*
X59764Y-99608D02*
X59293D01*
X58822Y-100079D01*
X58822Y-100550D01*
X59764Y-101493D01*
X60236D01*
X60707Y-101022D01*
X60707Y-100550D01*
X61414Y-100315D02*
X61885Y-99844D01*
X61649Y-100079D01*
X60236Y-98665D01*
X60236Y-99137D01*
X63534Y-98194D02*
X62592Y-99137D01*
Y-97252D01*
X62356Y-97016D01*
X61885D01*
X61414Y-97487D01*
X61414Y-97958D01*
X-1236Y-73236D02*
X-1707D01*
X-2178Y-73707D01*
X-2178Y-74178D01*
X-1236Y-75121D01*
X-764D01*
X-293Y-74650D01*
X-293Y-74178D01*
X414Y-73943D02*
X885Y-73471D01*
X649Y-73707D01*
X-764Y-72293D01*
X-764Y-72765D01*
X1592D02*
X2063Y-72293D01*
X1828Y-72529D01*
X414Y-71115D01*
X414Y-71587D01*
X44121Y-65764D02*
Y-65293D01*
X43649Y-64822D01*
X43178Y-64822D01*
X42236Y-65764D01*
Y-66236D01*
X42707Y-66707D01*
X43178Y-66707D01*
X43414Y-67414D02*
X43885Y-67885D01*
X43649Y-67649D01*
X45063Y-66236D01*
X44592Y-66236D01*
X45770Y-67414D02*
X46241Y-67414D01*
X46712Y-67885D01*
Y-68356D01*
X45770Y-69299D01*
X45299Y-69299D01*
X44827Y-68827D01*
Y-68356D01*
X45770Y-67414D01*
X130166Y-80833D02*
X130499Y-80500D01*
Y-79833D01*
X130166Y-79500D01*
X128833D01*
X128500Y-79833D01*
Y-80500D01*
X128833Y-80833D01*
X130166Y-81499D02*
X130499Y-81833D01*
Y-82499D01*
X130166Y-82832D01*
X129833D01*
X129500Y-82499D01*
X129166Y-82832D01*
X128833D01*
X128500Y-82499D01*
Y-81833D01*
X128833Y-81499D01*
X129166D01*
X129500Y-81833D01*
X129833Y-81499D01*
X130166D01*
X129500Y-81833D02*
Y-82499D01*
X-736Y-69974D02*
X-1207D01*
X-1678Y-70446D01*
X-1678Y-70917D01*
X-736Y-71859D01*
X-264D01*
X207Y-71388D01*
X207Y-70917D01*
X-500Y-69267D02*
X442Y-68325D01*
X678Y-68561D01*
Y-70446D01*
X914Y-70681D01*
X22764Y-52020D02*
X22293D01*
X21822Y-52491D01*
X21822Y-52962D01*
X22764Y-53905D01*
X23236D01*
X23707Y-53434D01*
X23707Y-52962D01*
X23943Y-50371D02*
X23707Y-51078D01*
Y-52020D01*
X24178Y-52491D01*
X24649D01*
X25121Y-52020D01*
Y-51549D01*
X24885Y-51313D01*
X24414D01*
X23707Y-52020D01*
X98066Y-119139D02*
X97733Y-118806D01*
X97067D01*
X96733Y-119139D01*
Y-120472D01*
X97067Y-120805D01*
X97733D01*
X98066Y-120472D01*
X100066Y-118806D02*
X98733D01*
Y-119806D01*
X99399Y-119472D01*
X99733D01*
X100066Y-119806D01*
Y-120472D01*
X99733Y-120805D01*
X99066D01*
X98733Y-120472D01*
X48833Y-119834D02*
X48500Y-119501D01*
X47833D01*
X47500Y-119834D01*
Y-121167D01*
X47833Y-121500D01*
X48500D01*
X48833Y-121167D01*
X50499Y-121500D02*
Y-119501D01*
X49499Y-120500D01*
X50832D01*
X74729Y-142312D02*
X75062Y-141979D01*
Y-141312D01*
X74729Y-140979D01*
X73396D01*
X73063Y-141312D01*
Y-141979D01*
X73396Y-142312D01*
X74729Y-142979D02*
X75062Y-143312D01*
Y-143978D01*
X74729Y-144311D01*
X74396D01*
X74063Y-143978D01*
Y-143645D01*
Y-143978D01*
X73729Y-144311D01*
X73396D01*
X73063Y-143978D01*
Y-143312D01*
X73396Y-142979D01*
M02*
