G04*
G04 #@! TF.GenerationSoftware,Altium Limited,Altium Designer,18.1.9 (240)*
G04*
G04 Layer_Color=2752767*
%FSLAX25Y25*%
%MOIN*%
G70*
G01*
G75*
%ADD10C,0.00200*%
%ADD11C,0.00267*%
D10*
X76200Y-108265D02*
Y-106665D01*
X77800D01*
Y-108265D01*
X76200D01*
Y-98265D02*
Y-96665D01*
X77800D01*
Y-98265D01*
X76200D01*
Y-88265D02*
Y-86665D01*
X77800D01*
Y-88265D01*
X76200D01*
Y-78265D02*
Y-76665D01*
X77800D01*
Y-78265D01*
X76200D01*
Y-68265D02*
Y-66665D01*
X77800D01*
Y-68265D01*
X76200D01*
Y-58265D02*
Y-56665D01*
X77800D01*
Y-58265D01*
X76200D01*
Y-48265D02*
Y-46665D01*
X77800D01*
Y-48265D01*
X76200D01*
X65200Y-48300D02*
Y-46700D01*
X66800D01*
Y-48300D01*
X65200D01*
X55200D02*
Y-46700D01*
X56800D01*
Y-48300D01*
X55200D01*
X45200D02*
Y-46700D01*
X46800D01*
Y-48300D01*
X45200D01*
X35200D02*
Y-46700D01*
X36800D01*
Y-48300D01*
X35200D01*
X130000Y-208300D02*
X129200Y-206700D01*
X130800D01*
X130000Y-208300D01*
X122126Y-208300D02*
X121326Y-206700D01*
X122926D01*
X122126Y-208300D01*
X153200Y-186800D02*
Y-185200D01*
X154800D01*
Y-186800D01*
X153200D01*
Y-176800D02*
Y-175200D01*
X154800D01*
Y-176800D01*
X153200D01*
X151998Y-151254D02*
X152398Y-150855D01*
X152798D01*
X152398Y-150454D01*
X152798Y-150055D01*
X152398D01*
X151998Y-149654D01*
X151598Y-150055D01*
X151198D01*
X151598Y-150454D01*
X151198Y-150855D01*
X151598D01*
X151998Y-151254D01*
X140528Y-127436D02*
X140928Y-126636D01*
X140528Y-125836D01*
X141328Y-126236D01*
X142128Y-125836D01*
X141728Y-126636D01*
X142128Y-127436D01*
X141328Y-127036D01*
X140528Y-127436D01*
Y-146530D02*
X140928Y-145730D01*
X140528Y-144930D01*
X141328Y-145330D01*
X142128Y-144930D01*
X141728Y-145730D01*
X142128Y-146530D01*
X141328Y-146130D01*
X140528Y-146530D01*
X151998Y-122711D02*
X152398Y-122311D01*
X152798D01*
X152398Y-121911D01*
X152798Y-121511D01*
X152398D01*
X151998Y-121111D01*
X151598Y-121511D01*
X151198D01*
X151598Y-121911D01*
X151198Y-122311D01*
X151598D01*
X151998Y-122711D01*
X-75300Y-74800D02*
Y-73200D01*
X-73700D01*
Y-74800D01*
X-75300D01*
Y-94800D02*
Y-93200D01*
X-73700D01*
Y-94800D01*
X-75300D01*
Y-134800D02*
Y-133200D01*
X-73700D01*
Y-134800D01*
X-75300D01*
Y-144800D02*
Y-143200D01*
X-73700D01*
Y-144800D01*
X-75300D01*
Y-164800D02*
Y-163200D01*
X-73700D01*
Y-164800D01*
X-75300D01*
Y-204800D02*
Y-203200D01*
X-73700D01*
Y-204800D01*
X-75300D01*
Y-194800D02*
Y-193200D01*
X-73700D01*
Y-194800D01*
X-75300D01*
Y-184800D02*
Y-183200D01*
X-73700D01*
Y-184800D01*
X-75300D01*
Y-174800D02*
Y-173200D01*
X-73700D01*
Y-174800D01*
X-75300D01*
Y-154800D02*
Y-153200D01*
X-73700D01*
Y-154800D01*
X-75300D01*
Y-124800D02*
Y-123200D01*
X-73700D01*
Y-124800D01*
X-75300D01*
Y-114800D02*
Y-113200D01*
X-73700D01*
Y-114800D01*
X-75300D01*
Y-104800D02*
Y-103200D01*
X-73700D01*
Y-104800D01*
X-75300D01*
Y-84800D02*
Y-83200D01*
X-73700D01*
Y-84800D01*
X-75300D01*
Y-64800D02*
Y-63200D01*
X-73700D01*
Y-64800D01*
X-75300D01*
Y-54800D02*
Y-53200D01*
X-73700D01*
Y-54800D01*
X-75300D01*
X47312Y-203961D02*
Y-204361D01*
X48112D01*
Y-203961D01*
X48512D01*
Y-203161D01*
X48112D01*
Y-202761D01*
X47312D01*
Y-203161D01*
X46912D01*
Y-203961D01*
X47312D01*
X99678Y-191650D02*
Y-192050D01*
X100478D01*
Y-191650D01*
X100879D01*
Y-190850D01*
X100478D01*
Y-190450D01*
X99678D01*
Y-190850D01*
X99278D01*
Y-191650D01*
X99678D01*
X100312Y-169707D02*
Y-170107D01*
X101112D01*
Y-169707D01*
X101512D01*
Y-168907D01*
X101112D01*
Y-168507D01*
X100312D01*
Y-168907D01*
X99912D01*
Y-169707D01*
X100312D01*
X-38900Y-141038D02*
Y-141438D01*
X-38100D01*
Y-141038D01*
X-37700D01*
Y-140238D01*
X-38100D01*
Y-139838D01*
X-38900D01*
Y-140238D01*
X-39300D01*
Y-141038D01*
X-38900D01*
X-28900D02*
Y-141438D01*
X-28100D01*
Y-141038D01*
X-27700D01*
Y-140238D01*
X-28100D01*
Y-139838D01*
X-28900D01*
Y-140238D01*
X-29300D01*
Y-141038D01*
X-28900D01*
X-18900D02*
Y-141438D01*
X-18100D01*
Y-141038D01*
X-17700D01*
Y-140238D01*
X-18100D01*
Y-139838D01*
X-18900D01*
Y-140238D01*
X-19300D01*
Y-141038D01*
X-18900D01*
X-23900Y-153289D02*
Y-153689D01*
X-23100D01*
Y-153289D01*
X-22700D01*
Y-152489D01*
X-23100D01*
Y-152089D01*
X-23900D01*
Y-152489D01*
X-24300D01*
Y-153289D01*
X-23900D01*
X-33900D02*
Y-153689D01*
X-33100D01*
Y-153289D01*
X-32700D01*
Y-152489D01*
X-33100D01*
Y-152089D01*
X-33900D01*
Y-152489D01*
X-34300D01*
Y-153289D01*
X-33900D01*
X-43900D02*
Y-153689D01*
X-43100D01*
Y-153289D01*
X-42700D01*
Y-152489D01*
X-43100D01*
Y-152089D01*
X-43900D01*
Y-152489D01*
X-44300D01*
Y-153289D01*
X-43900D01*
X-38790Y-180038D02*
Y-180438D01*
X-37990D01*
Y-180038D01*
X-37590D01*
Y-179238D01*
X-37990D01*
Y-178838D01*
X-38790D01*
Y-179238D01*
X-39190D01*
Y-180038D01*
X-38790D01*
X-28790D02*
Y-180438D01*
X-27990D01*
Y-180038D01*
X-27590D01*
Y-179238D01*
X-27990D01*
Y-178838D01*
X-28790D01*
Y-179238D01*
X-29190D01*
Y-180038D01*
X-28790D01*
X-18790D02*
Y-180438D01*
X-17990D01*
Y-180038D01*
X-17590D01*
Y-179238D01*
X-17990D01*
Y-178838D01*
X-18790D01*
Y-179238D01*
X-19190D01*
Y-180038D01*
X-18790D01*
X-23790Y-192289D02*
Y-192689D01*
X-22990D01*
Y-192289D01*
X-22590D01*
Y-191489D01*
X-22990D01*
Y-191089D01*
X-23790D01*
Y-191489D01*
X-24190D01*
Y-192289D01*
X-23790D01*
X-33790D02*
Y-192689D01*
X-32990D01*
Y-192289D01*
X-32590D01*
Y-191489D01*
X-32990D01*
Y-191089D01*
X-33790D01*
Y-191489D01*
X-34190D01*
Y-192289D01*
X-33790D01*
X-43790D02*
Y-192689D01*
X-42990D01*
Y-192289D01*
X-42590D01*
Y-191489D01*
X-42990D01*
Y-191089D01*
X-43790D01*
Y-191489D01*
X-44190D01*
Y-192289D01*
X-43790D01*
X-46900Y-104400D02*
Y-104800D01*
X-46100D01*
Y-104400D01*
X-45700D01*
Y-103600D01*
X-46100D01*
Y-103200D01*
X-46900D01*
Y-103600D01*
X-47300D01*
Y-104400D01*
X-46900D01*
X-48400Y-102400D02*
Y-102800D01*
X-47600D01*
Y-102400D01*
X-47200D01*
Y-101600D01*
X-47600D01*
Y-101200D01*
X-48400D01*
Y-101600D01*
X-48800D01*
Y-102400D01*
X-48400D01*
X-47900Y-72400D02*
Y-72800D01*
X-47100D01*
Y-72400D01*
X-46700D01*
Y-71600D01*
X-47100D01*
Y-71200D01*
X-47900D01*
Y-71600D01*
X-48300D01*
Y-72400D01*
X-47900D01*
X-46900Y-70400D02*
Y-70800D01*
X-46100D01*
Y-70400D01*
X-45700D01*
Y-69600D01*
X-46100D01*
Y-69200D01*
X-46900D01*
Y-69600D01*
X-47300D01*
Y-70400D01*
X-46900D01*
Y-127400D02*
Y-127800D01*
X-46100D01*
Y-127400D01*
X-45700D01*
Y-126600D01*
X-46100D01*
Y-126200D01*
X-46900D01*
Y-126600D01*
X-47300D01*
Y-127400D01*
X-46900D01*
X49452Y-178241D02*
Y-178641D01*
X50252D01*
Y-178241D01*
X50652D01*
Y-177441D01*
X50252D01*
Y-177041D01*
X49452D01*
Y-177441D01*
X49052D01*
Y-178241D01*
X49452D01*
X117659Y-168400D02*
Y-168800D01*
X118459D01*
Y-168400D01*
X118859D01*
Y-167600D01*
X118459D01*
Y-167200D01*
X117659D01*
Y-167600D01*
X117259D01*
Y-168400D01*
X117659D01*
X51600Y-137926D02*
Y-138326D01*
X52400D01*
Y-137926D01*
X52800D01*
Y-137126D01*
X52400D01*
Y-136726D01*
X51600D01*
Y-137126D01*
X51200D01*
Y-137926D01*
X51600D01*
X381Y-122132D02*
Y-122531D01*
X1181D01*
Y-122132D01*
X1581D01*
Y-121332D01*
X1181D01*
Y-120931D01*
X381D01*
Y-121332D01*
X-19D01*
Y-122132D01*
X381D01*
X53579Y-106709D02*
Y-107109D01*
X54379D01*
Y-106709D01*
X54779D01*
Y-105909D01*
X54379D01*
Y-105509D01*
X53579D01*
Y-105909D01*
X53179D01*
Y-106709D01*
X53579D01*
X99600Y-97900D02*
Y-98300D01*
X100400D01*
Y-97900D01*
X100800D01*
Y-97100D01*
X100400D01*
Y-96700D01*
X99600D01*
Y-97100D01*
X99200D01*
Y-97900D01*
X99600D01*
X43299Y-101900D02*
Y-102300D01*
X44099D01*
Y-101900D01*
X44499D01*
Y-101100D01*
X44099D01*
Y-100700D01*
X43299D01*
Y-101100D01*
X42899D01*
Y-101900D01*
X43299D01*
X29112Y-84929D02*
Y-85329D01*
X29912D01*
Y-84929D01*
X30312D01*
Y-84128D01*
X29912D01*
Y-83728D01*
X29112D01*
Y-84128D01*
X28712D01*
Y-84929D01*
X29112D01*
X103600Y-102900D02*
Y-103300D01*
X104400D01*
Y-102900D01*
X104800D01*
Y-102100D01*
X104400D01*
Y-101700D01*
X103600D01*
Y-102100D01*
X103200D01*
Y-102900D01*
X103600D01*
X109600Y-76341D02*
Y-76741D01*
X110400D01*
Y-76341D01*
X110800D01*
Y-75541D01*
X110400D01*
Y-75141D01*
X109600D01*
Y-75541D01*
X109200D01*
Y-76341D01*
X109600D01*
X1100Y-71900D02*
Y-72300D01*
X1900D01*
Y-71900D01*
X2300D01*
Y-71100D01*
X1900D01*
Y-70700D01*
X1100D01*
Y-71100D01*
X700D01*
Y-71900D01*
X1100D01*
X-4900Y-100700D02*
Y-101100D01*
X-4100D01*
Y-100700D01*
X-3700D01*
Y-99900D01*
X-4100D01*
Y-99500D01*
X-4900D01*
Y-99900D01*
X-5300D01*
Y-100700D01*
X-4900D01*
X51876Y-118900D02*
Y-119300D01*
X52675D01*
Y-118900D01*
X53075D01*
Y-118100D01*
X52675D01*
Y-117700D01*
X51876D01*
Y-118100D01*
X51476D01*
Y-118900D01*
X51876D01*
X33600Y-102900D02*
Y-103300D01*
X34400D01*
Y-102900D01*
X34800D01*
Y-102100D01*
X34400D01*
Y-101700D01*
X33600D01*
Y-102100D01*
X33200D01*
Y-102900D01*
X33600D01*
X54100Y-116200D02*
Y-116600D01*
X54900D01*
Y-116200D01*
X55300D01*
Y-115400D01*
X54900D01*
Y-115000D01*
X54100D01*
Y-115400D01*
X53700D01*
Y-116200D01*
X54100D01*
X47627Y-114468D02*
Y-114868D01*
X48428D01*
Y-114468D01*
X48827D01*
Y-113668D01*
X48428D01*
Y-113268D01*
X47627D01*
Y-113668D01*
X47227D01*
Y-114468D01*
X47627D01*
X92929Y-72495D02*
Y-72895D01*
X93729D01*
Y-72495D01*
X94129D01*
Y-71695D01*
X93729D01*
Y-71295D01*
X92929D01*
Y-71695D01*
X92529D01*
Y-72495D01*
X92929D01*
Y-90495D02*
Y-90895D01*
X93729D01*
Y-90495D01*
X94129D01*
Y-89695D01*
X93729D01*
Y-89295D01*
X92929D01*
Y-89695D01*
X92529D01*
Y-90495D01*
X92929D01*
X41100Y-102485D02*
Y-102885D01*
X41900D01*
Y-102485D01*
X42300D01*
Y-101685D01*
X41900D01*
Y-101285D01*
X41100D01*
Y-101685D01*
X40700D01*
Y-102485D01*
X41100D01*
X91100Y-149130D02*
Y-149530D01*
X91900D01*
Y-149130D01*
X92300D01*
Y-148330D01*
X91900D01*
Y-147930D01*
X91100D01*
Y-148330D01*
X90700D01*
Y-149130D01*
X91100D01*
Y-143130D02*
Y-143530D01*
X91900D01*
Y-143130D01*
X92300D01*
Y-142330D01*
X91900D01*
Y-141930D01*
X91100D01*
Y-142330D01*
X90700D01*
Y-143130D01*
X91100D01*
X70100Y-92400D02*
Y-92800D01*
X70900D01*
Y-92400D01*
X71300D01*
Y-91600D01*
X70900D01*
Y-91200D01*
X70100D01*
Y-91600D01*
X69700D01*
Y-92400D01*
X70100D01*
X72100Y-90495D02*
Y-90895D01*
X72900D01*
Y-90495D01*
X73300D01*
Y-89695D01*
X72900D01*
Y-89295D01*
X72100D01*
Y-89695D01*
X71700D01*
Y-90495D01*
X72100D01*
X130350Y-61324D02*
Y-61724D01*
X131150D01*
Y-61324D01*
X131550D01*
Y-60524D01*
X131150D01*
Y-60124D01*
X130350D01*
Y-60524D01*
X129950D01*
Y-61324D01*
X130350D01*
X143850Y-69324D02*
Y-69724D01*
X144650D01*
Y-69324D01*
X145050D01*
Y-68524D01*
X144650D01*
Y-68124D01*
X143850D01*
Y-68524D01*
X143450D01*
Y-69324D01*
X143850D01*
X46600Y-57134D02*
Y-57534D01*
X47400D01*
Y-57134D01*
X47800D01*
Y-56334D01*
X47400D01*
Y-55934D01*
X46600D01*
Y-56334D01*
X46200D01*
Y-57134D01*
X46600D01*
X99024Y-105824D02*
Y-106224D01*
X99824D01*
Y-105824D01*
X100224D01*
Y-105024D01*
X99824D01*
Y-104624D01*
X99024D01*
Y-105024D01*
X98624D01*
Y-105824D01*
X99024D01*
X21876Y-106400D02*
Y-106800D01*
X22675D01*
Y-106400D01*
X23076D01*
Y-105600D01*
X22675D01*
Y-105200D01*
X21876D01*
Y-105600D01*
X21475D01*
Y-106400D01*
X21876D01*
X16047Y-101093D02*
Y-101493D01*
X16847D01*
Y-101093D01*
X17247D01*
Y-100293D01*
X16847D01*
Y-99893D01*
X16047D01*
Y-100293D01*
X15647D01*
Y-101093D01*
X16047D01*
X16458Y-103466D02*
Y-103866D01*
X17258D01*
Y-103466D01*
X17658D01*
Y-102666D01*
X17258D01*
Y-102266D01*
X16458D01*
Y-102666D01*
X16058D01*
Y-103466D01*
X16458D01*
X19100Y-103608D02*
Y-104008D01*
X19900D01*
Y-103608D01*
X20300D01*
Y-102808D01*
X19900D01*
Y-102408D01*
X19100D01*
Y-102808D01*
X18700D01*
Y-103608D01*
X19100D01*
X19397Y-106094D02*
Y-106494D01*
X20197D01*
Y-106094D01*
X20597D01*
Y-105294D01*
X20197D01*
Y-104894D01*
X19397D01*
Y-105294D01*
X18997D01*
Y-106094D01*
X19397D01*
X27689Y-160764D02*
Y-161164D01*
X28489D01*
Y-160764D01*
X28889D01*
Y-159964D01*
X28489D01*
Y-159564D01*
X27689D01*
Y-159964D01*
X27289D01*
Y-160764D01*
X27689D01*
X27579Y-155630D02*
Y-156030D01*
X28379D01*
Y-155630D01*
X28779D01*
Y-154830D01*
X28379D01*
Y-154430D01*
X27579D01*
Y-154830D01*
X27179D01*
Y-155630D01*
X27579D01*
Y-150764D02*
Y-151164D01*
X28379D01*
Y-150764D01*
X28779D01*
Y-149964D01*
X28379D01*
Y-149564D01*
X27579D01*
Y-149964D01*
X27179D01*
Y-150764D01*
X27579D01*
X27600Y-145764D02*
Y-146164D01*
X28400D01*
Y-145764D01*
X28800D01*
Y-144964D01*
X28400D01*
Y-144564D01*
X27600D01*
Y-144964D01*
X27200D01*
Y-145764D01*
X27600D01*
X83233Y-128400D02*
Y-128800D01*
X84034D01*
Y-128400D01*
X84434D01*
Y-127600D01*
X84034D01*
Y-127200D01*
X83233D01*
Y-127600D01*
X82833D01*
Y-128400D01*
X83233D01*
X51600Y-151984D02*
Y-152384D01*
X52400D01*
Y-151984D01*
X52800D01*
Y-151184D01*
X52400D01*
Y-150784D01*
X51600D01*
Y-151184D01*
X51200D01*
Y-151984D01*
X51600D01*
X-53400Y-96224D02*
Y-96624D01*
X-52600D01*
Y-96224D01*
X-52200D01*
Y-95424D01*
X-52600D01*
Y-95024D01*
X-53400D01*
Y-95424D01*
X-53800D01*
Y-96224D01*
X-53400D01*
Y-78322D02*
Y-78722D01*
X-52600D01*
Y-78322D01*
X-52200D01*
Y-77522D01*
X-52600D01*
Y-77122D01*
X-53400D01*
Y-77522D01*
X-53800D01*
Y-78322D01*
X-53400D01*
X20100Y-124800D02*
Y-125200D01*
X20900D01*
Y-124800D01*
X21300D01*
Y-124000D01*
X20900D01*
Y-123600D01*
X20100D01*
Y-124000D01*
X19700D01*
Y-124800D01*
X20100D01*
X-15066Y-158264D02*
Y-158664D01*
X-14266D01*
Y-158264D01*
X-13866D01*
Y-157464D01*
X-14266D01*
Y-157064D01*
X-15066D01*
Y-157464D01*
X-15466D01*
Y-158264D01*
X-15066D01*
X-15400Y-197264D02*
Y-197664D01*
X-14600D01*
Y-197264D01*
X-14200D01*
Y-196464D01*
X-14600D01*
Y-196064D01*
X-15400D01*
Y-196464D01*
X-15800D01*
Y-197264D01*
X-15400D01*
X-5282Y-200630D02*
Y-201030D01*
X-4482D01*
Y-200630D01*
X-4082D01*
Y-199830D01*
X-4482D01*
Y-199430D01*
X-5282D01*
Y-199830D01*
X-5682D01*
Y-200630D01*
X-5282D01*
X67219Y-92400D02*
Y-92800D01*
X68019D01*
Y-92400D01*
X68419D01*
Y-91600D01*
X68019D01*
Y-91200D01*
X67219D01*
Y-91600D01*
X66819D01*
Y-92400D01*
X67219D01*
X52340D02*
Y-92800D01*
X53140D01*
Y-92400D01*
X53540D01*
Y-91600D01*
X53140D01*
Y-91200D01*
X52340D01*
Y-91600D01*
X51940D01*
Y-92400D01*
X52340D01*
X66778Y-88900D02*
Y-89300D01*
X67578D01*
Y-88900D01*
X67978D01*
Y-88100D01*
X67578D01*
Y-87700D01*
X66778D01*
Y-88100D01*
X66378D01*
Y-88900D01*
X66778D01*
X56100Y-63900D02*
Y-64300D01*
X56900D01*
Y-63900D01*
X57300D01*
Y-63100D01*
X56900D01*
Y-62700D01*
X56100D01*
Y-63100D01*
X55700D01*
Y-63900D01*
X56100D01*
X60600Y-90222D02*
Y-90622D01*
X61400D01*
Y-90222D01*
X61800D01*
Y-89422D01*
X61400D01*
Y-89022D01*
X60600D01*
Y-89422D01*
X60200D01*
Y-90222D01*
X60600D01*
X59087Y-100985D02*
Y-101385D01*
X59887D01*
Y-100985D01*
X60287D01*
Y-100185D01*
X59887D01*
Y-99785D01*
X59087D01*
Y-100185D01*
X58687D01*
Y-100985D01*
X59087D01*
X57456Y-81955D02*
Y-82355D01*
X58256D01*
Y-81955D01*
X58656D01*
Y-81155D01*
X58256D01*
Y-80755D01*
X57456D01*
Y-81155D01*
X57056D01*
Y-81955D01*
X57456D01*
X54659Y-76400D02*
Y-76800D01*
X55459D01*
Y-76400D01*
X55859D01*
Y-75600D01*
X55459D01*
Y-75200D01*
X54659D01*
Y-75600D01*
X54259D01*
Y-76400D01*
X54659D01*
X57600Y-79027D02*
Y-79427D01*
X58400D01*
Y-79027D01*
X58800D01*
Y-78227D01*
X58400D01*
Y-77827D01*
X57600D01*
Y-78227D01*
X57200D01*
Y-79027D01*
X57600D01*
X51876Y-76400D02*
Y-76800D01*
X52675D01*
Y-76400D01*
X53075D01*
Y-75600D01*
X52675D01*
Y-75200D01*
X51876D01*
Y-75600D01*
X51476D01*
Y-76400D01*
X51876D01*
X118100Y-126205D02*
Y-126605D01*
X118900D01*
Y-126205D01*
X119300D01*
Y-125405D01*
X118900D01*
Y-125005D01*
X118100D01*
Y-125405D01*
X117700D01*
Y-126205D01*
X118100D01*
X15542Y-117900D02*
Y-118300D01*
X16342D01*
Y-117900D01*
X16742D01*
Y-117100D01*
X16342D01*
Y-116700D01*
X15542D01*
Y-117100D01*
X15142D01*
Y-117900D01*
X15542D01*
X32993Y-62993D02*
Y-63393D01*
X33793D01*
Y-62993D01*
X34193D01*
Y-62193D01*
X33793D01*
Y-61793D01*
X32993D01*
Y-62193D01*
X32593D01*
Y-62993D01*
X32993D01*
X88600Y-114629D02*
Y-115029D01*
X89400D01*
Y-114629D01*
X89800D01*
Y-113829D01*
X89400D01*
Y-113429D01*
X88600D01*
Y-113829D01*
X88200D01*
Y-114629D01*
X88600D01*
X96600Y-51400D02*
Y-51800D01*
X97400D01*
Y-51400D01*
X97800D01*
Y-50600D01*
X97400D01*
Y-50200D01*
X96600D01*
Y-50600D01*
X96200D01*
Y-51400D01*
X96600D01*
X88600D02*
Y-51800D01*
X89400D01*
Y-51400D01*
X89800D01*
Y-50600D01*
X89400D01*
Y-50200D01*
X88600D01*
Y-50600D01*
X88200D01*
Y-51400D01*
X88600D01*
X112369D02*
Y-51800D01*
X113169D01*
Y-51400D01*
X113569D01*
Y-50600D01*
X113169D01*
Y-50200D01*
X112369D01*
Y-50600D01*
X111969D01*
Y-51400D01*
X112369D01*
X143850Y-114820D02*
Y-115220D01*
X144650D01*
Y-114820D01*
X145050D01*
Y-114020D01*
X144650D01*
Y-113620D01*
X143850D01*
Y-114020D01*
X143450D01*
Y-114820D01*
X143850D01*
X128100Y-114400D02*
Y-114800D01*
X128900D01*
Y-114400D01*
X129300D01*
Y-113600D01*
X128900D01*
Y-113200D01*
X128100D01*
Y-113600D01*
X127700D01*
Y-114400D01*
X128100D01*
X136100Y-51400D02*
Y-51800D01*
X136900D01*
Y-51400D01*
X137300D01*
Y-50600D01*
X136900D01*
Y-50200D01*
X136100D01*
Y-50600D01*
X135700D01*
Y-51400D01*
X136100D01*
X143850D02*
Y-51800D01*
X144650D01*
Y-51400D01*
X145050D01*
Y-50600D01*
X144650D01*
Y-50200D01*
X143850D01*
Y-50600D01*
X143450D01*
Y-51400D01*
X143850D01*
X-12797Y-103897D02*
Y-104297D01*
X-11997D01*
Y-103897D01*
X-11597D01*
Y-103097D01*
X-11997D01*
Y-102697D01*
X-12797D01*
Y-103097D01*
X-13197D01*
Y-103897D01*
X-12797D01*
X-27645Y-103485D02*
Y-103885D01*
X-26845D01*
Y-103485D01*
X-26445D01*
Y-102685D01*
X-26845D01*
Y-102285D01*
X-27645D01*
Y-102685D01*
X-28045D01*
Y-103485D01*
X-27645D01*
X-10966Y-75586D02*
Y-75986D01*
X-10166D01*
Y-75586D01*
X-9766D01*
Y-74786D01*
X-10166D01*
Y-74386D01*
X-10966D01*
Y-74786D01*
X-11366D01*
Y-75586D01*
X-10966D01*
X-27645Y-71955D02*
Y-72355D01*
X-26845D01*
Y-71955D01*
X-26445D01*
Y-71155D01*
X-26845D01*
Y-70755D01*
X-27645D01*
Y-71155D01*
X-28045D01*
Y-71955D01*
X-27645D01*
X53100Y-108917D02*
Y-109317D01*
X53900D01*
Y-108917D01*
X54300D01*
Y-108117D01*
X53900D01*
Y-107717D01*
X53100D01*
Y-108117D01*
X52700D01*
Y-108917D01*
X53100D01*
X49100Y-70900D02*
Y-71300D01*
X49900D01*
Y-70900D01*
X50300D01*
Y-70100D01*
X49900D01*
Y-69700D01*
X49100D01*
Y-70100D01*
X48700D01*
Y-70900D01*
X49100D01*
X54674Y-79169D02*
Y-79569D01*
X55474D01*
Y-79169D01*
X55874D01*
Y-78369D01*
X55474D01*
Y-77969D01*
X54674D01*
Y-78369D01*
X54274D01*
Y-79169D01*
X54674D01*
X23100Y-110400D02*
Y-110800D01*
X23900D01*
Y-110400D01*
X24300D01*
Y-109600D01*
X23900D01*
Y-109200D01*
X23100D01*
Y-109600D01*
X22700D01*
Y-110400D01*
X23100D01*
X70744Y-120080D02*
Y-120480D01*
X71544D01*
Y-120080D01*
X71944D01*
Y-119280D01*
X71544D01*
Y-118880D01*
X70744D01*
Y-119280D01*
X70344D01*
Y-120080D01*
X70744D01*
X61663Y-127954D02*
Y-128354D01*
X62463D01*
Y-127954D01*
X62863D01*
Y-127154D01*
X62463D01*
Y-126754D01*
X61663D01*
Y-127154D01*
X61263D01*
Y-127954D01*
X61663D01*
D11*
X146942Y-207500D02*
G03*
X146942Y-207500I-800J0D01*
G01*
X114659D02*
G03*
X114659Y-207500I-800J0D01*
G01*
M02*
