M48
;Layer_Color=9474304
;FILE_FORMAT=2:5
INCH,TZ
;TYPE=PLATED
T1F00S00C0.01200
T2F00S00C0.01968
T4F00S00C0.02756
T5F00S00C0.03543
;TYPE=NON_PLATED
%
T01
X-33390Y-191889
X-23390
X-15000Y-196864
X-4882Y-200230
X-18390Y-179638
X-28390
X-23500Y-152889
X-33500
X-28500Y-140638
X-18500
X-14666Y-157864
X28089Y-160364
X27979Y-155230
Y-150364
X28000Y-145364
X52000Y-151584
X49852Y-177841
X47712Y-203561
X100078Y-191250
X100712Y-169307
X118059Y-168000
X91500Y-148730
Y-142730
X-38500Y-140638
X-43500Y-152889
X-38390Y-179638
X-43390Y-191889
X-46500Y-127000
Y-104000
X-48000Y-102000
X-53000Y-95824
Y-77922
X-47500Y-72000
X-46500Y-70000
X-27246Y-71555
X-10566Y-75186
X1500Y-71500
X-4500Y-100300
X-12397Y-103497
X-27246Y-103085
X16858Y-103066
X16447Y-100693
X19500Y-103208
X19797Y-105694
X22275Y-106000
X23500Y-110000
X15942Y-117500
X20500Y-124400
X781Y-121731
X34000Y-102500
X41500Y-102085
X43699Y-101500
X53979Y-106309
X53500Y-108517
X54500Y-115800
X52276Y-118500
X48028Y-114068
X59487Y-100585
X61000Y-89822
X67178Y-88500
X67619Y-92000
X70500
X72500Y-90095
X93329
X100000Y-97500
X99424Y-105424
X104000Y-102500
X89000Y-114229
X83634Y-128000
X71144Y-119680
X62063Y-127554
X52000Y-137526
X52740Y-92000
X57856Y-81555
X58000Y-78627
X55074Y-78769
X55059Y-76000
X52276
X49500Y-70500
X56500Y-63500
X47000Y-56734
X33393Y-62593
X29512Y-84528
X93329Y-72095
X110000Y-75941
X112769Y-51000
X97000
X89000
X118500Y-125805
X128500Y-114000
X144250Y-114420
Y-68924
Y-51000
X136500
X130750Y-60924
T02
X141328Y-145730
Y-126636
T04
X122126Y-207500
X130000Y-207500
T05
X154000Y-186000
Y-176000
X-74500Y-174000
Y-164000
Y-154000
Y-144000
Y-184000
Y-194000
Y-204000
Y-134000
Y-124000
Y-114000
Y-104000
Y-94000
Y-84000
Y-74000
Y-64000
Y-54000
X36000Y-47500
X46000
X56000
X66000
X77000Y-47465
Y-57465
Y-67465
Y-77465
Y-87465
Y-97465
Y-107465
M30
