G04*
G04 #@! TF.GenerationSoftware,Altium Limited,Altium Designer,18.1.9 (240)*
G04*
G04 Layer_Color=32896*
%FSLAX25Y25*%
%MOIN*%
G70*
G01*
G75*
%ADD11C,0.01000*%
%ADD14C,0.00787*%
%ADD15C,0.00800*%
%ADD17C,0.00700*%
%ADD19C,0.00400*%
D11*
X134000Y-177000D02*
X134087Y-178000D01*
X124000Y-177000D02*
X134000D01*
X124000D02*
Y-176000D01*
Y-166000D01*
X154000D01*
Y-170079D02*
Y-166000D01*
X150134Y-189835D02*
X154000D01*
X150079Y-189779D02*
X150134Y-189835D01*
X150079Y-189779D02*
Y-182079D01*
X150134Y-182134D01*
X150055Y-179882D02*
X154000D01*
X150055D02*
Y-172535D01*
X150110Y-172480D01*
X154000D01*
Y-172433D02*
Y-170079D01*
X134087Y-185000D02*
Y-178000D01*
X124362Y-185000D02*
X134087D01*
X124362Y-196591D02*
Y-185000D01*
Y-196591D02*
X124465Y-196693D01*
X154000Y-182134D02*
Y-179882D01*
X150134Y-182134D02*
X154000D01*
Y-192890D02*
Y-189835D01*
X151709Y-195181D02*
X154000Y-192890D01*
X124465Y-196693D02*
X150197D01*
X151709Y-195181D01*
X-74500Y-60000D02*
Y-58000D01*
X-78500D02*
X-74500D01*
X-78500D02*
Y-50000D01*
X-74500D01*
Y-70000D02*
Y-68000D01*
X-78500D02*
X-74500D01*
X-78500D02*
Y-60000D01*
X-74500D01*
Y-80000D02*
Y-78000D01*
X-78500D02*
X-74500D01*
X-78500D02*
Y-70000D01*
X-74500D01*
Y-90000D02*
Y-88000D01*
X-78500D02*
X-74500D01*
X-78500D02*
Y-80000D01*
X-74500D01*
X-78500Y-90000D02*
X-74500D01*
X-78500Y-98000D02*
Y-90000D01*
Y-98000D02*
X-74500D01*
Y-100000D02*
Y-98000D01*
X-78500Y-138000D02*
Y-130000D01*
Y-138000D02*
X-74500D01*
Y-140000D02*
Y-138000D01*
X-78500Y-140000D02*
X-74500D01*
X-78500Y-130000D02*
X-74500D01*
X-78500Y-148000D02*
Y-140000D01*
Y-148000D02*
X-74500D01*
Y-150000D02*
Y-148000D01*
X-78500Y-168000D02*
Y-160000D01*
Y-168000D02*
X-74500D01*
Y-170000D02*
Y-168000D01*
X-78445Y-170000D02*
X-74500D01*
X-94209Y-64000D02*
Y-56000D01*
X-78366Y-207835D02*
X-74500D01*
X-78421Y-207780D02*
X-78366Y-207835D01*
X-78421Y-207780D02*
Y-200079D01*
X-78366Y-200134D01*
X-78445Y-197882D02*
X-74500D01*
X-78445D02*
Y-190535D01*
X-78390Y-190480D01*
X-74500D01*
Y-190433D02*
Y-188079D01*
X-78421Y-188024D02*
X-74500D01*
X-78421Y-187945D02*
Y-180118D01*
X-78398Y-180095D01*
X-74500D01*
Y-177945D01*
X-78445Y-177890D02*
X-74500D01*
X-78445D02*
Y-170000D01*
X-103988Y-44000D02*
X-74500D01*
X-103988Y-56000D02*
Y-44000D01*
Y-56000D02*
X-94209D01*
X-104035Y-64000D02*
X-94209D01*
X-104035Y-194000D02*
Y-64000D01*
X-94413Y-202000D02*
Y-194000D01*
X-104138Y-202000D02*
X-94413D01*
X-104138Y-214591D02*
Y-202000D01*
Y-214591D02*
X-104035Y-214693D01*
X-74500Y-200134D02*
Y-197882D01*
X-78366Y-200134D02*
X-74500D01*
Y-210890D02*
Y-207835D01*
X-76791Y-213181D02*
X-74500Y-210890D01*
X-104035Y-214693D02*
X-78303D01*
X-76791Y-213181D01*
X-78500Y-160000D02*
X-74500D01*
Y-158000D01*
X-78500D02*
X-74500D01*
X-78500D02*
Y-150000D01*
X-74500D01*
X-104035Y-194000D02*
X-94413D01*
X-74500Y-130000D02*
Y-128000D01*
X-78500D02*
X-74500D01*
X-78500D02*
Y-120000D01*
Y-110000D02*
X-74500D01*
X-78500Y-120000D02*
X-74500D01*
Y-118000D01*
X-78500D02*
X-74500D01*
X-78500D02*
Y-110000D01*
X-74500D02*
Y-108000D01*
X-78500D02*
X-74500D01*
X-78500D02*
Y-100000D01*
X-74500D01*
Y-50000D02*
Y-44000D01*
X147500Y-50500D02*
X153498D01*
X151499Y-48501D01*
X153498Y-46501D01*
X147500D01*
Y-44502D02*
Y-42503D01*
Y-43502D01*
X153498D01*
X152498Y-44502D01*
D14*
X154107Y-98154D02*
X169848D01*
X154107Y-106034D02*
X169848D01*
Y-90284D01*
X158037D02*
X169848D01*
X158037D02*
Y-82404D01*
X169848D01*
Y-74534D01*
X158037D02*
X169848D01*
X158037D02*
Y-66664D01*
X169848D01*
Y-58784D01*
X158037D02*
X169848D01*
X148197Y-50924D02*
X177727Y-50914D01*
Y-113916D02*
Y-50914D01*
X148197Y-113916D02*
X177727Y-113916D01*
X85429Y-101870D02*
X144489D01*
X85429D02*
Y-62500D01*
X144489D01*
Y-101870D02*
Y-62500D01*
X83227Y-113916D02*
Y-50924D01*
X147219Y-113916D02*
X148197D01*
X139345D02*
X141281D01*
X131471D02*
X133407D01*
X123597D02*
X125533D01*
X115723D02*
X117659D01*
X107849D02*
X109785D01*
X99975D02*
X101911D01*
X92101D02*
X94037D01*
X83227D02*
X86163D01*
X147219Y-50924D02*
X148197D01*
X139345D02*
X141281D01*
X131471D02*
X133407D01*
X123597D02*
X125533D01*
X115723D02*
X117659D01*
X107849D02*
X109785D01*
X99975D02*
X101911D01*
X92101D02*
X94037D01*
X83227D02*
X86163D01*
D15*
X45762Y-70619D02*
X53000Y-63381D01*
X56619Y-67000D01*
X49381Y-74238D02*
X56619Y-67000D01*
X45762Y-70619D02*
X49381Y-74238D01*
X19691Y-117370D02*
X26929Y-110132D01*
X16072Y-113751D02*
X19691Y-117370D01*
X16072Y-113751D02*
X23310Y-106513D01*
X26929Y-110132D01*
D17*
X137884Y-66421D02*
X140550D01*
Y-70420D01*
X137884D01*
X140550Y-68421D02*
X139217D01*
X133885Y-67088D02*
X134551Y-66421D01*
X135884D01*
X136551Y-67088D01*
Y-67754D01*
X135884Y-68421D01*
X134551D01*
X133885Y-69087D01*
Y-69753D01*
X134551Y-70420D01*
X135884D01*
X136551Y-69753D01*
X132552Y-70420D02*
Y-66421D01*
X130553D01*
X129886Y-67088D01*
Y-68421D01*
X130553Y-69087D01*
X132552D01*
X128553Y-68421D02*
X125888D01*
X124555Y-70420D02*
X123222D01*
X123888D01*
Y-66421D01*
X124555Y-67088D01*
X118557Y-70420D02*
X121222D01*
X118557Y-67754D01*
Y-67088D01*
X119223Y-66421D01*
X120556D01*
X121222Y-67088D01*
X114558D02*
X115224Y-66421D01*
X116557D01*
X117224Y-67088D01*
Y-67754D01*
X116557Y-68421D01*
X115224D01*
X114558Y-69087D01*
Y-69753D01*
X115224Y-70420D01*
X116557D01*
X117224Y-69753D01*
D19*
X-71200Y-40134D02*
X-71866D01*
Y-38801D02*
Y-41133D01*
X-72533Y-39134D02*
X-72866Y-38801D01*
Y-39800D01*
X-72533D02*
X-73199D01*
X-73533Y-40134D02*
Y-39800D01*
X-73866D01*
X-74199D01*
Y-40134D01*
X-73533Y-40800D01*
X-74199D01*
Y-38801D02*
X-72533Y-40800D01*
X-74866Y-39800D02*
X-75532D01*
Y-41133D01*
X-74866Y-40134D02*
X-75532D01*
X-76198Y-39800D02*
X-77531D01*
X-76532Y-38801D02*
Y-39800D01*
X-77198Y-38801D02*
Y-39800D01*
X-78198D02*
X-77531D01*
X-78198Y-40134D02*
X-77531D01*
Y-38801D02*
Y-41133D01*
X-78198Y-39134D02*
X-78531Y-38801D01*
X-79197D01*
X-79531Y-39134D01*
Y-39467D01*
X-78864Y-40134D01*
Y-40467D02*
Y-40800D01*
X57191Y-67000D02*
X58605Y-65586D01*
X57898Y-64879D01*
X57427D01*
X56955Y-65351D01*
X56955Y-65822D01*
X57662Y-66529D01*
X57191Y-66057D02*
X56248D01*
X56955Y-64408D02*
X56955Y-63937D01*
X56484Y-63466D01*
X56013D01*
X55777Y-63701D01*
Y-64173D01*
X56013Y-64408D01*
X55777Y-64173D01*
X55306D01*
X55070Y-64408D01*
Y-64879D01*
X55541Y-65351D01*
X56013D01*
X53657Y-63466D02*
X55070Y-62052D01*
Y-63466D01*
X54128Y-62523D01*
X15500Y-113941D02*
X14086Y-115355D01*
X14793Y-116062D01*
X15264D01*
X15736Y-115591D01*
X15736Y-115119D01*
X15029Y-114412D01*
X15500Y-114884D02*
X16443D01*
X15736Y-116533D02*
X15736Y-117004D01*
X16207Y-117476D01*
X16678D01*
X16914Y-117240D01*
Y-116769D01*
X16678Y-116533D01*
X16914Y-116769D01*
X17385D01*
X17621Y-116533D01*
Y-116062D01*
X17149Y-115591D01*
X16678D01*
X17149Y-117947D02*
Y-118418D01*
X17621Y-118889D01*
X18092D01*
X18327Y-118654D01*
Y-118183D01*
X18092Y-117947D01*
X18327Y-118183D01*
X18799Y-118183D01*
X19034Y-117947D01*
X19034Y-117476D01*
X18563Y-117004D01*
X18092D01*
X157300Y-161101D02*
X155967D01*
Y-161434D01*
X157300Y-162767D01*
Y-163100D01*
X155301D02*
Y-162767D01*
X154967D01*
Y-163100D01*
X155301D01*
X152635D02*
Y-161101D01*
X153635Y-162100D01*
X152302D01*
X151635Y-161101D02*
Y-162434D01*
X150969Y-163100D01*
X150302Y-162434D01*
Y-161101D01*
M02*
